<svg width="232" height="23" viewBox="0 0 232 23" fill="none" xmlns="http://www.w3.org/2000/svg">
<path d="M115.499 12.0533H110.984V13.3409H115.499V12.0533Z" fill="#3F4E65"/>
<rect width="100" height="23" rx="11.5" fill="url(#paint0_linear_56_1635)" fill-opacity="0.3"/>
<path d="M50.0021 16.1193C51.8388 16.1193 52.9169 14.4616 52.9169 11.6364C52.9169 8.82386 51.8303 7.15341 50.0021 7.15341C48.174 7.15341 47.0874 8.82386 47.0874 11.6364C47.0874 14.4616 48.1655 16.1193 50.0021 16.1193ZM50.0021 15.4034C48.6598 15.4034 47.8587 14.027 47.8587 11.6364C47.8587 9.25 48.6641 7.85653 50.0021 7.85653C51.3402 7.85653 52.1456 9.25 52.1456 11.6364C52.1456 14.027 51.3445 15.4034 50.0021 15.4034Z" fill="#3F4E65"/>
<rect x="127" width="105" height="23" rx="11.5" fill="url(#paint1_linear_56_1635)" fill-opacity="0.3"/>
<path d="M164.087 7.27273H163.256L161.193 8.64062V9.46733L163.239 8.10795H163.29V16H164.087V7.27273ZM169.447 16.1193C171.284 16.1193 172.362 14.4616 172.362 11.6364C172.362 8.82386 171.276 7.15341 169.447 7.15341C167.619 7.15341 166.533 8.82386 166.533 11.6364C166.533 14.4616 167.611 16.1193 169.447 16.1193ZM169.447 15.4034C168.105 15.4034 167.304 14.027 167.304 11.6364C167.304 9.25 168.109 7.85653 169.447 7.85653C170.786 7.85653 171.591 9.25 171.591 11.6364C171.591 14.027 170.79 15.4034 169.447 15.4034ZM180.182 16.1193C182.018 16.1193 183.097 14.4616 183.097 11.6364C183.097 8.82386 182.01 7.15341 180.182 7.15341C178.354 7.15341 177.267 8.82386 177.267 11.6364C177.267 14.4616 178.345 16.1193 180.182 16.1193ZM180.182 15.4034C178.839 15.4034 178.038 14.027 178.038 11.6364C178.038 9.25 178.844 7.85653 180.182 7.85653C181.52 7.85653 182.325 9.25 182.325 11.6364C182.325 14.027 181.524 15.4034 180.182 15.4034ZM187.541 16.1193C189.378 16.1193 190.456 14.4616 190.456 11.6364C190.456 8.82386 189.369 7.15341 187.541 7.15341C185.713 7.15341 184.626 8.82386 184.626 11.6364C184.626 14.4616 185.705 16.1193 187.541 16.1193ZM187.541 15.4034C186.199 15.4034 185.398 14.027 185.398 11.6364C185.398 9.25 186.203 7.85653 187.541 7.85653C188.879 7.85653 189.685 9.25 189.685 11.6364C189.685 14.027 188.884 15.4034 187.541 15.4034ZM194.901 16.1193C196.737 16.1193 197.815 14.4616 197.815 11.6364C197.815 8.82386 196.729 7.15341 194.901 7.15341C193.072 7.15341 191.986 8.82386 191.986 11.6364C191.986 14.4616 193.064 16.1193 194.901 16.1193ZM194.901 15.4034C193.558 15.4034 192.757 14.027 192.757 11.6364C192.757 9.25 193.562 7.85653 194.901 7.85653C196.239 7.85653 197.044 9.25 197.044 11.6364C197.044 14.027 196.243 15.4034 194.901 15.4034Z" fill="#3F4E65"/>
<defs>
<linearGradient id="paint0_linear_56_1635" x1="7.86902e-07" y1="11.6949" x2="97.25" y2="11.6949" gradientUnits="userSpaceOnUse">
<stop stop-color="#FFC650"/>
<stop offset="1" stop-color="#FECA6E"/>
</linearGradient>
<linearGradient id="paint1_linear_56_1635" x1="127" y1="11.6949" x2="229.113" y2="11.6949" gradientUnits="userSpaceOnUse">
<stop stop-color="#FFC650"/>
<stop offset="1" stop-color="#FECA6E"/>
</linearGradient>
</defs>
</svg>
