<svg width="345" height="190" viewBox="0 0 345 190" fill="none" xmlns="http://www.w3.org/2000/svg">
<g filter="url(#filter0_d_131_1114)">
<rect x="28" y="14" width="289" height="134" rx="10" fill="white"/>
</g>
<path d="M44.0568 92H47.3295C49.2045 92 50.2273 90.9432 50.2273 89.4261C50.2273 87.9091 49.2045 86.9375 47.3295 86.9375H45.1136V84.2102H49.3239V83.2727H44.0568V92ZM45.1136 91.0795V87.875H47.3295C48.5227 87.875 49.1875 88.5739 49.1875 89.4091C49.1875 90.2614 48.5227 91.0795 47.3295 91.0795H45.1136ZM54.5749 92.1364C55.9045 92.1364 56.8761 91.4716 57.1829 90.483L56.2113 90.2102C55.9556 90.892 55.3633 91.233 54.5749 91.233C53.3945 91.233 52.5806 90.4702 52.5337 89.0682H57.2852V88.642C57.2852 86.2045 55.8363 85.3693 54.4727 85.3693C52.6999 85.3693 51.5238 86.767 51.5238 88.7784C51.5238 90.7898 52.6829 92.1364 54.5749 92.1364ZM52.5337 88.1989C52.6019 87.1804 53.3221 86.2727 54.4727 86.2727C55.5636 86.2727 56.2624 87.0909 56.2624 88.1989H52.5337ZM61.4741 92.1364C62.9229 92.1364 63.8775 91.25 64.0479 90.0909H63.0423C62.8548 90.8068 62.2582 91.233 61.4741 91.233C60.2809 91.233 59.5138 90.2443 59.5138 88.7273C59.5138 87.2443 60.2979 86.2727 61.4741 86.2727C62.3604 86.2727 62.8888 86.8182 63.0423 87.4148H64.0479C63.8775 86.1875 62.8377 85.3693 61.457 85.3693C59.6843 85.3693 58.5082 86.767 58.5082 88.7614C58.5082 90.7216 59.6332 92.1364 61.4741 92.1364ZM65.5181 92H66.5238V86.392H69.6602V92H70.6658V85.4545H65.5181V92ZM71.9229 92H72.2638C73.7127 92 74.1303 90.875 74.2241 88.7273L74.3263 86.392H76.7298V92H77.7354V85.4545H73.3718L73.2525 88.3523C73.1673 90.5511 72.9457 91.0625 72.1616 91.0625H71.9229V92ZM81.5067 92.1534C82.6488 92.1534 83.2454 91.5398 83.4499 91.1136H83.5011V92H84.5067V87.6875C84.5067 85.608 82.9215 85.3693 82.0863 85.3693C81.0977 85.3693 79.9727 85.7102 79.4613 86.9034L80.4158 87.2443C80.6374 86.767 81.1616 86.2557 82.1204 86.2557C83.0451 86.2557 83.5011 86.7457 83.5011 87.5852V87.6193C83.5011 88.1051 83.0067 88.0625 81.8136 88.2159C80.5991 88.3736 79.2738 88.642 79.2738 90.142C79.2738 91.4205 80.2624 92.1534 81.5067 92.1534ZM81.6602 91.25C80.859 91.25 80.2795 90.892 80.2795 90.1932C80.2795 89.4261 80.9783 89.1875 81.7624 89.0852C82.1886 89.0341 83.3306 88.9148 83.5011 88.7102V89.6307C83.5011 90.4489 82.8533 91.25 81.6602 91.25ZM85.4517 86.392H87.6165V92H88.6222V86.392H90.7699V85.4545H85.4517V86.392ZM93.2425 85.4545H92.2369V92H93.2425V89.2045H96.3789V92H97.3846V85.4545H96.3789V88.267H93.2425V85.4545ZM101.147 92.1534C102.289 92.1534 102.886 91.5398 103.091 91.1136H103.142V92H104.147V87.6875C104.147 85.608 102.562 85.3693 101.727 85.3693C100.738 85.3693 99.6133 85.7102 99.1019 86.9034L100.056 87.2443C100.278 86.767 100.802 86.2557 101.761 86.2557C102.686 86.2557 103.142 86.7457 103.142 87.5852V87.6193C103.142 88.1051 102.647 88.0625 101.454 88.2159C100.24 88.3736 98.9144 88.642 98.9144 90.142C98.9144 91.4205 99.9031 92.1534 101.147 92.1534ZM101.301 91.25C100.5 91.25 99.9201 90.892 99.9201 90.1932C99.9201 89.4261 100.619 89.1875 101.403 89.0852C101.829 89.0341 102.971 88.9148 103.142 88.7102V89.6307C103.142 90.4489 102.494 91.25 101.301 91.25ZM109.92 92H110.875V85.4545H108.182C106.771 85.4545 105.915 86.1918 105.915 87.3977C105.915 88.2969 106.366 88.9361 107.155 89.2045L105.557 92H106.648L108.165 89.3409H109.92V92ZM109.92 88.4034H108.062C107.351 88.4034 106.92 88.0241 106.92 87.3977C106.92 86.7628 107.398 86.375 108.182 86.375H109.92V88.4034ZM115.397 93.875H116.403V92H121.244V93.875H122.25V91.0625H121.244V85.4545H117.085L116.863 88.0455C116.706 89.8778 116.471 90.5085 115.943 91.0625H115.397V93.875ZM117.085 91.0625C117.545 90.4574 117.711 89.4134 117.852 88.0455L118.022 86.392H120.238V91.0625H117.085ZM126.244 92.1364C128.016 92.1364 129.21 90.7898 129.21 88.7614C129.21 86.7159 128.016 85.3693 126.244 85.3693C124.471 85.3693 123.278 86.7159 123.278 88.7614C123.278 90.7898 124.471 92.1364 126.244 92.1364ZM126.244 91.233C124.897 91.233 124.283 90.0739 124.283 88.7614C124.283 87.4489 124.897 86.2727 126.244 86.2727C127.59 86.2727 128.204 87.4489 128.204 88.7614C128.204 90.0739 127.59 91.233 126.244 91.233ZM133.404 92.1364C134.853 92.1364 135.807 91.25 135.978 90.0909H134.972C134.784 90.8068 134.188 91.233 133.404 91.233C132.211 91.233 131.444 90.2443 131.444 88.7273C131.444 87.2443 132.228 86.2727 133.404 86.2727C134.29 86.2727 134.819 86.8182 134.972 87.4148H135.978C135.807 86.1875 134.767 85.3693 133.387 85.3693C131.614 85.3693 130.438 86.767 130.438 88.7614C130.438 90.7216 131.563 92.1364 133.404 92.1364ZM136.932 86.392H139.097V92H140.103V86.392H142.25V85.4545H136.932V86.392ZM145.304 92.1534C146.446 92.1534 147.042 91.5398 147.247 91.1136H147.298V92H148.304V87.6875C148.304 85.608 146.718 85.3693 145.883 85.3693C144.895 85.3693 143.77 85.7102 143.258 86.9034L144.213 87.2443C144.434 86.767 144.958 86.2557 145.917 86.2557C146.842 86.2557 147.298 86.7457 147.298 87.5852V87.6193C147.298 88.1051 146.804 88.0625 145.61 88.2159C144.396 88.3736 143.071 88.642 143.071 90.142C143.071 91.4205 144.059 92.1534 145.304 92.1534ZM145.457 91.25C144.656 91.25 144.076 90.892 144.076 90.1932C144.076 89.4261 144.775 89.1875 145.559 89.0852C145.985 89.0341 147.127 88.9148 147.298 88.7102V89.6307C147.298 90.4489 146.65 91.25 145.457 91.25ZM150.139 92H153.224C154.554 92 155.355 91.25 155.355 90.2443C155.355 89.2173 154.575 88.6634 153.855 88.5568C154.592 88.4034 155.116 87.9901 155.116 87.1932C155.116 86.1491 154.222 85.4545 152.815 85.4545H150.139V92ZM151.094 91.0795V89.0682H153.224C153.915 89.0682 154.332 89.4815 154.332 90.1591C154.332 90.7301 153.915 91.0795 153.224 91.0795H151.094ZM151.094 88.1989V86.375H152.815C153.621 86.375 154.111 86.7116 154.111 87.2614C154.111 87.8452 153.621 88.1989 152.815 88.1989H151.094ZM156.877 92H157.883V89.2386H158.787L160.934 92H162.23L159.554 88.608L162.196 85.4545H160.9L158.548 88.3011H157.883V85.4545H156.877V92ZM165.249 92.1534C166.391 92.1534 166.988 91.5398 167.192 91.1136H167.243V92H168.249V87.6875C168.249 85.608 166.664 85.3693 165.828 85.3693C164.84 85.3693 163.715 85.7102 163.203 86.9034L164.158 87.2443C164.38 86.767 164.904 86.2557 165.863 86.2557C166.787 86.2557 167.243 86.7457 167.243 87.5852V87.6193C167.243 88.1051 166.749 88.0625 165.556 88.2159C164.341 88.3736 163.016 88.642 163.016 90.142C163.016 91.4205 164.005 92.1534 165.249 92.1534ZM165.402 91.25C164.601 91.25 164.022 90.892 164.022 90.1932C164.022 89.4261 164.721 89.1875 165.505 89.0852C165.931 89.0341 167.073 88.9148 167.243 88.7102V89.6307C167.243 90.4489 166.596 91.25 165.402 91.25ZM176.119 92.1364C177.891 92.1364 179.085 90.7898 179.085 88.7614C179.085 86.7159 177.891 85.3693 176.119 85.3693C174.346 85.3693 173.153 86.7159 173.153 88.7614C173.153 90.7898 174.346 92.1364 176.119 92.1364ZM176.119 91.233C174.772 91.233 174.158 90.0739 174.158 88.7614C174.158 87.4489 174.772 86.2727 176.119 86.2727C177.465 86.2727 178.079 87.4489 178.079 88.7614C178.079 90.0739 177.465 91.233 176.119 91.233ZM179.764 86.392H181.929V92H182.935V86.392H185.082V85.4545H179.764V86.392ZM193.508 83.2727H191.774L189.613 84.6406V86.277L191.612 85.0241H191.663V92H193.508V83.2727ZM199.004 92.1918C201.199 92.1918 202.524 90.5213 202.528 87.6449C202.533 84.7898 201.19 83.1534 199.004 83.1534C196.814 83.1534 195.484 84.7855 195.48 87.6449C195.472 90.5128 196.805 92.1875 199.004 92.1918ZM199.004 90.6619C198.003 90.6619 197.355 89.6562 197.359 87.6449C197.364 85.6634 198.007 84.6662 199.004 84.6662C199.997 84.6662 200.645 85.6634 200.645 87.6449C200.649 89.6562 200.001 90.6619 199.004 90.6619ZM210.043 92.1918C212.238 92.1918 213.563 90.5213 213.567 87.6449C213.572 84.7898 212.229 83.1534 210.043 83.1534C207.853 83.1534 206.523 84.7855 206.519 87.6449C206.511 90.5128 207.844 92.1875 210.043 92.1918ZM210.043 90.6619C209.042 90.6619 208.394 89.6562 208.398 87.6449C208.403 85.6634 209.046 84.6662 210.043 84.6662C211.036 84.6662 211.684 85.6634 211.684 87.6449C211.688 89.6562 211.04 90.6619 210.043 90.6619ZM218.305 92.1918C220.5 92.1918 221.825 90.5213 221.829 87.6449C221.833 84.7898 220.491 83.1534 218.305 83.1534C216.115 83.1534 214.785 84.7855 214.781 87.6449C214.772 90.5128 216.106 92.1875 218.305 92.1918ZM218.305 90.6619C217.304 90.6619 216.656 89.6562 216.66 87.6449C216.664 85.6634 217.308 84.6662 218.305 84.6662C219.298 84.6662 219.946 85.6634 219.946 87.6449C219.95 89.6562 219.302 90.6619 218.305 90.6619ZM226.567 92.1918C228.761 92.1918 230.087 90.5213 230.091 87.6449C230.095 84.7898 228.753 83.1534 226.567 83.1534C224.376 83.1534 223.047 84.7855 223.043 87.6449C223.034 90.5128 224.368 92.1875 226.567 92.1918ZM226.567 90.6619C225.565 90.6619 224.918 89.6562 224.922 87.6449C224.926 85.6634 225.57 84.6662 226.567 84.6662C227.56 84.6662 228.207 85.6634 228.207 87.6449C228.212 89.6562 227.564 90.6619 226.567 90.6619ZM240.602 84.9091H234.056V85.8466H236.8V92H237.857V85.8466H240.602V84.9091ZM240.602 83.2727H234.056V84.2102H240.602V83.2727ZM43.9205 110H44.9261V104.392H48.0625V110H49.0682V103.455H43.9205V110ZM53.5639 110.136C55.3366 110.136 56.5298 108.79 56.5298 106.761C56.5298 104.716 55.3366 103.369 53.5639 103.369C51.7912 103.369 50.598 104.716 50.598 106.761C50.598 108.79 51.7912 110.136 53.5639 110.136ZM53.5639 109.233C52.2173 109.233 51.6037 108.074 51.6037 106.761C51.6037 105.449 52.2173 104.273 53.5639 104.273C54.9105 104.273 55.5241 105.449 55.5241 106.761C55.5241 108.074 54.9105 109.233 53.5639 109.233ZM64.0991 110.136C65.8718 110.136 67.065 108.79 67.065 106.761C67.065 104.716 65.8718 103.369 64.0991 103.369C62.3263 103.369 61.1332 104.716 61.1332 106.761C61.1332 108.79 62.3263 110.136 64.0991 110.136ZM64.0991 109.233C62.7525 109.233 62.1388 108.074 62.1388 106.761C62.1388 105.449 62.7525 104.273 64.0991 104.273C65.4457 104.273 66.0593 105.449 66.0593 106.761C66.0593 108.074 65.4457 109.233 64.0991 109.233ZM73.4581 101C73.1385 101.268 72.6612 101.268 71.9922 101.264C71.7749 101.264 71.5362 101.264 71.2763 101.273C69.282 101.324 68.2933 102.841 68.2933 105.756V106.455C68.2933 108.875 69.4695 110.136 71.2251 110.136C72.9766 110.136 74.1399 108.866 74.1399 106.812C74.1399 104.75 72.9595 103.659 71.4297 103.659C70.5305 103.659 69.6911 104.034 69.2479 104.852H69.1626C69.299 103.165 69.9297 102.261 71.2933 102.21C72.5036 102.159 73.3729 102.193 73.9695 101.614L73.4581 101ZM71.2251 109.233C70.032 109.233 69.299 108.278 69.299 106.812C69.3203 105.381 70.0405 104.562 71.2081 104.562C72.4055 104.562 73.1342 105.381 73.1342 106.812C73.1342 108.287 72.4098 109.233 71.2251 109.233ZM75.0987 110H75.4396C76.8885 110 77.3061 108.875 77.3999 106.727L77.5021 104.392H79.9055V110H80.9112V103.455H76.5476L76.4283 106.352C76.343 108.551 76.1214 109.062 75.3374 109.062H75.0987V110ZM84.6825 110.153C85.8246 110.153 86.4212 109.54 86.6257 109.114H86.6768V110H87.6825V105.688C87.6825 103.608 86.0973 103.369 85.2621 103.369C84.2734 103.369 83.1484 103.71 82.6371 104.903L83.5916 105.244C83.8132 104.767 84.3374 104.256 85.2962 104.256C86.2209 104.256 86.6768 104.746 86.6768 105.585V105.619C86.6768 106.105 86.1825 106.062 84.9893 106.216C83.7749 106.374 82.4496 106.642 82.4496 108.142C82.4496 109.42 83.4382 110.153 84.6825 110.153ZM84.8359 109.25C84.0348 109.25 83.4553 108.892 83.4553 108.193C83.4553 107.426 84.1541 107.188 84.9382 107.085C85.3643 107.034 86.5064 106.915 86.6768 106.71V107.631C86.6768 108.449 86.0291 109.25 84.8359 109.25ZM92.1772 110.136C93.6261 110.136 94.5806 109.25 94.7511 108.091H93.7454C93.5579 108.807 92.9613 109.233 92.1772 109.233C90.984 109.233 90.217 108.244 90.217 106.727C90.217 105.244 91.0011 104.273 92.1772 104.273C93.0636 104.273 93.592 104.818 93.7454 105.415H94.7511C94.5806 104.188 93.5408 103.369 92.1602 103.369C90.3874 103.369 89.2113 104.767 89.2113 106.761C89.2113 108.722 90.3363 110.136 92.1772 110.136ZM95.7056 104.392H97.8704V110H98.8761V104.392H101.024V103.455H95.7056V104.392ZM103.496 108.517V103.455H102.491V110H103.667L106.803 104.938V110H107.809V103.455H106.65L103.496 108.517ZM110.384 110.068C110.806 110.068 111.151 109.723 111.151 109.301C111.151 108.879 110.806 108.534 110.384 108.534C109.962 108.534 109.617 108.879 109.617 109.301C109.617 109.723 109.962 110.068 110.384 110.068ZM116.467 110H117.524V106.097H122.177V110H123.234V101.273H122.177V105.159H117.524V101.273H116.467V110ZM127.14 110.153C128.282 110.153 128.878 109.54 129.083 109.114H129.134V110H130.14V105.688C130.14 103.608 128.554 103.369 127.719 103.369C126.73 103.369 125.605 103.71 125.094 104.903L126.049 105.244C126.27 104.767 126.794 104.256 127.753 104.256C128.678 104.256 129.134 104.746 129.134 105.585V105.619C129.134 106.105 128.64 106.062 127.446 106.216C126.232 106.374 124.907 106.642 124.907 108.142C124.907 109.42 125.895 110.153 127.14 110.153ZM127.293 109.25C126.492 109.25 125.912 108.892 125.912 108.193C125.912 107.426 126.611 107.188 127.395 107.085C127.821 107.034 128.963 106.915 129.134 106.71V107.631C129.134 108.449 128.486 109.25 127.293 109.25ZM131.975 103.455V110H139.935V103.455H138.93V109.062H136.458V103.455H135.452V109.062H132.981V103.455H131.975ZM143.698 110.153C144.84 110.153 145.437 109.54 145.641 109.114H145.692V110H146.698V105.688C146.698 103.608 145.113 103.369 144.278 103.369C143.289 103.369 142.164 103.71 141.653 104.903L142.607 105.244C142.829 104.767 143.353 104.256 144.312 104.256C145.237 104.256 145.692 104.746 145.692 105.585V105.619C145.692 106.105 145.198 106.062 144.005 106.216C142.79 106.374 141.465 106.642 141.465 108.142C141.465 109.42 142.454 110.153 143.698 110.153ZM143.852 109.25C143.05 109.25 142.471 108.892 142.471 108.193C142.471 107.426 143.17 107.188 143.954 107.085C144.38 107.034 145.522 106.915 145.692 106.71V107.631C145.692 108.449 145.045 109.25 143.852 109.25ZM151.21 111.875H152.216V110H157.056V111.875H158.062V109.062H157.056V103.455H152.897L152.676 106.045C152.518 107.878 152.284 108.509 151.755 109.062H151.21V111.875ZM152.897 109.062C153.358 108.457 153.524 107.413 153.664 106.045L153.835 104.392H156.051V109.062H152.897ZM162.056 110.136C163.829 110.136 165.022 108.79 165.022 106.761C165.022 104.716 163.829 103.369 162.056 103.369C160.283 103.369 159.09 104.716 159.09 106.761C159.09 108.79 160.283 110.136 162.056 110.136ZM162.056 109.233C160.71 109.233 160.096 108.074 160.096 106.761C160.096 105.449 160.71 104.273 162.056 104.273C163.403 104.273 164.016 105.449 164.016 106.761C164.016 108.074 163.403 109.233 162.056 109.233ZM169.216 110.136C170.665 110.136 171.62 109.25 171.79 108.091H170.784C170.597 108.807 170 109.233 169.216 109.233C168.023 109.233 167.256 108.244 167.256 106.727C167.256 105.244 168.04 104.273 169.216 104.273C170.103 104.273 170.631 104.818 170.784 105.415H171.79C171.62 104.188 170.58 103.369 169.199 103.369C167.426 103.369 166.25 104.767 166.25 106.761C166.25 108.722 167.375 110.136 169.216 110.136ZM172.745 104.392H174.909V110H175.915V104.392H178.063V103.455H172.745V104.392ZM181.116 110.153C182.258 110.153 182.855 109.54 183.059 109.114H183.11V110H184.116V105.688C184.116 103.608 182.531 103.369 181.696 103.369C180.707 103.369 179.582 103.71 179.071 104.903L180.025 105.244C180.247 104.767 180.771 104.256 181.73 104.256C182.654 104.256 183.11 104.746 183.11 105.585V105.619C183.11 106.105 182.616 106.062 181.423 106.216C180.208 106.374 178.883 106.642 178.883 108.142C178.883 109.42 179.872 110.153 181.116 110.153ZM181.27 109.25C180.468 109.25 179.889 108.892 179.889 108.193C179.889 107.426 180.588 107.188 181.372 107.085C181.798 107.034 182.94 106.915 183.11 106.71V107.631C183.11 108.449 182.463 109.25 181.27 109.25ZM185.952 110H189.037C190.366 110 191.168 109.25 191.168 108.244C191.168 107.217 190.388 106.663 189.668 106.557C190.405 106.403 190.929 105.99 190.929 105.193C190.929 104.149 190.034 103.455 188.628 103.455H185.952V110ZM186.906 109.08V107.068H189.037C189.727 107.068 190.145 107.482 190.145 108.159C190.145 108.73 189.727 109.08 189.037 109.08H186.906ZM186.906 106.199V104.375H188.628C189.433 104.375 189.923 104.712 189.923 105.261C189.923 105.845 189.433 106.199 188.628 106.199H186.906ZM192.69 110H193.696V107.239H194.599L196.747 110H198.042L195.366 106.608L198.008 103.455H196.713L194.36 106.301H193.696V103.455H192.69V110ZM201.061 110.153C202.203 110.153 202.8 109.54 203.005 109.114H203.056V110H204.061V105.688C204.061 103.608 202.476 103.369 201.641 103.369C200.652 103.369 199.527 103.71 199.016 104.903L199.971 105.244C200.192 104.767 200.716 104.256 201.675 104.256C202.6 104.256 203.056 104.746 203.056 105.585V105.619C203.056 106.105 202.561 106.062 201.368 106.216C200.154 106.374 198.828 106.642 198.828 108.142C198.828 109.42 199.817 110.153 201.061 110.153ZM201.215 109.25C200.414 109.25 199.834 108.892 199.834 108.193C199.834 107.426 200.533 107.188 201.317 107.085C201.743 107.034 202.885 106.915 203.056 106.71V107.631C203.056 108.449 202.408 109.25 201.215 109.25ZM209.272 112.455H210.278V108.994H210.363C210.585 109.352 211.011 110.136 212.272 110.136C213.908 110.136 215.05 108.824 215.05 106.744C215.05 104.682 213.908 103.369 212.255 103.369C210.977 103.369 210.585 104.153 210.363 104.494H210.244V103.455H209.272V112.455ZM210.261 106.727C210.261 105.261 210.908 104.273 212.136 104.273C213.414 104.273 214.045 105.347 214.045 106.727C214.045 108.125 213.397 109.233 212.136 109.233C210.925 109.233 210.261 108.21 210.261 106.727ZM218.511 110.153C219.653 110.153 220.249 109.54 220.454 109.114H220.505V110H221.511V105.688C221.511 103.608 219.925 103.369 219.09 103.369C218.102 103.369 216.977 103.71 216.465 104.903L217.42 105.244C217.641 104.767 218.165 104.256 219.124 104.256C220.049 104.256 220.505 104.746 220.505 105.585V105.619C220.505 106.105 220.011 106.062 218.817 106.216C217.603 106.374 216.278 106.642 216.278 108.142C216.278 109.42 217.266 110.153 218.511 110.153ZM218.664 109.25C217.863 109.25 217.283 108.892 217.283 108.193C217.283 107.426 217.982 107.188 218.766 107.085C219.192 107.034 220.335 106.915 220.505 106.71V107.631C220.505 108.449 219.857 109.25 218.664 109.25ZM228.204 101C227.885 101.268 227.407 101.268 226.738 101.264C226.521 101.264 226.282 101.264 226.022 101.273C224.028 101.324 223.039 102.841 223.039 105.756V106.455C223.039 108.875 224.216 110.136 225.971 110.136C227.723 110.136 228.886 108.866 228.886 106.812C228.886 104.75 227.706 103.659 226.176 103.659C225.277 103.659 224.437 104.034 223.994 104.852H223.909C224.045 103.165 224.676 102.261 226.039 102.21C227.25 102.159 228.119 102.193 228.716 101.614L228.204 101ZM225.971 109.233C224.778 109.233 224.045 108.278 224.045 106.812C224.066 105.381 224.787 104.562 225.954 104.562C227.152 104.562 227.88 105.381 227.88 106.812C227.88 108.287 227.156 109.233 225.971 109.233ZM233.083 110.136C234.856 110.136 236.049 108.79 236.049 106.761C236.049 104.716 234.856 103.369 233.083 103.369C231.311 103.369 230.118 104.716 230.118 106.761C230.118 108.79 231.311 110.136 233.083 110.136ZM233.083 109.233C231.737 109.233 231.123 108.074 231.123 106.761C231.123 105.449 231.737 104.273 233.083 104.273C234.43 104.273 235.044 105.449 235.044 106.761C235.044 108.074 234.43 109.233 233.083 109.233ZM236.729 104.392H238.894V110H239.9V104.392H242.047V103.455H236.729V104.392ZM245.1 110.153C246.243 110.153 246.839 109.54 247.044 109.114H247.095V110H248.1V105.688C248.1 103.608 246.515 103.369 245.68 103.369C244.691 103.369 243.566 103.71 243.055 104.903L244.01 105.244C244.231 104.767 244.755 104.256 245.714 104.256C246.639 104.256 247.095 104.746 247.095 105.585V105.619C247.095 106.105 246.6 106.062 245.407 106.216C244.193 106.374 242.868 106.642 242.868 108.142C242.868 109.42 243.856 110.153 245.1 110.153ZM245.254 109.25C244.453 109.25 243.873 108.892 243.873 108.193C243.873 107.426 244.572 107.188 245.356 107.085C245.782 107.034 246.924 106.915 247.095 106.71V107.631C247.095 108.449 246.447 109.25 245.254 109.25ZM252.68 110.136C254.01 110.136 254.982 109.472 255.288 108.483L254.317 108.21C254.061 108.892 253.469 109.233 252.68 109.233C251.5 109.233 250.686 108.47 250.639 107.068H255.391V106.642C255.391 104.205 253.942 103.369 252.578 103.369C250.805 103.369 249.629 104.767 249.629 106.778C249.629 108.79 250.788 110.136 252.68 110.136ZM250.639 106.199C250.707 105.18 251.428 104.273 252.578 104.273C253.669 104.273 254.368 105.091 254.368 106.199H250.639ZM256.311 104.392H258.476V110H259.482V104.392H261.629V103.455H256.311V104.392ZM46.6648 128.136C47.9943 128.136 48.9659 127.472 49.2727 126.483L48.3011 126.21C48.0455 126.892 47.4531 127.233 46.6648 127.233C45.4844 127.233 44.6705 126.47 44.6236 125.068H49.375V124.642C49.375 122.205 47.9261 121.369 46.5625 121.369C44.7898 121.369 43.6136 122.767 43.6136 124.778C43.6136 126.79 44.7727 128.136 46.6648 128.136ZM44.6236 124.199C44.6918 123.18 45.4119 122.273 46.5625 122.273C47.6534 122.273 48.3523 123.091 48.3523 124.199H44.6236ZM50.32 128H51.5302L53.7631 125.188H54.2745V128H55.2802V125.188H55.7915L58.0075 128H59.2177L56.5756 124.676L59.1836 121.455H57.9904L55.8086 124.25H55.2802V121.455H54.2745V124.25H53.729L51.5472 121.455H50.354L52.979 124.676L50.32 128ZM63.1296 128.136C64.4592 128.136 65.4308 127.472 65.7376 126.483L64.766 126.21C64.5103 126.892 63.918 127.233 63.1296 127.233C61.9492 127.233 61.1353 126.47 61.0884 125.068H65.8398V124.642C65.8398 122.205 64.391 121.369 63.0273 121.369C61.2546 121.369 60.0785 122.767 60.0785 124.778C60.0785 126.79 61.2376 128.136 63.1296 128.136ZM61.0884 124.199C61.1566 123.18 61.8768 122.273 63.0273 122.273C64.1183 122.273 64.8171 123.091 64.8171 124.199H61.0884ZM66.6708 129.875H67.6765V128H72.5174V129.875H73.5231V127.062H72.5174V121.455H68.3583L68.1367 124.045C67.979 125.878 67.7447 126.509 67.2163 127.062H66.6708V129.875ZM68.3583 127.062C68.8185 126.457 68.9847 125.413 69.1254 124.045L69.2958 122.392H71.5117V127.062H68.3583ZM75.8636 121.455H74.858V128H75.8636V125.205H79V128H80.0057V121.455H79V124.267H75.8636V121.455ZM84.5866 128.136C85.9162 128.136 86.8878 127.472 87.1946 126.483L86.223 126.21C85.9673 126.892 85.375 127.233 84.5866 127.233C83.4062 127.233 82.5923 126.47 82.5455 125.068H87.2969V124.642C87.2969 122.205 85.848 121.369 84.4844 121.369C82.7116 121.369 81.5355 122.767 81.5355 124.778C81.5355 126.79 82.6946 128.136 84.5866 128.136ZM82.5455 124.199C82.6136 123.18 83.3338 122.273 84.4844 122.273C85.5753 122.273 86.2741 123.091 86.2741 124.199H82.5455ZM88.8267 128H91.9119C93.2415 128 94.0426 127.25 94.0426 126.244C94.0426 125.217 93.2628 124.663 92.5426 124.557C93.2798 124.403 93.804 123.99 93.804 123.193C93.804 122.149 92.9091 121.455 91.5028 121.455H88.8267V128ZM89.7812 127.08V125.068H91.9119C92.6023 125.068 93.0199 125.482 93.0199 126.159C93.0199 126.73 92.6023 127.08 91.9119 127.08H89.7812ZM89.7812 124.199V122.375H91.5028C92.3082 122.375 92.7983 122.712 92.7983 123.261C92.7983 123.845 92.3082 124.199 91.5028 124.199H89.7812ZM96.5707 121.455H95.565V128H96.5707V125.205H99.707V128H100.713V121.455H99.707V124.267H96.5707V121.455ZM105.208 128.136C106.981 128.136 108.174 126.79 108.174 124.761C108.174 122.716 106.981 121.369 105.208 121.369C103.436 121.369 102.243 122.716 102.243 124.761C102.243 126.79 103.436 128.136 105.208 128.136ZM105.208 127.233C103.862 127.233 103.248 126.074 103.248 124.761C103.248 123.449 103.862 122.273 105.208 122.273C106.555 122.273 107.169 123.449 107.169 124.761C107.169 126.074 106.555 127.233 105.208 127.233ZM110.442 128.068C110.864 128.068 111.21 127.723 111.21 127.301C111.21 126.879 110.864 126.534 110.442 126.534C110.021 126.534 109.675 126.879 109.675 127.301C109.675 127.723 110.021 128.068 110.442 128.068Z" fill="#3F4E65"/>
<rect x="43" y="29" width="35" height="35" rx="17.5" fill="url(#paint0_linear_131_1114)" fill-opacity="0.3"/>
<path fill-rule="evenodd" clip-rule="evenodd" d="M64.1191 41.5533C65.593 41.8953 66.1569 42.7571 66.8637 43.9434H64.1191V41.5533ZM55.5055 44.043C55.7941 44.043 56.0036 44.1823 56.0036 44.5078C56.0036 44.7824 55.7814 45.0051 55.507 45.0059H52.498C52.223 45.0059 52 45.2289 52 45.5039C52 45.779 52.223 46.002 52.498 46.002H56.9805C57.2582 46.002 57.4805 46.2248 57.4805 46.5C57.4805 46.7751 57.2575 46.998 56.9824 46.998H52.498C52.223 46.998 52 47.221 52 47.4961C52 47.7712 52.223 47.9941 52.498 47.9941H53.5938V49.4883C53.5938 49.7634 53.8167 49.9863 54.0918 49.9863H55.0929C55.2714 50.8654 56.0482 51.5137 56.9639 51.5137C57.8795 51.5137 58.6563 50.8654 58.8348 49.9863H63.8918C64.0702 50.8654 64.847 51.5137 65.7627 51.5137C66.6784 51.5137 67.4551 50.8654 67.6336 49.9863H68.502C68.777 49.9863 69 49.7634 69 49.4883V46.5C69 45.0387 67.4586 44.9417 67.4572 44.9395H63.6211C63.346 44.9395 63.123 44.7165 63.123 44.4414V41.4531H54.0918C53.8167 41.4531 53.5938 41.6761 53.5938 41.9512V43.0469H52.9961C52.721 43.0469 52.498 43.2698 52.498 43.5449C52.498 43.82 52.721 44.043 52.9961 44.043H55.5055ZM66.4083 48.9588C66.7649 49.3154 66.7649 49.8937 66.4083 50.2503C65.8348 50.8238 64.8496 50.4158 64.8496 49.6045C64.8496 48.7934 65.8348 48.3853 66.4083 48.9588ZM57.6095 48.9588C57.9661 49.3154 57.9661 49.8937 57.6095 50.2503C57.036 50.8238 56.0508 50.4158 56.0508 49.6045C56.0508 48.7934 57.036 48.3853 57.6095 48.9588Z" fill="#3F4E65"/>
<path d="M93.3977 55.8125H95.0795V53H102.892V55.7955H104.574V51.5114H103.256V41.3636H96.0795L95.8068 46.2784C95.6307 49.517 94.9432 50.8523 94.1648 51.5114H93.3977V55.8125ZM96.233 51.5114C96.8977 50.4489 97.3466 48.7386 97.4886 46.2784L97.6705 42.875H101.574V51.5114H96.233ZM116.605 47.1818C116.605 43.4602 114.378 41.2045 111.366 41.2045C108.344 41.2045 106.122 43.4602 106.122 47.1818C106.122 50.8977 108.344 53.1591 111.366 53.1591C114.378 53.1591 116.605 50.9034 116.605 47.1818ZM114.866 47.1818C114.866 50.017 113.366 51.5568 111.366 51.5568C109.361 51.5568 107.866 50.017 107.866 47.1818C107.866 44.3466 109.361 42.8068 111.366 42.8068C113.366 42.8068 114.866 44.3466 114.866 47.1818ZM128.459 45.1477C128.061 42.6591 126.112 41.2045 123.652 41.2045C120.641 41.2045 118.419 43.4602 118.419 47.1818C118.419 50.9034 120.629 53.1591 123.652 53.1591C126.209 53.1591 128.078 51.5568 128.459 49.2557L126.686 49.25C126.385 50.7386 125.135 51.5568 123.663 51.5568C121.669 51.5568 120.163 50.0284 120.163 47.1818C120.163 44.358 121.663 42.8068 123.669 42.8068C125.152 42.8068 126.396 43.642 126.686 45.1477H128.459ZM129.986 42.875H133.611V53H135.361V42.875H138.991V41.3636H129.986V42.875ZM140.574 53L141.642 49.9205H146.188L147.25 53H149.114L144.926 41.3636H142.898L138.71 53H140.574ZM142.153 48.4432L143.869 43.4773H143.96L145.676 48.4432H142.153ZM150.794 53H155.254C157.959 53 159.18 51.6534 159.18 49.8693C159.18 48.0682 157.919 47.0511 156.766 46.9886V46.875C157.834 46.6023 158.726 45.875 158.726 44.4205C158.726 42.6989 157.533 41.3636 155.055 41.3636H150.794V53ZM152.55 51.4943V47.767H155.146C156.555 47.767 157.436 48.6761 157.436 49.7841C157.436 50.7614 156.771 51.4943 155.084 51.4943H152.55ZM152.55 46.3977V42.858H154.947C156.339 42.858 157.004 43.5909 157.004 44.5568C157.004 45.6818 156.084 46.3977 154.902 46.3977H152.55ZM168.166 53H170.308L165.479 46.5739L170.132 41.3636H167.99L163.592 46.2784H163.018V41.3636H161.263V53H163.018V47.7841H164.257L168.166 53ZM172.918 53L173.986 49.9205H178.531L179.594 53H181.457L177.27 41.3636H175.241L171.054 53H172.918ZM174.497 48.4432L176.213 43.4773H176.304L178.02 48.4432H174.497Z" fill="#111111"/>
<defs>
<filter id="filter0_d_131_1114" x="0" y="0" width="345" height="190" filterUnits="userSpaceOnUse" color-interpolation-filters="sRGB">
<feFlood flood-opacity="0" result="BackgroundImageFix"/>
<feColorMatrix in="SourceAlpha" type="matrix" values="0 0 0 0 0 0 0 0 0 0 0 0 0 0 0 0 0 0 127 0" result="hardAlpha"/>
<feMorphology radius="11" operator="erode" in="SourceAlpha" result="effect1_dropShadow_131_1114"/>
<feOffset dy="14"/>
<feGaussianBlur stdDeviation="19.5"/>
<feComposite in2="hardAlpha" operator="out"/>
<feColorMatrix type="matrix" values="0 0 0 0 0 0 0 0 0 0 0 0 0 0 0 0 0 0 0.1 0"/>
<feBlend mode="normal" in2="BackgroundImageFix" result="effect1_dropShadow_131_1114"/>
<feBlend mode="normal" in="SourceGraphic" in2="effect1_dropShadow_131_1114" result="shape"/>
</filter>
<linearGradient id="paint0_linear_131_1114" x1="43" y1="46.7966" x2="77.0375" y2="46.7966" gradientUnits="userSpaceOnUse">
<stop stop-color="#FFC650"/>
<stop offset="1" stop-color="#FECA6E"/>
</linearGradient>
</defs>
</svg>
