<svg width="345" height="172" viewBox="0 0 345 172" fill="none" xmlns="http://www.w3.org/2000/svg">
<g filter="url(#filter0_d_131_1101)">
<rect x="28" y="14" width="289" height="116" rx="10" fill="white"/>
</g>
<path d="M50.5852 83.2727H44.0739V92H45.1307V84.2102H49.5284V92H50.5852V83.2727ZM52.5806 94.4545H53.5863V90.9943H53.6715C53.8931 91.3523 54.3192 92.1364 55.5806 92.1364C57.217 92.1364 58.359 90.8239 58.359 88.7443C58.359 86.6818 57.217 85.3693 55.5636 85.3693C54.2852 85.3693 53.8931 86.1534 53.6715 86.4943H53.5522V85.4545H52.5806V94.4545ZM53.5692 88.7273C53.5692 87.2614 54.217 86.2727 55.4442 86.2727C56.7227 86.2727 57.3533 87.3466 57.3533 88.7273C57.3533 90.125 56.7056 91.233 55.4442 91.233C54.234 91.233 53.5692 90.2102 53.5692 88.7273ZM60.8988 90.517V85.4545H59.8931V92H61.0692L64.2056 86.9375V92H65.2113V85.4545H64.0522L60.8988 90.517ZM68.0589 85.4545H67.0533V92H68.0589V89.2045H71.1953V92H72.201V85.4545H71.1953V88.267H68.0589V85.4545ZM75.0433 90.517V85.4545H74.0376V92H75.2138L78.3501 86.9375V92H79.3558V85.4545H78.1967L75.0433 90.517ZM84.7773 90.6364L82.5273 85.4545H81.1978V92H82.2035V86.8991L84.3683 92H85.1864L87.3512 86.9929V92H88.3569V85.4545H87.0614L84.7773 90.6364ZM92.1239 92.1534C93.266 92.1534 93.8626 91.5398 94.0671 91.1136H94.1183V92H95.1239V87.6875C95.1239 85.608 93.5387 85.3693 92.7035 85.3693C91.7148 85.3693 90.5898 85.7102 90.0785 86.9034L91.033 87.2443C91.2546 86.767 91.7788 86.2557 92.7376 86.2557C93.6623 86.2557 94.1183 86.7457 94.1183 87.5852V87.6193C94.1183 88.1051 93.6239 88.0625 92.4308 88.2159C91.2163 88.3736 89.891 88.642 89.891 90.142C89.891 91.4205 90.8796 92.1534 92.1239 92.1534ZM92.2773 91.25C91.4762 91.25 90.8967 90.892 90.8967 90.1932C90.8967 89.4261 91.5955 89.1875 92.3796 89.0852C92.8058 89.0341 93.9478 88.9148 94.1183 88.7102V89.6307C94.1183 90.4489 93.4705 91.25 92.2773 91.25ZM99.7038 92.1364C101.033 92.1364 102.005 91.4716 102.312 90.483L101.34 90.2102C101.085 90.892 100.492 91.233 99.7038 91.233C98.5234 91.233 97.7095 90.4702 97.6626 89.0682H102.414V88.642C102.414 86.2045 100.965 85.3693 99.6016 85.3693C97.8288 85.3693 96.6527 86.767 96.6527 88.7784C96.6527 90.7898 97.8118 92.1364 99.7038 92.1364ZM97.6626 88.1989C97.7308 87.1804 98.451 86.2727 99.6016 86.2727C100.692 86.2727 101.391 87.0909 101.391 88.1989H97.6626ZM107.523 90.6364L105.273 85.4545H103.944V92H104.95V86.8991L107.114 92H107.933L110.097 86.9929V92H111.103V85.4545H109.808L107.523 90.6364ZM118.978 92.1364C120.751 92.1364 121.944 90.7898 121.944 88.7614C121.944 86.7159 120.751 85.3693 118.978 85.3693C117.205 85.3693 116.012 86.7159 116.012 88.7614C116.012 90.7898 117.205 92.1364 118.978 92.1364ZM118.978 91.233C117.631 91.233 117.018 90.0739 117.018 88.7614C117.018 87.4489 117.631 86.2727 118.978 86.2727C120.325 86.2727 120.938 87.4489 120.938 88.7614C120.938 90.0739 120.325 91.233 118.978 91.233ZM123.479 92H124.485V86.392H127.621V92H128.627V85.4545H123.479V92ZM129.884 92H130.225C131.674 92 132.091 90.875 132.185 88.7273L132.287 86.392H134.691V92H135.696V85.4545H131.333L131.213 88.3523C131.128 90.5511 130.907 91.0625 130.123 91.0625H129.884V92ZM139.468 92.1534C140.61 92.1534 141.206 91.5398 141.411 91.1136H141.462V92H142.468V87.6875C142.468 85.608 140.882 85.3693 140.047 85.3693C139.059 85.3693 137.934 85.7102 137.422 86.9034L138.377 87.2443C138.598 86.767 139.123 86.2557 140.081 86.2557C141.006 86.2557 141.462 86.7457 141.462 87.5852V87.6193C141.462 88.1051 140.968 88.0625 139.775 88.2159C138.56 88.3736 137.235 88.642 137.235 90.142C137.235 91.4205 138.223 92.1534 139.468 92.1534ZM139.621 91.25C138.82 91.25 138.24 90.892 138.24 90.1932C138.24 89.4261 138.939 89.1875 139.723 89.0852C140.15 89.0341 141.292 88.9148 141.462 88.7102V89.6307C141.462 90.4489 140.814 91.25 139.621 91.25ZM143.413 86.392H145.577V92H146.583V86.392H148.731V85.4545H143.413V86.392ZM150.846 94.4545C151.753 94.4545 152.392 93.973 152.772 92.9545L155.559 85.4716L154.459 85.4545L152.652 90.6705H152.584L150.777 85.4545H149.686L152.107 92.0341L151.919 92.5455C151.553 93.5426 151.101 93.6364 150.368 93.4489L150.113 94.3352C150.215 94.3864 150.505 94.4545 150.846 94.4545ZM161.27 85.4545H160.264V92H161.27V89.2045H164.406V92H165.412V85.4545H164.406V88.267H161.27V85.4545ZM169.175 92.1534C170.317 92.1534 170.913 91.5398 171.118 91.1136H171.169V92H172.175V87.6875C172.175 85.608 170.589 85.3693 169.754 85.3693C168.766 85.3693 167.641 85.7102 167.129 86.9034L168.084 87.2443C168.305 86.767 168.83 86.2557 169.788 86.2557C170.713 86.2557 171.169 86.7457 171.169 87.5852V87.6193C171.169 88.1051 170.675 88.0625 169.482 88.2159C168.267 88.3736 166.942 88.642 166.942 90.142C166.942 91.4205 167.93 92.1534 169.175 92.1534ZM169.328 91.25C168.527 91.25 167.947 90.892 167.947 90.1932C167.947 89.4261 168.646 89.1875 169.43 89.0852C169.857 89.0341 170.999 88.9148 171.169 88.7102V89.6307C171.169 90.4489 170.521 91.25 169.328 91.25ZM173.431 92H173.772C175.221 92 175.638 90.875 175.732 88.7273L175.834 86.392H178.238V92H179.243V85.4545H174.88L174.76 88.3523C174.675 90.5511 174.453 91.0625 173.669 91.0625H173.431V92ZM182.094 90.517V85.4545H181.088V92H182.265L185.401 86.9375V92H186.407V85.4545H185.248L182.094 90.517ZM193.294 85.4545H192.288V88.7741C191.803 88.9148 191.304 89 190.703 89C189.885 89 189.254 88.5398 189.254 87.5341V85.4375H188.249V87.5341C188.249 89.1364 189.22 89.9375 190.703 89.9375C191.321 89.9375 191.815 89.8565 192.288 89.7159V92H193.294V85.4545ZM196.145 85.4545H195.139V92H196.145V89.2045H199.281V92H200.287V85.4545H199.281V88.267H196.145V85.4545ZM203.129 87.8239V85.4545H202.124V92H204.868C206.402 92 207.237 91.0625 207.237 89.8864C207.237 88.6932 206.402 87.8239 204.868 87.8239H203.129ZM208.277 92H209.283V85.4545H208.277V92ZM203.129 88.7614H204.868C205.665 88.7614 206.232 89.2472 206.232 89.9375C206.232 90.598 205.665 91.0625 204.868 91.0625H203.129V88.7614ZM214.703 90.6364L212.453 85.4545H211.124V92H212.129V86.8991L214.294 92H215.112L217.277 86.9929V92H218.283V85.4545H216.987L214.703 90.6364ZM221.129 90.517V85.4545H220.124V92H221.3L224.436 86.9375V92H225.442V85.4545H224.283L221.129 90.517ZM228.784 90.8068H227.693L227.642 91.2841C227.518 92.4389 227.275 93.5895 227.164 94.1307H227.931C228.136 93.5511 228.571 92.2386 228.716 91.267L228.784 90.8068ZM234.022 92H235.028V86.392H238.164V92H239.17V85.4545H234.022V92ZM243.665 92.1364C245.438 92.1364 246.631 90.7898 246.631 88.7614C246.631 86.7159 245.438 85.3693 243.665 85.3693C241.893 85.3693 240.7 86.7159 240.7 88.7614C240.7 90.7898 241.893 92.1364 243.665 92.1364ZM243.665 91.233C242.319 91.233 241.705 90.0739 241.705 88.7614C241.705 87.4489 242.319 86.2727 243.665 86.2727C245.012 86.2727 245.626 87.4489 245.626 88.7614C245.626 90.0739 245.012 91.233 243.665 91.233ZM251.542 92H252.547V89.2386H253.451L255.598 92H256.894L254.218 88.608L256.86 85.4545H255.564L253.212 88.3011H252.547V85.4545H251.542V92ZM259.913 92.1534C261.055 92.1534 261.652 91.5398 261.856 91.1136H261.907V92H262.913V87.6875C262.913 85.608 261.328 85.3693 260.493 85.3693C259.504 85.3693 258.379 85.7102 257.868 86.9034L258.822 87.2443C259.044 86.767 259.568 86.2557 260.527 86.2557C261.451 86.2557 261.907 86.7457 261.907 87.5852V87.6193C261.907 88.1051 261.413 88.0625 260.22 88.2159C259.005 88.3736 257.68 88.642 257.68 90.142C257.68 91.4205 258.669 92.1534 259.913 92.1534ZM260.066 91.25C259.265 91.25 258.686 90.892 258.686 90.1932C258.686 89.4261 259.385 89.1875 260.169 89.0852C260.595 89.0341 261.737 88.9148 261.907 88.7102V89.6307C261.907 90.4489 261.26 91.25 260.066 91.25ZM264.749 94.4545H265.754V90.9943H265.839C266.061 91.3523 266.487 92.1364 267.749 92.1364C269.385 92.1364 270.527 90.8239 270.527 88.7443C270.527 86.6818 269.385 85.3693 267.732 85.3693C266.453 85.3693 266.061 86.1534 265.839 86.4943H265.72V85.4545H264.749V94.4545ZM265.737 88.7273C265.737 87.2614 266.385 86.2727 267.612 86.2727C268.891 86.2727 269.521 87.3466 269.521 88.7273C269.521 90.125 268.874 91.233 267.612 91.233C266.402 91.233 265.737 90.2102 265.737 88.7273ZM271.206 86.392H273.37V92H274.376V86.392H276.524V85.4545H271.206V86.392ZM280.395 92.1364C281.725 92.1364 282.696 91.4716 283.003 90.483L282.032 90.2102C281.776 90.892 281.184 91.233 280.395 91.233C279.215 91.233 278.401 90.4702 278.354 89.0682H283.105V88.642C283.105 86.2045 281.657 85.3693 280.293 85.3693C278.52 85.3693 277.344 86.767 277.344 88.7784C277.344 90.7898 278.503 92.1364 280.395 92.1364ZM278.354 88.1989C278.422 87.1804 279.142 86.2727 280.293 86.2727C281.384 86.2727 282.083 87.0909 282.083 88.1989H278.354ZM44.9261 108.517V103.455H43.9205V110H45.0966L48.233 104.938V110H49.2386V103.455H48.0795L44.9261 108.517ZM59.5011 103.455H58.4954V106.774C58.0096 106.915 57.511 107 56.9102 107C56.092 107 55.4613 106.54 55.4613 105.534V103.438H54.4556V105.534C54.4556 107.136 55.4272 107.938 56.9102 107.938C57.5281 107.938 58.0224 107.857 58.4954 107.716V110H59.5011V103.455ZM64.0906 110.136C65.4201 110.136 66.3917 109.472 66.6985 108.483L65.7269 108.21C65.4712 108.892 64.8789 109.233 64.0906 109.233C62.9102 109.233 62.0962 108.47 62.0494 107.068H66.8008V106.642C66.8008 104.205 65.3519 103.369 63.9883 103.369C62.2156 103.369 61.0394 104.767 61.0394 106.778C61.0394 108.79 62.1985 110.136 64.0906 110.136ZM62.0494 106.199C62.1175 105.18 62.8377 104.273 63.9883 104.273C65.0792 104.273 65.7781 105.091 65.7781 106.199H62.0494ZM68.3306 112.455H69.3363V108.994H69.4215C69.6431 109.352 70.0692 110.136 71.3306 110.136C72.967 110.136 74.109 108.824 74.109 106.744C74.109 104.682 72.967 103.369 71.3136 103.369C70.0352 103.369 69.6431 104.153 69.4215 104.494H69.3022V103.455H68.3306V112.455ZM69.3192 106.727C69.3192 105.261 69.967 104.273 71.1942 104.273C72.4727 104.273 73.1033 105.347 73.1033 106.727C73.1033 108.125 72.4556 109.233 71.1942 109.233C69.984 109.233 69.3192 108.21 69.3192 106.727ZM78.3874 110.136C79.717 110.136 80.6886 109.472 80.9954 108.483L80.0238 108.21C79.7681 108.892 79.1758 109.233 78.3874 109.233C77.207 109.233 76.3931 108.47 76.3462 107.068H81.0977V106.642C81.0977 104.205 79.6488 103.369 78.2852 103.369C76.5124 103.369 75.3363 104.767 75.3363 106.778C75.3363 108.79 76.4954 110.136 78.3874 110.136ZM76.3462 106.199C76.4144 105.18 77.1346 104.273 78.2852 104.273C79.3761 104.273 80.0749 105.091 80.0749 106.199H76.3462ZM82.2184 108.33C82.2525 109.403 83.2795 110.136 84.6729 110.136C86.1048 110.136 87.1445 109.369 87.1445 108.176C87.1445 107.358 86.6545 106.693 85.9173 106.642V106.574C86.5394 106.382 87.0082 105.93 87.0082 105.193C87.0082 104.158 86.1218 103.369 84.7411 103.369C83.3775 103.369 82.4059 104.119 82.3718 105.176H83.4286C83.4585 104.635 84.0252 104.256 84.7923 104.256C85.555 104.256 85.9854 104.643 85.9854 105.227C85.9854 105.773 85.6104 106.182 84.8093 106.182H83.6843V107.085H84.8093C85.6104 107.085 86.1218 107.524 86.1218 108.176C86.1218 108.922 85.4613 109.233 84.6559 109.233C83.8675 109.233 83.3391 108.922 83.2923 108.33H82.2184ZM91.9322 112.455H92.9379V108.994H93.0231C93.2447 109.352 93.6708 110.136 94.9322 110.136C96.5685 110.136 97.7106 108.824 97.7106 106.744C97.7106 104.682 96.5685 103.369 94.9151 103.369C93.6367 103.369 93.2447 104.153 93.0231 104.494H92.9038V103.455H91.9322V112.455ZM92.9208 106.727C92.9208 105.261 93.5685 104.273 94.7958 104.273C96.0742 104.273 96.7049 105.347 96.7049 106.727C96.7049 108.125 96.0572 109.233 94.7958 109.233C93.5856 109.233 92.9208 108.21 92.9208 106.727ZM101.171 110.153C102.313 110.153 102.909 109.54 103.114 109.114H103.165V110H104.171V105.688C104.171 103.608 102.586 103.369 101.75 103.369C100.762 103.369 99.6367 103.71 99.1254 104.903L100.08 105.244C100.301 104.767 100.826 104.256 101.784 104.256C102.709 104.256 103.165 104.746 103.165 105.585V105.619C103.165 106.105 102.671 106.062 101.478 106.216C100.263 106.374 98.9379 106.642 98.9379 108.142C98.9379 109.42 99.9265 110.153 101.171 110.153ZM101.324 109.25C100.523 109.25 99.9435 108.892 99.9435 108.193C99.9435 107.426 100.642 107.188 101.426 107.085C101.853 107.034 102.995 106.915 103.165 106.71V107.631C103.165 108.449 102.517 109.25 101.324 109.25ZM108.665 110.136C110.114 110.136 111.069 109.25 111.239 108.091H110.234C110.046 108.807 109.45 109.233 108.665 109.233C107.472 109.233 106.705 108.244 106.705 106.727C106.705 105.244 107.489 104.273 108.665 104.273C109.552 104.273 110.08 104.818 110.234 105.415H111.239C111.069 104.188 110.029 103.369 108.648 103.369C106.876 103.369 105.7 104.767 105.7 106.761C105.7 108.722 106.825 110.136 108.665 110.136ZM117.755 103.455H116.749V106.774C116.263 106.915 115.765 107 115.164 107C114.346 107 113.715 106.54 113.715 105.534V103.438H112.71V105.534C112.71 107.136 113.681 107.938 115.164 107.938C115.782 107.938 116.276 107.857 116.749 107.716V110H117.755V103.455ZM122.344 110.136C123.674 110.136 124.646 109.472 124.952 108.483L123.981 108.21C123.725 108.892 123.133 109.233 122.344 109.233C121.164 109.233 120.35 108.47 120.303 107.068H125.055V106.642C125.055 104.205 123.606 103.369 122.242 103.369C120.469 103.369 119.293 104.767 119.293 106.778C119.293 108.79 120.452 110.136 122.344 110.136ZM120.303 106.199C120.371 105.18 121.092 104.273 122.242 104.273C123.333 104.273 124.032 105.091 124.032 106.199H120.303ZM125.975 104.392H128.14V110H129.146V104.392H131.293V103.455H125.975V104.392ZM133.766 103.455H132.76V110H133.766V107.205H136.902V110H137.908V103.455H136.902V106.267H133.766V103.455ZM140.75 105.824V103.455H139.745V110H142.489C144.023 110 144.858 109.062 144.858 107.886C144.858 106.693 144.023 105.824 142.489 105.824H140.75ZM145.898 110H146.904V103.455H145.898V110ZM140.75 106.761H142.489C143.286 106.761 143.853 107.247 143.853 107.938C143.853 108.598 143.286 109.062 142.489 109.062H140.75V106.761ZM149.75 108.517V103.455H148.745V110H149.921L153.057 104.938V110H154.063V103.455H152.904L149.75 108.517ZM152.239 101.273C152.239 101.716 152 102.108 151.404 102.108C150.807 102.108 150.586 101.716 150.586 101.273H149.648C149.648 102.193 150.33 102.841 151.404 102.841C152.495 102.841 153.176 102.193 153.176 101.273H152.239ZM161.939 110.136C163.388 110.136 164.342 109.25 164.513 108.091H163.507C163.32 108.807 162.723 109.233 161.939 109.233C160.746 109.233 159.979 108.244 159.979 106.727C159.979 105.244 160.763 104.273 161.939 104.273C162.825 104.273 163.354 104.818 163.507 105.415H164.513C164.342 104.188 163.303 103.369 161.922 103.369C160.149 103.369 158.973 104.767 158.973 106.761C158.973 108.722 160.098 110.136 161.939 110.136ZM171.028 103.455H170.023V106.774C169.537 106.915 169.038 107 168.438 107C167.619 107 166.989 106.54 166.989 105.534V103.438H165.983V105.534C165.983 107.136 166.955 107.938 168.438 107.938C169.055 107.938 169.55 107.857 170.023 107.716V110H171.028V103.455ZM175.618 110.136C176.947 110.136 177.919 109.472 178.226 108.483L177.254 108.21C176.999 108.892 176.406 109.233 175.618 109.233C174.438 109.233 173.624 108.47 173.577 107.068H178.328V106.642C178.328 104.205 176.879 103.369 175.516 103.369C173.743 103.369 172.567 104.767 172.567 106.778C172.567 108.79 173.726 110.136 175.618 110.136ZM173.577 106.199C173.645 105.18 174.365 104.273 175.516 104.273C176.607 104.273 177.305 105.091 177.305 106.199H173.577ZM179.249 104.392H181.413V110H182.419V104.392H184.567V103.455H179.249V104.392ZM185.677 110.068C186.099 110.068 186.444 109.723 186.444 109.301C186.444 108.879 186.099 108.534 185.677 108.534C185.255 108.534 184.91 108.879 184.91 109.301C184.91 109.723 185.255 110.068 185.677 110.068Z" fill="#3F4E65"/>
<rect x="43" y="29" width="35" height="35" rx="17.5" fill="url(#paint0_linear_131_1101)" fill-opacity="0.3"/>
<g clip-path="url(#clip0_131_1101)">
<path d="M56.5052 42.0415L62.485 40.4092L62.1683 39.7691C61.9611 39.3531 61.4558 39.1813 61.0397 39.3885L55.6865 42.0415H56.5052Z" fill="#3F4E65"/>
<path d="M64.3413 40.4563C64.2672 40.4563 64.1931 40.4664 64.1189 40.4866L62.7141 40.8707L58.4238 42.0414H63.2936H65.416L65.1532 41.0779C65.0521 40.7022 64.7119 40.4563 64.3413 40.4563Z" fill="#3F4E65"/>
<path d="M66.2937 42.6311H66.1016H65.8405H65.5794H63.5867H56.2645H55.3043H54.4958H54.3459H53.8439C53.5778 42.6311 53.3403 42.7541 53.1853 42.9478C53.1145 43.0371 53.0606 43.1398 53.0303 43.2527C53.0118 43.3234 53 43.3975 53 43.4733V43.5744V44.5345V52.8574C53 53.3223 53.3773 53.6996 53.8422 53.6996H66.292C66.7569 53.6996 67.1342 53.3223 67.1342 52.8574V50.5076H62.1364C61.3464 50.5076 60.7047 49.8658 60.7047 49.0758V48.3043V48.0432V47.7821V47.2027C60.7047 46.8153 60.8596 46.4632 61.1106 46.2055C61.333 45.9764 61.6311 45.8214 61.9646 45.7827C62.0202 45.776 62.0775 45.7726 62.1348 45.7726H66.4335H66.6946H66.9556H67.1342V43.4733C67.1359 43.0084 66.7586 42.6311 66.2937 42.6311Z" fill="#3F4E65"/>
<path d="M67.7252 46.5776C67.6409 46.5001 67.5415 46.4411 67.4304 46.4024C67.3445 46.3738 67.2535 46.3569 67.1575 46.3569H67.1356H67.1188H66.8577H65.9161H62.1362C61.6712 46.3569 61.2939 46.7342 61.2939 47.1992V47.6186V47.8797V48.1407V49.0739C61.2939 49.5388 61.6712 49.9162 62.1362 49.9162H67.1356H67.1575C67.2535 49.9162 67.3445 49.8993 67.4304 49.8707C67.5415 49.8336 67.6409 49.773 67.7252 49.6955C67.8936 49.5422 67.9997 49.3199 67.9997 49.0739V47.1992C67.9997 46.9532 67.8936 46.7308 67.7252 46.5776ZM63.8947 48.3041C63.8947 48.5366 63.7061 48.7253 63.4736 48.7253H63.194C62.9615 48.7253 62.7729 48.5366 62.7729 48.3041V48.0245C62.7729 47.8898 62.8352 47.7702 62.9346 47.6944C63.007 47.6388 63.0963 47.6034 63.194 47.6034H63.2647H63.4736C63.7061 47.6034 63.8947 47.7921 63.8947 48.0245V48.3041Z" fill="#3F4E65"/>
</g>
<path d="M104.386 47.1818C104.386 43.4602 102.159 41.2045 99.1477 41.2045C96.125 41.2045 93.9034 43.4602 93.9034 47.1818C93.9034 50.8977 96.125 53.1591 99.1477 53.1591C102.159 53.1591 104.386 50.9034 104.386 47.1818ZM102.648 47.1818C102.648 50.017 101.148 51.5568 99.1477 51.5568C97.142 51.5568 95.6477 50.017 95.6477 47.1818C95.6477 44.3466 97.142 42.8068 99.1477 42.8068C101.148 42.8068 102.648 44.3466 102.648 47.1818ZM115.672 41.3636H106.695V53H108.445V42.8636H113.922V53H115.672V41.3636ZM117.476 53H117.976C120.624 53 121.26 51.0341 121.413 47.2955L121.595 42.8523H125.567V53H127.3V41.3636H119.942L119.743 46.8295C119.618 50.1989 119.209 51.4318 117.817 51.4659L117.476 51.4773V53ZM130.839 53L131.908 49.9205H136.453L137.516 53H139.379L135.192 41.3636H133.163L128.976 53H130.839ZM132.419 48.4432L134.135 43.4773H134.226L135.942 48.4432H132.419ZM139.095 42.875H142.72V53H144.47V42.875H148.101V41.3636H139.095V42.875ZM149.683 53L150.751 49.9205H155.297L156.359 53H158.223L154.036 41.3636H152.007L147.82 53H149.683ZM151.263 48.4432L152.979 43.4773H153.07L154.786 48.4432H151.263Z" fill="#111111"/>
<defs>
<filter id="filter0_d_131_1101" x="0" y="0" width="345" height="172" filterUnits="userSpaceOnUse" color-interpolation-filters="sRGB">
<feFlood flood-opacity="0" result="BackgroundImageFix"/>
<feColorMatrix in="SourceAlpha" type="matrix" values="0 0 0 0 0 0 0 0 0 0 0 0 0 0 0 0 0 0 127 0" result="hardAlpha"/>
<feMorphology radius="11" operator="erode" in="SourceAlpha" result="effect1_dropShadow_131_1101"/>
<feOffset dy="14"/>
<feGaussianBlur stdDeviation="19.5"/>
<feComposite in2="hardAlpha" operator="out"/>
<feColorMatrix type="matrix" values="0 0 0 0 0 0 0 0 0 0 0 0 0 0 0 0 0 0 0.1 0"/>
<feBlend mode="normal" in2="BackgroundImageFix" result="effect1_dropShadow_131_1101"/>
<feBlend mode="normal" in="SourceGraphic" in2="effect1_dropShadow_131_1101" result="shape"/>
</filter>
<linearGradient id="paint0_linear_131_1101" x1="43" y1="46.7966" x2="77.0375" y2="46.7966" gradientUnits="userSpaceOnUse">
<stop stop-color="#FFC650"/>
<stop offset="1" stop-color="#FECA6E"/>
</linearGradient>
<clipPath id="clip0_131_1101">
<rect width="15" height="15" fill="white" transform="translate(53 39)"/>
</clipPath>
</defs>
</svg>
