<svg width="234" height="35" viewBox="0 0 234 35" fill="none" xmlns="http://www.w3.org/2000/svg">
<rect x="44" width="35" height="35" rx="17.5" fill="url(#paint0_linear_81_256)" fill-opacity="0.3"/>
<path d="M63.0337 12.3182H61.5373L58.9968 13.9787V15.4503L61.4329 13.8594H61.4925V22.5H63.0337V12.3182Z" fill="#3F4E65"/>
<path d="M89.1864 22.5H95.8881V21.1825H91.3043V21.108L93.3278 18.9901C95.1921 17.1058 95.7241 16.206 95.7241 15.0675C95.7241 13.4318 94.3917 12.179 92.4727 12.179C90.5685 12.179 89.1765 13.4119 89.1765 15.2713H90.6431C90.6381 14.1776 91.3441 13.4616 92.4428 13.4616C93.4769 13.4616 94.2624 14.098 94.2624 15.1122C94.2624 16.0121 93.7255 16.6584 92.6317 17.8168L89.1864 21.3864V22.5Z" fill="#3F4E65"/>
<path d="M123.012 22.6392C125.091 22.6392 126.617 21.3963 126.612 19.706C126.617 18.4183 125.836 17.4936 124.484 17.2848V17.2053C125.548 16.9318 126.239 16.0966 126.234 14.9531C126.239 13.4567 125.011 12.179 123.052 12.179C121.183 12.179 119.681 13.3075 119.632 14.9631H121.118C121.153 14.0284 122.033 13.4616 123.032 13.4616C124.071 13.4616 124.752 14.093 124.748 15.0327C124.752 16.017 123.962 16.6634 122.833 16.6634H121.973V17.9162H122.833C124.245 17.9162 125.061 18.6321 125.061 19.6562C125.061 20.6456 124.201 21.3168 123.002 21.3168C121.899 21.3168 121.039 20.75 120.979 19.8452H119.418C119.483 21.5057 120.954 22.6392 123.012 22.6392Z" fill="#3F4E65"/>
<path d="M150.186 20.5114H155.013V22.5H156.48V20.5114H157.827V19.2088H156.48V12.3182H154.585L150.186 19.2685V20.5114ZM155.023 19.2088H151.796V19.1293L154.943 14.1477H155.023V19.2088Z" fill="#3F4E65"/>
<path d="M185.499 22.6392C187.548 22.6392 189.009 21.1925 189.004 19.2088C189.009 17.2401 187.637 15.8082 185.783 15.8082C185.027 15.8082 184.326 16.0966 183.928 16.4844H183.869L184.192 13.6357H188.512V12.3182H182.914L182.342 17.4489L183.749 17.6577C184.132 17.3146 184.818 17.081 185.435 17.081C186.643 17.0909 187.518 17.9957 187.518 19.2386C187.518 20.4616 186.668 21.3466 185.499 21.3466C184.515 21.3466 183.734 20.7202 183.655 19.8452H182.163C182.223 21.4659 183.63 22.6392 185.499 22.6392Z" fill="#3F4E65"/>
<path d="M225 23.7143L230.625 18L225 12.2857L226.125 10L234 18L226.125 26L225 23.7143Z" fill="#FFC85E"/>
<path d="M9 12.2857L3.375 18L9 23.7143L7.875 26L2.54292e-07 18L7.875 10L9 12.2857Z" fill="#FFC85E"/>
<defs>
<linearGradient id="paint0_linear_81_256" x1="44" y1="17.7966" x2="78.0375" y2="17.7966" gradientUnits="userSpaceOnUse">
<stop stop-color="#FFC650"/>
<stop offset="1" stop-color="#FECA6E"/>
</linearGradient>
</defs>
</svg>
