<svg width="345" height="190" viewBox="0 0 345 190" fill="none" xmlns="http://www.w3.org/2000/svg">
<g filter="url(#filter0_d_131_1122)">
<rect x="28" y="14" width="289" height="134" rx="10" fill="white"/>
</g>
<path d="M46.8523 92.1193C48.544 92.1193 49.8011 91.0582 49.8011 89.6307C49.8011 88.5227 49.1449 87.7173 48.0455 87.5341V87.4659C48.9276 87.1974 49.4773 86.473 49.4773 85.4886C49.4773 84.2528 48.5014 83.1534 46.8864 83.1534C45.3778 83.1534 44.125 84.0824 44.0739 85.4545H45.0966C45.1349 84.5852 45.9616 84.0739 46.8693 84.0739C47.8324 84.0739 48.4545 84.6577 48.4545 85.5398C48.4545 86.4602 47.7344 87.0568 46.6989 87.0568H46V87.9943H46.6989C48.0241 87.9943 48.7614 88.6676 48.7614 89.6307C48.7614 90.5554 47.956 91.1818 46.8352 91.1818C45.8253 91.1818 45.0241 90.6619 44.9602 89.8182H43.8864C43.9503 91.1903 45.1605 92.1193 46.8523 92.1193ZM51.5611 92H54.6463C55.9759 92 56.777 91.25 56.777 90.2443C56.777 89.2173 55.9972 88.6634 55.277 88.5568C56.0142 88.4034 56.5384 87.9901 56.5384 87.1932C56.5384 86.1491 55.6435 85.4545 54.2372 85.4545H51.5611V92ZM52.5156 91.0795V89.0682H54.6463C55.3366 89.0682 55.7543 89.4815 55.7543 90.1591C55.7543 90.7301 55.3366 91.0795 54.6463 91.0795H52.5156ZM52.5156 88.1989V86.375H54.2372C55.0426 86.375 55.5327 86.7116 55.5327 87.2614C55.5327 87.8452 55.0426 88.1989 54.2372 88.1989H52.5156ZM60.9585 92.1364C62.7312 92.1364 63.9244 90.7898 63.9244 88.7614C63.9244 86.7159 62.7312 85.3693 60.9585 85.3693C59.1857 85.3693 57.9925 86.7159 57.9925 88.7614C57.9925 90.7898 59.1857 92.1364 60.9585 92.1364ZM60.9585 91.233C59.6119 91.233 58.9982 90.0739 58.9982 88.7614C58.9982 87.4489 59.6119 86.2727 60.9585 86.2727C62.305 86.2727 62.9187 87.4489 62.9187 88.7614C62.9187 90.0739 62.305 91.233 60.9585 91.233ZM66.4652 85.4545H65.4595V92H66.4652V89.2045H69.6016V92H70.6072V85.4545H69.6016V88.267H66.4652V85.4545ZM73.4496 90.517V85.4545H72.4439V92H73.62L76.7564 86.9375V92H77.7621V85.4545H76.603L73.4496 90.517ZM78.7134 86.392H80.8782V92H81.8839V86.392H84.0316V85.4545H78.7134V86.392ZM87.9031 92.1364C89.2326 92.1364 90.2042 91.4716 90.511 90.483L89.5394 90.2102C89.2837 90.892 88.6914 91.233 87.9031 91.233C86.7227 91.233 85.9087 90.4702 85.8619 89.0682H90.6133V88.642C90.6133 86.2045 89.1644 85.3693 87.8008 85.3693C86.0281 85.3693 84.8519 86.767 84.8519 88.7784C84.8519 90.7898 86.011 92.1364 87.9031 92.1364ZM85.8619 88.1989C85.93 87.1804 86.6502 86.2727 87.8008 86.2727C88.8917 86.2727 89.5906 87.0909 89.5906 88.1989H85.8619ZM92.8761 92.0682C93.2979 92.0682 93.6431 91.723 93.6431 91.3011C93.6431 90.8793 93.2979 90.5341 92.8761 90.5341C92.4542 90.5341 92.109 90.8793 92.109 91.3011C92.109 91.723 92.4542 92.0682 92.8761 92.0682ZM92.8761 87.2102C93.2979 87.2102 93.6431 86.8651 93.6431 86.4432C93.6431 86.0213 93.2979 85.6761 92.8761 85.6761C92.4542 85.6761 92.109 86.0213 92.109 86.4432C92.109 86.8651 92.4542 87.2102 92.8761 87.2102ZM101.162 90.7386H102.88V88.5142H105.104V86.7969H102.88V84.5682H101.162V86.7969H98.9336V88.5142H101.162V90.7386ZM106.768 92H108.937L112.47 84.9858V83.2727H106.172V84.973H110.288V85.0284L106.768 92ZM116.577 92H118.746L122.278 84.9858V83.2727H115.98V84.973H120.097V85.0284L116.577 92ZM124.042 92H126.211L129.743 84.9858V83.2727H123.445V84.973H127.561V85.0284L124.042 92ZM131.506 92H133.675L137.208 84.9858V83.2727H130.91V84.973H135.026V85.0284L131.506 92ZM140.838 90.5511H145.052V92H147.068V90.5511H148.112V88.8892H147.068V83.2727H144.413L140.838 88.9062V90.5511ZM145.095 88.8892H142.934V88.821L145.027 85.5057H145.095V88.8892ZM152.503 83.1534C150.492 83.1491 149.115 84.4105 149.124 86.2173C149.128 87.8239 150.223 88.9915 151.787 88.9915C152.763 88.9915 153.641 88.5227 154.003 87.7386H154.054C154.05 89.3281 153.526 90.321 152.461 90.321C151.873 90.321 151.421 90.0312 151.293 89.4474H149.218C149.375 90.9517 150.62 92.1193 152.461 92.1193C154.685 92.1193 156.142 90.3679 156.134 87.4574C156.13 84.304 154.417 83.1577 152.503 83.1534ZM152.516 84.7727C153.287 84.7727 153.854 85.3821 153.863 86.1449C153.867 86.9119 153.275 87.5256 152.507 87.5256C151.728 87.5256 151.174 86.929 151.169 86.1491C151.161 85.3736 151.736 84.7727 152.516 84.7727ZM160.901 92.2131C163.185 92.2173 164.587 90.5298 164.592 87.6491C164.596 84.7855 163.185 83.1534 160.901 83.1534C158.617 83.1534 157.219 84.7812 157.215 87.6491C157.207 90.5213 158.617 92.2131 160.901 92.2131ZM160.901 90.4872C159.994 90.4872 159.376 89.5753 159.384 87.6491C159.388 85.7614 159.998 84.8665 160.901 84.8665C161.809 84.8665 162.418 85.7614 162.423 87.6491C162.427 89.5753 161.813 90.4872 160.901 90.4872ZM171.987 92.2131C174.271 92.2173 175.673 90.5298 175.678 87.6491C175.682 84.7855 174.271 83.1534 171.987 83.1534C169.703 83.1534 168.305 84.7812 168.301 87.6491C168.293 90.5213 169.703 92.2131 171.987 92.2131ZM171.987 90.4872C171.08 90.4872 170.462 89.5753 170.47 87.6491C170.474 85.7614 171.084 84.8665 171.987 84.8665C172.895 84.8665 173.504 85.7614 173.509 87.6491C173.513 89.5753 172.899 90.4872 171.987 90.4872ZM180.495 92.2131C182.779 92.2173 184.181 90.5298 184.185 87.6491C184.19 84.7855 182.779 83.1534 180.495 83.1534C178.211 83.1534 176.813 84.7812 176.809 87.6491C176.8 90.5213 178.211 92.2131 180.495 92.2131ZM180.495 90.4872C179.587 90.4872 178.969 89.5753 178.978 87.6491C178.982 85.7614 179.592 84.8665 180.495 84.8665C181.403 84.8665 182.012 85.7614 182.016 87.6491C182.021 89.5753 181.407 90.4872 180.495 90.4872ZM191.257 83.1534C189.246 83.1491 187.869 84.4105 187.878 86.2173C187.882 87.8239 188.977 88.9915 190.541 88.9915C191.517 88.9915 192.395 88.5227 192.757 87.7386H192.808C192.804 89.3281 192.28 90.321 191.214 90.321C190.626 90.321 190.175 90.0312 190.047 89.4474H187.972C188.129 90.9517 189.374 92.1193 191.214 92.1193C193.439 92.1193 194.896 90.3679 194.888 87.4574C194.884 84.304 193.17 83.1577 191.257 83.1534ZM191.27 84.7727C192.041 84.7727 192.608 85.3821 192.616 86.1449C192.621 86.9119 192.028 87.5256 191.261 87.5256C190.482 87.5256 189.928 86.929 189.923 86.1491C189.915 85.3736 190.49 84.7727 191.27 84.7727ZM200.081 83.2727H198.125L195.973 84.6108V86.4347L197.925 85.2415H197.976V92H200.081V83.2727ZM44.0568 101.273V110H45.0455V103.369H45.1307L47.858 110H48.8125L51.5398 103.369H51.625V110H52.6136V101.273H51.3523L48.3864 108.517H48.2841L45.3182 101.273H44.0568ZM57.3406 110.136C58.6701 110.136 59.6417 109.472 59.9485 108.483L58.9769 108.21C58.7212 108.892 58.1289 109.233 57.3406 109.233C56.1602 109.233 55.3462 108.47 55.2994 107.068H60.0508V106.642C60.0508 104.205 58.6019 103.369 57.2383 103.369C55.4656 103.369 54.2894 104.767 54.2894 106.778C54.2894 108.79 55.4485 110.136 57.3406 110.136ZM55.2994 106.199C55.3675 105.18 56.0877 104.273 57.2383 104.273C58.3292 104.273 59.0281 105.091 59.0281 106.199H55.2994ZM62.5863 103.455H61.5806V110H62.5863V107.205H65.7227V110H66.7283V103.455H65.7227V106.267H62.5863V103.455ZM71.3093 110.136C72.6388 110.136 73.6104 109.472 73.9173 108.483L72.9457 108.21C72.69 108.892 72.0977 109.233 71.3093 109.233C70.1289 109.233 69.315 108.47 69.2681 107.068H74.0195V106.642C74.0195 104.205 72.5707 103.369 71.207 103.369C69.4343 103.369 68.2582 104.767 68.2582 106.778C68.2582 108.79 69.4173 110.136 71.3093 110.136ZM69.2681 106.199C69.3363 105.18 70.0565 104.273 71.207 104.273C72.2979 104.273 72.9968 105.091 72.9968 106.199H69.2681ZM74.8505 111.875H75.8562V110H80.6971V111.875H81.7028V109.062H80.6971V103.455H76.538L76.3164 106.045C76.1587 107.878 75.9244 108.509 75.396 109.062H74.8505V111.875ZM76.538 109.062C76.9982 108.457 77.1644 107.413 77.305 106.045L77.4755 104.392H79.6914V109.062H76.538ZM82.6286 110H83.8388L86.0717 107.188H86.5831V110H87.5888V107.188H88.1001L90.3161 110H91.5263L88.8842 106.676L91.4922 103.455H90.299L88.1172 106.25H87.5888V103.455H86.5831V106.25H86.0376L83.8558 103.455H82.6626L85.2876 106.676L82.6286 110ZM95.4382 110.136C96.7678 110.136 97.7393 109.472 98.0462 108.483L97.0746 108.21C96.8189 108.892 96.2266 109.233 95.4382 109.233C94.2578 109.233 93.4439 108.47 93.397 107.068H98.1484V106.642C98.1484 104.205 96.6996 103.369 95.3359 103.369C93.5632 103.369 92.3871 104.767 92.3871 106.778C92.3871 108.79 93.5462 110.136 95.4382 110.136ZM93.397 106.199C93.4652 105.18 94.1854 104.273 95.3359 104.273C96.4268 104.273 97.1257 105.091 97.1257 106.199H93.397ZM99.6783 112.455H100.684V108.994H100.769C100.991 109.352 101.417 110.136 102.678 110.136C104.315 110.136 105.457 108.824 105.457 106.744C105.457 104.682 104.315 103.369 102.661 103.369C101.383 103.369 100.991 104.153 100.769 104.494H100.65V103.455H99.6783V112.455ZM100.667 106.727C100.667 105.261 101.315 104.273 102.542 104.273C103.82 104.273 104.451 105.347 104.451 106.727C104.451 108.125 103.803 109.233 102.542 109.233C101.332 109.233 100.667 108.21 100.667 106.727ZM110.502 110H113.656C115.718 110 116.57 108.994 116.57 107.682C116.57 106.301 115.616 105.551 114.815 105.5V105.415C115.565 105.21 116.229 104.716 116.229 103.591C116.229 102.312 115.377 101.273 113.553 101.273H110.502V110ZM111.559 109.062V106.028H113.707C114.849 106.028 115.565 106.795 115.565 107.682C115.565 108.449 115.036 109.062 113.656 109.062H111.559ZM111.559 105.108V102.21H113.553C114.712 102.21 115.224 102.824 115.224 103.591C115.224 104.511 114.474 105.108 113.519 105.108H111.559ZM120.097 110.153C121.239 110.153 121.835 109.54 122.04 109.114H122.091V110H123.097V105.688C123.097 103.608 121.511 103.369 120.676 103.369C119.688 103.369 118.562 103.71 118.051 104.903L119.006 105.244C119.227 104.767 119.751 104.256 120.71 104.256C121.635 104.256 122.091 104.746 122.091 105.585V105.619C122.091 106.105 121.597 106.062 120.403 106.216C119.189 106.374 117.864 106.642 117.864 108.142C117.864 109.42 118.852 110.153 120.097 110.153ZM120.25 109.25C119.449 109.25 118.869 108.892 118.869 108.193C118.869 107.426 119.568 107.188 120.352 107.085C120.778 107.034 121.92 106.915 122.091 106.71V107.631C122.091 108.449 121.443 109.25 120.25 109.25ZM128.512 108.636L126.262 103.455H124.932V110H125.938V104.899L128.103 110H128.921L131.086 104.993V110H132.091V103.455H130.796L128.512 108.636ZM139.966 110.136C141.739 110.136 142.932 108.79 142.932 106.761C142.932 104.716 141.739 103.369 139.966 103.369C138.194 103.369 137 104.716 137 106.761C137 108.79 138.194 110.136 139.966 110.136ZM139.966 109.233C138.62 109.233 138.006 108.074 138.006 106.761C138.006 105.449 138.62 104.273 139.966 104.273C141.313 104.273 141.926 105.449 141.926 106.761C141.926 108.074 141.313 109.233 139.966 109.233ZM143.612 104.392H145.777V110H146.782V104.392H148.93V103.455H143.612V104.392ZM150.397 110H153.482C154.812 110 155.613 109.25 155.613 108.244C155.613 107.217 154.833 106.663 154.113 106.557C154.85 106.403 155.374 105.99 155.374 105.193C155.374 104.149 154.479 103.455 153.073 103.455H150.397V110ZM151.352 109.08V107.068H153.482C154.173 107.068 154.59 107.482 154.59 108.159C154.59 108.73 154.173 109.08 153.482 109.08H151.352ZM151.352 106.199V104.375H153.073C153.879 104.375 154.369 104.712 154.369 105.261C154.369 105.845 153.879 106.199 153.073 106.199H151.352ZM159.88 110.136C161.209 110.136 162.181 109.472 162.488 108.483L161.516 108.21C161.26 108.892 160.668 109.233 159.88 109.233C158.699 109.233 157.885 108.47 157.838 107.068H162.59V106.642C162.59 104.205 161.141 103.369 159.777 103.369C158.005 103.369 156.828 104.767 156.828 106.778C156.828 108.79 157.988 110.136 159.88 110.136ZM157.838 106.199C157.907 105.18 158.627 104.273 159.777 104.273C160.868 104.273 161.567 105.091 161.567 106.199H157.838ZM163.51 104.392H165.675V110H166.681V104.392H168.828V103.455H163.51V104.392ZM171.301 108.517V103.455H170.295V110H171.472L174.608 104.938V110H175.614V103.455H174.455L171.301 108.517ZM176.565 104.392H178.73V110H179.735V104.392H181.883V103.455H176.565V104.392ZM187.731 103.455H186.725V110H187.731V107.205H190.867V110H191.873V103.455H190.867V106.267H187.731V103.455ZM195.636 110.153C196.778 110.153 197.374 109.54 197.579 109.114H197.63V110H198.636V105.688C198.636 103.608 197.05 103.369 196.215 103.369C195.227 103.369 194.102 103.71 193.59 104.903L194.545 105.244C194.766 104.767 195.29 104.256 196.249 104.256C197.174 104.256 197.63 104.746 197.63 105.585V105.619C197.63 106.105 197.136 106.062 195.942 106.216C194.728 106.374 193.403 106.642 193.403 108.142C193.403 109.42 194.391 110.153 195.636 110.153ZM195.789 109.25C194.988 109.25 194.408 108.892 194.408 108.193C194.408 107.426 195.107 107.188 195.891 107.085C196.317 107.034 197.46 106.915 197.63 106.71V107.631C197.63 108.449 196.982 109.25 195.789 109.25ZM203.846 110H206.931C208.261 110 209.062 109.25 209.062 108.244C209.062 107.217 208.282 106.663 207.562 106.557C208.299 106.403 208.824 105.99 208.824 105.193C208.824 104.149 207.929 103.455 206.522 103.455H203.846V110ZM204.801 109.08V107.068H206.931C207.622 107.068 208.039 107.482 208.039 108.159C208.039 108.73 207.622 109.08 206.931 109.08H204.801ZM204.801 106.199V104.375H206.522C207.328 104.375 207.818 104.712 207.818 105.261C207.818 105.845 207.328 106.199 206.522 106.199H204.801ZM213.244 110.136C214.692 110.136 215.647 109.25 215.817 108.091H214.812C214.624 108.807 214.028 109.233 213.244 109.233C212.05 109.233 211.283 108.244 211.283 106.727C211.283 105.244 212.067 104.273 213.244 104.273C214.13 104.273 214.658 104.818 214.812 105.415H215.817C215.647 104.188 214.607 103.369 213.227 103.369C211.454 103.369 210.278 104.767 210.278 106.761C210.278 108.722 211.403 110.136 213.244 110.136ZM220.032 110.136C221.362 110.136 222.333 109.472 222.64 108.483L221.668 108.21C221.413 108.892 220.82 109.233 220.032 109.233C218.852 109.233 218.038 108.47 217.991 107.068H222.742V106.642C222.742 104.205 221.293 103.369 219.93 103.369C218.157 103.369 216.981 104.767 216.981 106.778C216.981 108.79 218.14 110.136 220.032 110.136ZM217.991 106.199C218.059 105.18 218.779 104.273 219.93 104.273C221.021 104.273 221.719 105.091 221.719 106.199H217.991ZM227.647 110H230.732C232.062 110 232.863 109.25 232.863 108.244C232.863 107.217 232.083 106.663 231.363 106.557C232.1 106.403 232.624 105.99 232.624 105.193C232.624 104.149 231.729 103.455 230.323 103.455H227.647V110ZM228.602 109.08V107.068H230.732C231.423 107.068 231.84 107.482 231.84 108.159C231.84 108.73 231.423 109.08 230.732 109.08H228.602ZM228.602 106.199V104.375H230.323C231.129 104.375 231.619 104.712 231.619 105.261C231.619 105.845 231.129 106.199 230.323 106.199H228.602ZM237.044 110.136C238.817 110.136 240.01 108.79 240.01 106.761C240.01 104.716 238.817 103.369 237.044 103.369C235.272 103.369 234.078 104.716 234.078 106.761C234.078 108.79 235.272 110.136 237.044 110.136ZM237.044 109.233C235.698 109.233 235.084 108.074 235.084 106.761C235.084 105.449 235.698 104.273 237.044 104.273C238.391 104.273 239.005 105.449 239.005 106.761C239.005 108.074 238.391 109.233 237.044 109.233ZM241.545 110H242.551V104.392H245.688V110H246.693V103.455H241.545V110ZM248.53 112.455H249.536V108.994H249.621C249.842 109.352 250.268 110.136 251.53 110.136C253.166 110.136 254.308 108.824 254.308 106.744C254.308 104.682 253.166 103.369 251.513 103.369C250.234 103.369 249.842 104.153 249.621 104.494H249.501V103.455H248.53V112.455ZM249.518 106.727C249.518 105.261 250.166 104.273 251.393 104.273C252.672 104.273 253.303 105.347 253.303 106.727C253.303 108.125 252.655 109.233 251.393 109.233C250.183 109.233 249.518 108.21 249.518 106.727ZM258.501 110.136C260.274 110.136 261.467 108.79 261.467 106.761C261.467 104.716 260.274 103.369 258.501 103.369C256.729 103.369 255.536 104.716 255.536 106.761C255.536 108.79 256.729 110.136 258.501 110.136ZM258.501 109.233C257.155 109.233 256.541 108.074 256.541 106.761C256.541 105.449 257.155 104.273 258.501 104.273C259.848 104.273 260.462 105.449 260.462 106.761C260.462 108.074 259.848 109.233 258.501 109.233ZM265.662 110.136C267.11 110.136 268.065 109.25 268.235 108.091H267.23C267.042 108.807 266.446 109.233 265.662 109.233C264.468 109.233 263.701 108.244 263.701 106.727C263.701 105.244 264.485 104.273 265.662 104.273C266.548 104.273 267.076 104.818 267.23 105.415H268.235C268.065 104.188 267.025 103.369 265.645 103.369C263.872 103.369 262.696 104.767 262.696 106.761C262.696 108.722 263.821 110.136 265.662 110.136ZM270.711 105.824V103.455H269.706V110H272.45C273.984 110 274.819 109.062 274.819 107.886C274.819 106.693 273.984 105.824 272.45 105.824H270.711ZM275.859 110H276.865V103.455H275.859V110ZM270.711 106.761H272.45C273.247 106.761 273.814 107.247 273.814 107.938C273.814 108.598 273.247 109.062 272.45 109.062H270.711V106.761ZM279.439 110.068C279.86 110.068 280.206 109.723 280.206 109.301C280.206 108.879 279.86 108.534 279.439 108.534C279.017 108.534 278.672 108.879 278.672 109.301C278.672 109.723 279.017 110.068 279.439 110.068Z" fill="#3F4E65"/>
<rect x="43" y="29" width="35" height="35" rx="17.5" fill="url(#paint0_linear_131_1122)" fill-opacity="0.3"/>
<path d="M58.5909 48.8636H61.2727V48.5909C61.2727 47.6875 61.6989 47.233 62.5227 46.75C63.6307 46.1023 64.3864 45.2898 64.3864 43.9091C64.3864 41.7727 62.5852 40.7045 60.1591 40.7045C57.9489 40.7045 56.1136 41.75 56.0909 44.25H59C59 43.5966 59.5227 43.1364 60.1364 43.1364C60.7045 43.1364 61.1591 43.5227 61.1591 44.0909C61.1591 44.7273 60.608 45.1193 59.8864 45.5909C59.0398 46.142 58.5909 46.7216 58.5909 48.5909V48.8636ZM59.9773 52.6818C60.8125 52.6818 61.5568 51.9773 61.5682 51.0909C61.5568 50.2273 60.8125 49.5227 59.9773 49.5227C59.0966 49.5227 58.375 50.2273 58.3864 51.0909C58.375 51.9773 59.0966 52.6818 59.9773 52.6818Z" fill="#3F4E65"/>
<path d="M94.2784 53H98.7386C101.443 53 102.665 51.6534 102.665 49.8693C102.665 48.0682 101.403 47.0511 100.25 46.9886V46.875C101.318 46.6023 102.21 45.875 102.21 44.4205C102.21 42.6989 101.017 41.3636 98.5398 41.3636H94.2784V53ZM96.0341 51.4943V47.767H98.6307C100.04 47.767 100.92 48.6761 100.92 49.7841C100.92 50.7614 100.256 51.4943 98.5682 51.4943H96.0341ZM96.0341 46.3977V42.858H98.4318C99.8239 42.858 100.489 43.5909 100.489 44.5568C100.489 45.6818 99.5682 46.3977 98.3864 46.3977H96.0341ZM114.855 47.1818C114.855 43.4602 112.628 41.2045 109.616 41.2045C106.594 41.2045 104.372 43.4602 104.372 47.1818C104.372 50.8977 106.594 53.1591 109.616 53.1591C112.628 53.1591 114.855 50.9034 114.855 47.1818ZM113.116 47.1818C113.116 50.017 111.616 51.5568 109.616 51.5568C107.611 51.5568 106.116 50.017 106.116 47.1818C106.116 44.3466 107.611 42.8068 109.616 42.8068C111.616 42.8068 113.116 44.3466 113.116 47.1818ZM120.936 53.1591C123.311 53.1591 125.055 51.7386 125.05 49.8068C125.055 48.3352 124.163 47.2784 122.618 47.0398V46.9489C123.834 46.6364 124.624 45.6818 124.618 44.375C124.624 42.6648 123.22 41.2045 120.982 41.2045C118.845 41.2045 117.129 42.4943 117.072 44.3864H118.771C118.811 43.3182 119.817 42.6705 120.959 42.6705C122.146 42.6705 122.925 43.392 122.919 44.4659C122.925 45.5909 122.021 46.3295 120.732 46.3295H119.749V47.7614H120.732C122.345 47.7614 123.277 48.5795 123.277 49.75C123.277 50.8807 122.294 51.6477 120.925 51.6477C119.663 51.6477 118.68 51 118.612 49.9659H116.828C116.902 51.8636 118.584 53.1591 120.936 53.1591ZM127.357 53H129.112V47.9261H134.913V53H136.675V41.3636H134.913V46.4205H129.112V41.3636H127.357V53ZM139.232 41.3636V53H140.845L146.76 44.4659H146.868V53H148.624V41.3636H146.999L141.078 49.9091H140.97V41.3636H139.232ZM158.088 53H160.23L155.401 46.5739L160.054 41.3636H157.912L153.514 46.2784H152.94V41.3636H151.185V53H152.94V47.7841H154.179L158.088 53ZM160.976 53H161.476C164.124 53 164.76 51.0341 164.913 47.2955L165.095 42.8523H169.067V53H170.8V41.3636H163.442L163.243 46.8295C163.118 50.1989 162.709 51.4318 161.317 51.4659L160.976 51.4773V53ZM173.357 41.3636V53H174.97L180.885 44.4659H180.993V53H182.749V41.3636H181.124L175.203 49.9091H175.095V41.3636H173.357ZM189.544 53H194.004C196.709 53 197.93 51.6534 197.93 49.8693C197.93 48.0682 196.669 47.0511 195.516 46.9886V46.875C196.584 46.6023 197.476 45.875 197.476 44.4205C197.476 42.6989 196.283 41.3636 193.805 41.3636H189.544V53ZM191.3 51.4943V47.767H193.896C195.305 47.767 196.186 48.6761 196.186 49.7841C196.186 50.7614 195.521 51.4943 193.834 51.4943H191.3ZM191.3 46.3977V42.858H193.697C195.089 42.858 195.754 43.5909 195.754 44.5568C195.754 45.6818 194.834 46.3977 193.652 46.3977H191.3ZM210.121 47.1818C210.121 43.4602 207.893 41.2045 204.882 41.2045C201.859 41.2045 199.638 43.4602 199.638 47.1818C199.638 50.8977 201.859 53.1591 204.882 53.1591C207.893 53.1591 210.121 50.9034 210.121 47.1818ZM208.382 47.1818C208.382 50.017 206.882 51.5568 204.882 51.5568C202.876 51.5568 201.382 50.017 201.382 47.1818C201.382 44.3466 202.876 42.8068 204.882 42.8068C206.882 42.8068 208.382 44.3466 208.382 47.1818ZM221.406 41.3636H212.429V53H214.179V42.8636H219.656V53H221.406V41.3636ZM224.091 53H225.847V48.9091H228.233C230.932 48.9091 232.267 47.2784 232.267 45.1307C232.267 42.9886 230.943 41.3636 228.239 41.3636H224.091V53ZM225.847 47.4205V42.8693H228.051C229.79 42.8693 230.5 43.8125 230.5 45.1307C230.5 46.4489 229.79 47.4205 228.074 47.4205H225.847ZM244.433 47.1818C244.433 43.4602 242.206 41.2045 239.195 41.2045C236.172 41.2045 233.95 43.4602 233.95 47.1818C233.95 50.8977 236.172 53.1591 239.195 53.1591C242.206 53.1591 244.433 50.9034 244.433 47.1818ZM242.695 47.1818C242.695 50.017 241.195 51.5568 239.195 51.5568C237.189 51.5568 235.695 50.017 235.695 47.1818C235.695 44.3466 237.189 42.8068 239.195 42.8068C241.195 42.8068 242.695 44.3466 242.695 47.1818ZM256.287 45.1477C255.889 42.6591 253.94 41.2045 251.48 41.2045C248.469 41.2045 246.247 43.4602 246.247 47.1818C246.247 50.9034 248.457 53.1591 251.48 53.1591C254.037 53.1591 255.906 51.5568 256.287 49.2557L254.514 49.25C254.213 50.7386 252.963 51.5568 251.491 51.5568C249.497 51.5568 247.991 50.0284 247.991 47.1818C247.991 44.358 249.491 42.8068 251.497 42.8068C252.98 42.8068 254.224 43.642 254.514 45.1477H256.287ZM260.161 46.0568V41.3636H258.399V53H262.757C265.348 53 266.831 51.5568 266.825 49.4716C266.831 47.392 265.348 46.0568 262.757 46.0568H260.161ZM269.655 41.3636H267.899V53H269.655V41.3636ZM260.161 47.5341H262.757C264.263 47.5341 265.092 48.3977 265.092 49.4489C265.092 50.5284 264.263 51.5227 262.757 51.5227H260.161V47.5341ZM273.938 49.6534H275.562V49.5455C275.585 48.2386 275.96 47.6534 276.926 47.0568C277.943 46.4432 278.568 45.5795 278.568 44.3011C278.568 42.4545 277.17 41.2045 275.085 41.2045C273.17 41.2045 271.636 42.3239 271.562 44.3693H273.29C273.358 43.1648 274.216 42.6364 275.085 42.6364C276.051 42.6364 276.835 43.2784 276.835 44.2841C276.835 45.1307 276.307 45.7273 275.631 46.1477C274.574 46.7955 273.949 47.4375 273.938 49.5455V49.6534ZM274.795 53.108C275.415 53.108 275.932 52.6023 275.932 51.9716C275.932 51.3523 275.415 50.8409 274.795 50.8409C274.17 50.8409 273.659 51.3523 273.659 51.9716C273.659 52.6023 274.17 53.108 274.795 53.108Z" fill="#111111"/>
<defs>
<filter id="filter0_d_131_1122" x="0" y="0" width="345" height="190" filterUnits="userSpaceOnUse" color-interpolation-filters="sRGB">
<feFlood flood-opacity="0" result="BackgroundImageFix"/>
<feColorMatrix in="SourceAlpha" type="matrix" values="0 0 0 0 0 0 0 0 0 0 0 0 0 0 0 0 0 0 127 0" result="hardAlpha"/>
<feMorphology radius="11" operator="erode" in="SourceAlpha" result="effect1_dropShadow_131_1122"/>
<feOffset dy="14"/>
<feGaussianBlur stdDeviation="19.5"/>
<feComposite in2="hardAlpha" operator="out"/>
<feColorMatrix type="matrix" values="0 0 0 0 0 0 0 0 0 0 0 0 0 0 0 0 0 0 0.1 0"/>
<feBlend mode="normal" in2="BackgroundImageFix" result="effect1_dropShadow_131_1122"/>
<feBlend mode="normal" in="SourceGraphic" in2="effect1_dropShadow_131_1122" result="shape"/>
</filter>
<linearGradient id="paint0_linear_131_1122" x1="43" y1="46.7966" x2="77.0375" y2="46.7966" gradientUnits="userSpaceOnUse">
<stop stop-color="#FFC650"/>
<stop offset="1" stop-color="#FECA6E"/>
</linearGradient>
</defs>
</svg>
