<svg width="1488" height="188" viewBox="0 0 1488 188" fill="none" xmlns="http://www.w3.org/2000/svg">
<g filter="url(#filter0_d_56_1629)">
<rect x="59" y="44" width="100" height="70" rx="10" fill="white" shape-rendering="crispEdges"/>
<path d="M94.2338 76.1392H94.89C96.4411 76.1392 96.8985 75.304 97.3161 74.3494L100.836 65.8182H99.5235L96.9582 72.142L94.1542 65.8182H92.8218L96.3417 73.6136L96.1826 73.9915C95.9639 74.4886 95.6059 74.9858 94.8701 74.9858H94.2338V76.1392ZM103.149 68.3636H101.797L104.223 72.1818L101.797 76H103.149L104.979 73.0369L106.808 76H108.16L105.695 72.1818L108.16 68.3636H106.808L104.979 71.4858L103.149 68.3636ZM112.622 76.1591C114.691 76.1591 116.083 74.5881 116.083 72.2216C116.083 69.8352 114.691 68.2642 112.622 68.2642C110.554 68.2642 109.162 69.8352 109.162 72.2216C109.162 74.5881 110.554 76.1591 112.622 76.1591ZM112.622 75.1051C111.051 75.1051 110.335 73.7528 110.335 72.2216C110.335 70.6903 111.051 69.3182 112.622 69.3182C114.193 69.3182 114.909 70.6903 114.909 72.2216C114.909 73.7528 114.193 75.1051 112.622 75.1051ZM117.058 78.1875H118.232V76H123.879V78.1875H125.053V74.9062H123.879V68.3636H119.027L118.769 71.3864C118.585 73.5241 118.311 74.2599 117.695 74.9062H117.058V78.1875ZM119.027 74.9062C119.564 74.2003 119.758 72.9822 119.922 71.3864L120.121 69.4574H122.706V74.9062H119.027ZM79.0536 91.0511C79.0934 92.304 80.2915 93.1591 81.9173 93.1591C83.5877 93.1591 84.8008 92.2642 84.8008 90.8722C84.8008 89.9176 84.229 89.142 83.369 89.0824V89.0028C84.0948 88.7791 84.6417 88.2521 84.6417 87.392C84.6417 86.1839 83.6076 85.2642 81.9968 85.2642C80.4059 85.2642 79.2724 86.1392 79.2326 87.3722H80.4656C80.5004 86.7408 81.1616 86.2983 82.0565 86.2983C82.9464 86.2983 83.4485 86.7507 83.4485 87.4318C83.4485 88.0682 83.011 88.5455 82.0763 88.5455H80.7638V89.5994H82.0763C83.011 89.5994 83.6076 90.1115 83.6076 90.8722C83.6076 91.7422 82.837 92.1051 81.8974 92.1051C80.9776 92.1051 80.3612 91.7422 80.3065 91.0511H79.0536ZM88.696 93.179C90.0284 93.179 90.7244 92.4631 90.9631 91.9659H91.0227V93H92.196V87.9688C92.196 85.5426 90.3466 85.2642 89.3722 85.2642C88.2188 85.2642 86.9062 85.6619 86.3097 87.054L87.4233 87.4517C87.6818 86.8949 88.2933 86.2983 89.4119 86.2983C90.4908 86.2983 91.0227 86.87 91.0227 87.8494V87.8892C91.0227 88.456 90.446 88.4062 89.054 88.5852C87.6371 88.7692 86.0909 89.0824 86.0909 90.8324C86.0909 92.3239 87.2443 93.179 88.696 93.179ZM88.875 92.125C87.9403 92.125 87.2642 91.7074 87.2642 90.892C87.2642 89.9972 88.0795 89.7188 88.9943 89.5994C89.4915 89.5398 90.8239 89.4006 91.0227 89.1619V90.2358C91.0227 91.1903 90.267 92.125 88.875 92.125ZM97.8375 86.4574H100.363V93H101.536V86.4574H104.042V85.3636H97.8375V86.4574ZM108.559 93.1591C110.11 93.1591 111.243 92.3835 111.601 91.2301L110.468 90.9119C110.17 91.7074 109.479 92.1051 108.559 92.1051C107.182 92.1051 106.232 91.2152 106.177 89.5795H111.721V89.0824C111.721 86.2386 110.03 85.2642 108.439 85.2642C106.371 85.2642 104.999 86.8949 104.999 89.2415C104.999 91.5881 106.351 93.1591 108.559 93.1591ZM106.177 88.5653C106.257 87.3771 107.097 86.3182 108.439 86.3182C109.712 86.3182 110.528 87.2727 110.528 88.5653H106.177ZM112.829 93H113.227C114.917 93 115.405 91.6875 115.514 89.1818L115.633 86.4574H118.437V93H119.611V85.3636H114.52L114.381 88.7443C114.281 91.3097 114.023 91.9062 113.108 91.9062H112.829V93ZM124.866 93.1591C126.934 93.1591 128.326 91.5881 128.326 89.2216C128.326 86.8352 126.934 85.2642 124.866 85.2642C122.797 85.2642 121.405 86.8352 121.405 89.2216C121.405 91.5881 122.797 93.1591 124.866 93.1591ZM124.866 92.1051C123.295 92.1051 122.579 90.7528 122.579 89.2216C122.579 87.6903 123.295 86.3182 124.866 86.3182C126.437 86.3182 127.153 87.6903 127.153 89.2216C127.153 90.7528 126.437 92.1051 124.866 92.1051ZM134.293 91.4091L131.668 85.3636H130.117V93H131.29V87.049L133.816 93H134.77L137.296 87.1584V93H138.469V85.3636H136.958L134.293 91.4091Z" fill="#3F4E65"/>
</g>
<g filter="url(#filter1_d_56_1629)">
<rect x="170" y="44" width="100" height="70" rx="10" fill="white" shape-rendering="crispEdges"/>
<path d="M203.265 76.1392H203.921C205.472 76.1392 205.93 75.304 206.347 74.3494L209.867 65.8182H208.555L205.989 72.142L203.185 65.8182H201.853L205.373 73.6136L205.214 73.9915C204.995 74.4886 204.637 74.9858 203.901 74.9858H203.265V76.1392ZM212.18 68.3636H210.828L213.254 72.1818L210.828 76H212.18L214.01 73.0369L215.839 76H217.192L214.726 72.1818L217.192 68.3636H215.839L214.01 71.4858L212.18 68.3636ZM221.654 76.1591C223.722 76.1591 225.114 74.5881 225.114 72.2216C225.114 69.8352 223.722 68.2642 221.654 68.2642C219.585 68.2642 218.193 69.8352 218.193 72.2216C218.193 74.5881 219.585 76.1591 221.654 76.1591ZM221.654 75.1051C220.083 75.1051 219.367 73.7528 219.367 72.2216C219.367 70.6903 220.083 69.3182 221.654 69.3182C223.225 69.3182 223.941 70.6903 223.941 72.2216C223.941 73.7528 223.225 75.1051 221.654 75.1051ZM226.09 78.1875H227.263V76H232.911V78.1875H234.084V74.9062H232.911V68.3636H228.058L227.8 71.3864C227.616 73.5241 227.342 74.2599 226.726 74.9062H226.09V78.1875ZM228.058 74.9062C228.595 74.2003 228.789 72.9822 228.953 71.3864L229.152 69.4574H231.737V74.9062H228.058ZM186.061 91.0511C186.101 92.304 187.299 93.1591 188.925 93.1591C190.596 93.1591 191.809 92.2642 191.809 90.8722C191.809 89.9176 191.237 89.142 190.377 89.0824V89.0028C191.103 88.7791 191.65 88.2521 191.65 87.392C191.65 86.1839 190.615 85.2642 189.005 85.2642C187.414 85.2642 186.28 86.1392 186.24 87.3722H187.473C187.508 86.7408 188.169 86.2983 189.064 86.2983C189.954 86.2983 190.456 86.7507 190.456 87.4318C190.456 88.0682 190.019 88.5455 189.084 88.5455H187.772V89.5994H189.084C190.019 89.5994 190.615 90.1115 190.615 90.8722C190.615 91.7422 189.845 92.1051 188.905 92.1051C187.985 92.1051 187.369 91.7422 187.314 91.0511H186.061ZM195.704 93.179C197.036 93.179 197.732 92.4631 197.971 91.9659H198.031V93H199.204V87.9688C199.204 85.5426 197.354 85.2642 196.38 85.2642C195.227 85.2642 193.914 85.6619 193.317 87.054L194.431 87.4517C194.69 86.8949 195.301 86.2983 196.42 86.2983C197.499 86.2983 198.031 86.87 198.031 87.8494V87.8892C198.031 88.456 197.454 88.4062 196.062 88.5852C194.645 88.7692 193.099 89.0824 193.099 90.8324C193.099 92.3239 194.252 93.179 195.704 93.179ZM195.883 92.125C194.948 92.125 194.272 91.7074 194.272 90.892C194.272 89.9972 195.087 89.7188 196.002 89.5994C196.499 89.5398 197.832 89.4006 198.031 89.1619V90.2358C198.031 91.1903 197.275 92.125 195.883 92.125ZM205.283 95.8636H206.456V91.8267H206.556C206.814 92.2443 207.311 93.1591 208.783 93.1591C210.692 93.1591 212.024 91.6278 212.024 89.2017C212.024 86.7955 210.692 85.2642 208.763 85.2642C207.271 85.2642 206.814 86.179 206.556 86.5767H206.416V85.3636H205.283V95.8636ZM206.436 89.1818C206.436 87.4716 207.192 86.3182 208.624 86.3182C210.115 86.3182 210.851 87.571 210.851 89.1818C210.851 90.8125 210.095 92.1051 208.624 92.1051C207.212 92.1051 206.436 90.9119 206.436 89.1818ZM214.296 95.8636C215.355 95.8636 216.101 95.3018 216.544 94.1136L219.795 85.3835L218.512 85.3636L216.404 91.4489H216.325L214.217 85.3636H212.944L215.768 93.0398L215.549 93.6364C215.122 94.7997 214.595 94.9091 213.74 94.6903L213.441 95.7244C213.561 95.7841 213.899 95.8636 214.296 95.8636ZM221.347 93H222.521V89.7784H223.575L226.08 93H227.592L224.469 89.0426L227.552 85.3636H226.04L223.296 88.6847H222.521V85.3636H221.347V93ZM231.114 93.179C232.446 93.179 233.142 92.4631 233.381 91.9659H233.441V93H234.614V87.9688C234.614 85.5426 232.765 85.2642 231.79 85.2642C230.637 85.2642 229.324 85.6619 228.728 87.054L229.841 87.4517C230.1 86.8949 230.711 86.2983 231.83 86.2983C232.909 86.2983 233.441 86.87 233.441 87.8494V87.8892C233.441 88.456 232.864 88.4062 231.472 88.5852C230.055 88.7692 228.509 89.0824 228.509 90.8324C228.509 92.3239 229.662 93.179 231.114 93.179ZM231.293 92.125C230.358 92.125 229.682 91.7074 229.682 90.892C229.682 89.9972 230.498 89.7188 231.412 89.5994C231.909 89.5398 233.242 89.4006 233.441 89.1619V90.2358C233.441 91.1903 232.685 92.125 231.293 92.125ZM240.932 91.4091L238.307 85.3636H236.756V93H237.929V87.049L240.454 93H241.409L243.934 87.1584V93H245.108V85.3636H243.596L240.932 91.4091ZM248.429 91.2699V85.3636H247.256V93H248.628L252.287 87.0938V93H253.46V85.3636H252.108L248.429 91.2699Z" fill="#3F4E65"/>
</g>
<g filter="url(#filter2_d_56_1629)">
<rect x="281" y="44" width="100" height="70" rx="10" fill="white" shape-rendering="crispEdges"/>
<path d="M314.265 76.1392H314.921C316.472 76.1392 316.93 75.304 317.347 74.3494L320.867 65.8182H319.555L316.989 72.142L314.185 65.8182H312.853L316.373 73.6136L316.214 73.9915C315.995 74.4886 315.637 74.9858 314.901 74.9858H314.265V76.1392ZM323.18 68.3636H321.828L324.254 72.1818L321.828 76H323.18L325.01 73.0369L326.839 76H328.192L325.726 72.1818L328.192 68.3636H326.839L325.01 71.4858L323.18 68.3636ZM332.654 76.1591C334.722 76.1591 336.114 74.5881 336.114 72.2216C336.114 69.8352 334.722 68.2642 332.654 68.2642C330.585 68.2642 329.193 69.8352 329.193 72.2216C329.193 74.5881 330.585 76.1591 332.654 76.1591ZM332.654 75.1051C331.083 75.1051 330.367 73.7528 330.367 72.2216C330.367 70.6903 331.083 69.3182 332.654 69.3182C334.225 69.3182 334.941 70.6903 334.941 72.2216C334.941 73.7528 334.225 75.1051 332.654 75.1051ZM337.09 78.1875H338.263V76H343.911V78.1875H345.084V74.9062H343.911V68.3636H339.058L338.8 71.3864C338.616 73.5241 338.342 74.2599 337.726 74.9062H337.09V78.1875ZM339.058 74.9062C339.595 74.2003 339.789 72.9822 339.953 71.3864L340.152 69.4574H342.737V74.9062H339.058ZM297.588 91.0511C297.628 92.304 298.826 93.1591 300.451 93.1591C302.122 93.1591 303.335 92.2642 303.335 90.8722C303.335 89.9176 302.763 89.142 301.903 89.0824V89.0028C302.629 88.7791 303.176 88.2521 303.176 87.392C303.176 86.1839 302.142 85.2642 300.531 85.2642C298.94 85.2642 297.807 86.1392 297.767 87.3722H299C299.035 86.7408 299.696 86.2983 300.591 86.2983C301.481 86.2983 301.983 86.7507 301.983 87.4318C301.983 88.0682 301.545 88.5455 300.611 88.5455H299.298V89.5994H300.611C301.545 89.5994 302.142 90.1115 302.142 90.8722C302.142 91.7422 301.371 92.1051 300.432 92.1051C299.512 92.1051 298.895 91.7422 298.841 91.0511H297.588ZM307.23 93.179C308.563 93.179 309.259 92.4631 309.497 91.9659H309.557V93H310.73V87.9688C310.73 85.5426 308.881 85.2642 307.906 85.2642C306.753 85.2642 305.44 85.6619 304.844 87.054L305.957 87.4517C306.216 86.8949 306.828 86.2983 307.946 86.2983C309.025 86.2983 309.557 86.87 309.557 87.8494V87.8892C309.557 88.456 308.98 88.4062 307.588 88.5852C306.171 88.7692 304.625 89.0824 304.625 90.8324C304.625 92.3239 305.778 93.179 307.23 93.179ZM307.409 92.125C306.475 92.125 305.798 91.7074 305.798 90.892C305.798 89.9972 306.614 89.7188 307.528 89.5994C308.026 89.5398 309.358 89.4006 309.557 89.1619V90.2358C309.557 91.1903 308.801 92.125 307.409 92.125ZM317.983 85.3636H316.809V93H317.983V89.7386H321.642V93H322.815V85.3636H321.642V88.6449H317.983V85.3636ZM328.06 93.1591C330.128 93.1591 331.52 91.5881 331.52 89.2216C331.52 86.8352 330.128 85.2642 328.06 85.2642C325.992 85.2642 324.6 86.8352 324.6 89.2216C324.6 91.5881 325.992 93.1591 328.06 93.1591ZM328.06 92.1051C326.489 92.1051 325.773 90.7528 325.773 89.2216C325.773 87.6903 326.489 86.3182 328.06 86.3182C329.631 86.3182 330.347 87.6903 330.347 89.2216C330.347 90.7528 329.631 92.1051 328.06 92.1051ZM338.024 85.3636H333.311V93H334.484V86.4574H338.024V85.3636ZM341.588 93.179C342.92 93.179 343.616 92.4631 343.855 91.9659H343.914V93H345.088V87.9688C345.088 85.5426 343.238 85.2642 342.264 85.2642C341.11 85.2642 339.798 85.6619 339.201 87.054L340.315 87.4517C340.573 86.8949 341.185 86.2983 342.304 86.2983C343.382 86.2983 343.914 86.87 343.914 87.8494V87.8892C343.914 88.456 343.338 88.4062 341.946 88.5852C340.529 88.7692 338.983 89.0824 338.983 90.8324C338.983 92.3239 340.136 93.179 341.588 93.179ZM341.767 92.125C340.832 92.125 340.156 91.7074 340.156 90.892C340.156 89.9972 340.971 89.7188 341.886 89.5994C342.383 89.5398 343.715 89.4006 343.914 89.1619V90.2358C343.914 91.1903 343.159 92.125 341.767 92.125ZM351.405 91.4091L348.78 85.3636H347.229V93H348.402V87.049L350.928 93H351.883L354.408 87.1584V93H355.581V85.3636H354.07L351.405 91.4091ZM358.902 91.2699V85.3636H357.729V93H359.101L362.76 87.0938V93H363.934V85.3636H362.581L358.902 91.2699Z" fill="#3F4E65"/>
</g>
<g filter="url(#filter3_d_56_1629)">
<rect x="392" y="44" width="100" height="70" rx="10" fill="white" shape-rendering="crispEdges"/>
<path d="M425.265 76.1392H425.921C427.472 76.1392 427.93 75.304 428.347 74.3494L431.867 65.8182H430.555L427.989 72.142L425.185 65.8182H423.853L427.373 73.6136L427.214 73.9915C426.995 74.4886 426.637 74.9858 425.901 74.9858H425.265V76.1392ZM434.18 68.3636H432.828L435.254 72.1818L432.828 76H434.18L436.01 73.0369L437.839 76H439.192L436.726 72.1818L439.192 68.3636H437.839L436.01 71.4858L434.18 68.3636ZM443.654 76.1591C445.722 76.1591 447.114 74.5881 447.114 72.2216C447.114 69.8352 445.722 68.2642 443.654 68.2642C441.585 68.2642 440.193 69.8352 440.193 72.2216C440.193 74.5881 441.585 76.1591 443.654 76.1591ZM443.654 75.1051C442.083 75.1051 441.367 73.7528 441.367 72.2216C441.367 70.6903 442.083 69.3182 443.654 69.3182C445.225 69.3182 445.941 70.6903 445.941 72.2216C445.941 73.7528 445.225 75.1051 443.654 75.1051ZM448.09 78.1875H449.263V76H454.911V78.1875H456.084V74.9062H454.911V68.3636H450.058L449.8 71.3864C449.616 73.5241 449.342 74.2599 448.726 74.9062H448.09V78.1875ZM450.058 74.9062C450.595 74.2003 450.789 72.9822 450.953 71.3864L451.152 69.4574H453.737V74.9062H450.058ZM411.09 91.0511C411.13 92.304 412.328 93.1591 413.953 93.1591C415.624 93.1591 416.837 92.2642 416.837 90.8722C416.837 89.9176 416.265 89.142 415.405 89.0824V89.0028C416.131 88.7791 416.678 88.2521 416.678 87.392C416.678 86.1839 415.644 85.2642 414.033 85.2642C412.442 85.2642 411.309 86.1392 411.269 87.3722H412.502C412.536 86.7408 413.198 86.2983 414.093 86.2983C414.983 86.2983 415.485 86.7507 415.485 87.4318C415.485 88.0682 415.047 88.5455 414.112 88.5455H412.8V89.5994H414.112C415.047 89.5994 415.644 90.1115 415.644 90.8722C415.644 91.7422 414.873 92.1051 413.934 92.1051C413.014 92.1051 412.397 91.7422 412.343 91.0511H411.09ZM420.732 93.179C422.065 93.179 422.761 92.4631 422.999 91.9659H423.059V93H424.232V87.9688C424.232 85.5426 422.383 85.2642 421.408 85.2642C420.255 85.2642 418.942 85.6619 418.346 87.054L419.459 87.4517C419.718 86.8949 420.329 86.2983 421.448 86.2983C422.527 86.2983 423.059 86.87 423.059 87.8494V87.8892C423.059 88.456 422.482 88.4062 421.09 88.5852C419.673 88.7692 418.127 89.0824 418.127 90.8324C418.127 92.3239 419.28 93.179 420.732 93.179ZM420.911 92.125C419.976 92.125 419.3 91.7074 419.3 90.892C419.3 89.9972 420.116 89.7188 421.03 89.5994C421.528 89.5398 422.86 89.4006 423.059 89.1619V90.2358C423.059 91.1903 422.303 92.125 420.911 92.125ZM429.635 93H430.033C431.723 93 432.21 91.6875 432.32 89.1818L432.439 86.4574H435.243V93H436.416V85.3636H431.325L431.186 88.7443C431.087 91.3097 430.828 91.9062 429.913 91.9062H429.635V93ZM439.742 91.2699V85.3636H438.569V93H439.941L443.6 87.0938V93H444.774V85.3636H443.421L439.742 91.2699ZM452.928 85.3636H451.755V91.9062H448.096V85.3636H446.922V93H452.829V95.4659H454.002V91.9062H452.928V85.3636ZM458.829 93.1591C460.898 93.1591 462.29 91.5881 462.29 89.2216C462.29 86.8352 460.898 85.2642 458.829 85.2642C456.761 85.2642 455.369 86.8352 455.369 89.2216C455.369 91.5881 456.761 93.1591 458.829 93.1591ZM458.829 92.1051C457.258 92.1051 456.543 90.7528 456.543 89.2216C456.543 87.6903 457.258 86.3182 458.829 86.3182C460.4 86.3182 461.116 87.6903 461.116 89.2216C461.116 90.7528 460.4 92.1051 458.829 92.1051ZM468.257 91.4091L465.632 85.3636H464.081V93H465.254V87.049L467.78 93H468.734L471.26 87.1584V93H472.433V85.3636H470.922L468.257 91.4091Z" fill="#3F4E65"/>
</g>
<g filter="url(#filter4_d_56_1629)">
<rect x="503" y="44" width="120" height="70" rx="10" fill="white" shape-rendering="crispEdges"/>
<path d="M546.265 76.1392H546.921C548.472 76.1392 548.93 75.304 549.347 74.3494L552.867 65.8182H551.555L548.989 72.142L546.185 65.8182H544.853L548.373 73.6136L548.214 73.9915C547.995 74.4886 547.637 74.9858 546.901 74.9858H546.265V76.1392ZM555.18 68.3636H553.828L556.254 72.1818L553.828 76H555.18L557.01 73.0369L558.839 76H560.192L557.726 72.1818L560.192 68.3636H558.839L557.01 71.4858L555.18 68.3636ZM564.654 76.1591C566.722 76.1591 568.114 74.5881 568.114 72.2216C568.114 69.8352 566.722 68.2642 564.654 68.2642C562.585 68.2642 561.193 69.8352 561.193 72.2216C561.193 74.5881 562.585 76.1591 564.654 76.1591ZM564.654 75.1051C563.083 75.1051 562.367 73.7528 562.367 72.2216C562.367 70.6903 563.083 69.3182 564.654 69.3182C566.225 69.3182 566.941 70.6903 566.941 72.2216C566.941 73.7528 566.225 75.1051 564.654 75.1051ZM569.09 78.1875H570.263V76H575.911V78.1875H577.084V74.9062H575.911V68.3636H571.058L570.8 71.3864C570.616 73.5241 570.342 74.2599 569.726 74.9062H569.09V78.1875ZM571.058 74.9062C571.595 74.2003 571.789 72.9822 571.953 71.3864L572.152 69.4574H574.737V74.9062H571.058ZM520.53 91.0511C520.57 92.304 521.768 93.1591 523.394 93.1591C525.064 93.1591 526.277 92.2642 526.277 90.8722C526.277 89.9176 525.706 89.142 524.846 89.0824V89.0028C525.571 88.7791 526.118 88.2521 526.118 87.392C526.118 86.1839 525.084 85.2642 523.473 85.2642C521.882 85.2642 520.749 86.1392 520.709 87.3722H521.942C521.977 86.7408 522.638 86.2983 523.533 86.2983C524.423 86.2983 524.925 86.7507 524.925 87.4318C524.925 88.0682 524.488 88.5455 523.553 88.5455H522.24V89.5994H523.553C524.488 89.5994 525.084 90.1115 525.084 90.8722C525.084 91.7422 524.314 92.1051 523.374 92.1051C522.454 92.1051 521.838 91.7422 521.783 91.0511H520.53ZM530.173 93.179C531.505 93.179 532.201 92.4631 532.44 91.9659H532.499V93H533.673V87.9688C533.673 85.5426 531.823 85.2642 530.849 85.2642C529.695 85.2642 528.383 85.6619 527.786 87.054L528.9 87.4517C529.158 86.8949 529.77 86.2983 530.888 86.2983C531.967 86.2983 532.499 86.87 532.499 87.8494V87.8892C532.499 88.456 531.923 88.4062 530.531 88.5852C529.114 88.7692 527.567 89.0824 527.567 90.8324C527.567 92.3239 528.721 93.179 530.173 93.179ZM530.352 92.125C529.417 92.125 528.741 91.7074 528.741 90.892C528.741 89.9972 529.556 89.7188 530.471 89.5994C530.968 89.5398 532.3 89.4006 532.499 89.1619V90.2358C532.499 91.1903 531.744 92.125 530.352 92.125ZM539.752 93H543.351C544.902 93 545.837 92.125 545.837 90.9517C545.837 89.7536 544.927 89.1072 544.087 88.983C544.947 88.804 545.558 88.3217 545.558 87.392C545.558 86.174 544.514 85.3636 542.874 85.3636H539.752V93ZM540.865 91.9261V89.5795H543.351C544.156 89.5795 544.644 90.0618 544.644 90.8523C544.644 91.5185 544.156 91.9261 543.351 91.9261H540.865ZM540.865 88.5653V86.4375H542.874C543.813 86.4375 544.385 86.8303 544.385 87.4716C544.385 88.1527 543.813 88.5653 542.874 88.5653H540.865ZM550.715 93.1591C552.783 93.1591 554.175 91.5881 554.175 89.2216C554.175 86.8352 552.783 85.2642 550.715 85.2642C548.647 85.2642 547.255 86.8352 547.255 89.2216C547.255 91.5881 548.647 93.1591 550.715 93.1591ZM550.715 92.1051C549.144 92.1051 548.428 90.7528 548.428 89.2216C548.428 87.6903 549.144 86.3182 550.715 86.3182C552.286 86.3182 553.002 87.6903 553.002 89.2216C553.002 90.7528 552.286 92.1051 550.715 92.1051ZM555.29 93H555.688C557.378 93 557.866 91.6875 557.975 89.1818L558.094 86.4574H560.898V93H562.072V85.3636H556.981L556.841 88.7443C556.742 91.3097 556.483 91.9062 555.569 91.9062H555.29V93ZM567.327 93.1591C569.395 93.1591 570.787 91.5881 570.787 89.2216C570.787 86.8352 569.395 85.2642 567.327 85.2642C565.258 85.2642 563.866 86.8352 563.866 89.2216C563.866 91.5881 565.258 93.1591 567.327 93.1591ZM567.327 92.1051C565.756 92.1051 565.04 90.7528 565.04 89.2216C565.04 87.6903 565.756 86.3182 567.327 86.3182C568.898 86.3182 569.613 87.6903 569.613 89.2216C569.613 90.7528 568.898 92.1051 567.327 92.1051ZM575.68 93.1591C577.37 93.1591 578.484 92.125 578.683 90.7727H577.51C577.291 91.608 576.595 92.1051 575.68 92.1051C574.288 92.1051 573.393 90.9517 573.393 89.1818C573.393 87.4517 574.308 86.3182 575.68 86.3182C576.714 86.3182 577.331 86.9545 577.51 87.6506H578.683C578.484 86.2188 577.271 85.2642 575.66 85.2642C573.592 85.2642 572.22 86.8949 572.22 89.2216C572.22 91.5085 573.532 93.1591 575.68 93.1591ZM582.645 93.179C583.978 93.179 584.674 92.4631 584.912 91.9659H584.972V93H586.145V87.9688C586.145 85.5426 584.296 85.2642 583.321 85.2642C582.168 85.2642 580.855 85.6619 580.259 87.054L581.373 87.4517C581.631 86.8949 582.243 86.2983 583.361 86.2983C584.44 86.2983 584.972 86.87 584.972 87.8494V87.8892C584.972 88.456 584.395 88.4062 583.003 88.5852C581.586 88.7692 580.04 89.0824 580.04 90.8324C580.04 92.3239 581.194 93.179 582.645 93.179ZM582.824 92.125C581.89 92.125 581.213 91.7074 581.213 90.892C581.213 89.9972 582.029 89.7188 582.944 89.5994C583.441 89.5398 584.773 89.4006 584.972 89.1619V90.2358C584.972 91.1903 584.216 92.125 582.824 92.125ZM592.463 91.4091L589.838 85.3636H588.287V93H589.46V87.049L591.986 93H592.94L595.466 87.1584V93H596.639V85.3636H595.128L592.463 91.4091ZM599.96 91.2699V85.3636H598.787V93H600.159L603.818 87.0938V93H604.991V85.3636H603.639L599.96 91.2699Z" fill="#3F4E65"/>
</g>
<g filter="url(#filter5_d_56_1629)">
<rect x="634" y="44" width="120" height="70" rx="10" fill="white" shape-rendering="crispEdges"/>
<path d="M668.214 69C667.836 66.9119 666.166 65.679 664.118 65.679C661.513 65.679 659.623 67.6875 659.623 70.9091C659.623 74.1307 661.513 76.1392 664.118 76.1392C666.166 76.1392 667.836 74.9062 668.214 72.8182H666.981C666.683 74.2301 665.47 74.9858 664.118 74.9858C662.268 74.9858 660.816 73.554 660.816 70.9091C660.816 68.2642 662.268 66.8324 664.118 66.8324C665.47 66.8324 666.683 67.5881 666.981 69H668.214ZM670.047 78.8636H671.221V74.8267H671.32C671.579 75.2443 672.076 76.1591 673.547 76.1591C675.457 76.1591 676.789 74.6278 676.789 72.2017C676.789 69.7955 675.457 68.2642 673.528 68.2642C672.036 68.2642 671.579 69.179 671.32 69.5767H671.181V68.3636H670.047V78.8636ZM671.201 72.1818C671.201 70.4716 671.957 69.3182 673.388 69.3182C674.88 69.3182 675.616 70.571 675.616 72.1818C675.616 73.8125 674.86 75.1051 673.388 75.1051C671.976 75.1051 671.201 73.9119 671.201 72.1818ZM681.78 76.1591C683.332 76.1591 684.465 75.3835 684.823 74.2301L683.69 73.9119C683.391 74.7074 682.7 75.1051 681.78 75.1051C680.403 75.1051 679.454 74.2152 679.399 72.5795H684.942V72.0824C684.942 69.2386 683.252 68.2642 681.661 68.2642C679.593 68.2642 678.221 69.8949 678.221 72.2415C678.221 74.5881 679.573 76.1591 681.78 76.1591ZM679.399 71.5653C679.479 70.3771 680.319 69.3182 681.661 69.3182C682.934 69.3182 683.749 70.2727 683.749 71.5653H679.399ZM685.912 78.1875H687.085V76H692.733V78.1875H693.906V74.9062H692.733V68.3636H687.881L687.622 71.3864C687.438 73.5241 687.165 74.2599 686.548 74.9062H685.912V78.1875ZM687.881 74.9062C688.418 74.2003 688.611 72.9822 688.775 71.3864L688.974 69.4574H691.56V74.9062H687.881ZM698.566 76.1591C700.256 76.1591 701.37 75.125 701.569 73.7727H700.395C700.177 74.608 699.481 75.1051 698.566 75.1051C697.174 75.1051 696.279 73.9517 696.279 72.1818C696.279 70.4517 697.194 69.3182 698.566 69.3182C699.6 69.3182 700.216 69.9545 700.395 70.6506H701.569C701.37 69.2188 700.157 68.2642 698.546 68.2642C696.478 68.2642 695.106 69.8949 695.106 72.2216C695.106 74.5085 696.418 76.1591 698.566 76.1591ZM702.682 69.4574H705.208V76H706.381V69.4574H708.887V68.3636H702.682V69.4574ZM710.598 76H714.198C715.749 76 716.684 75.125 716.684 73.9517C716.684 72.7536 715.774 72.1072 714.934 71.983C715.794 71.804 716.405 71.3217 716.405 70.392C716.405 69.174 715.361 68.3636 713.72 68.3636H710.598V76ZM711.712 74.9261V72.5795H714.198C715.003 72.5795 715.49 73.0618 715.49 73.8523C715.49 74.5185 715.003 74.9261 714.198 74.9261H711.712ZM711.712 71.5653V69.4375H713.72C714.66 69.4375 715.232 69.8303 715.232 70.4716C715.232 71.1527 714.66 71.5653 713.72 71.5653H711.712ZM720.707 76.179C722.039 76.179 722.735 75.4631 722.974 74.9659H723.033V76H724.207V70.9688C724.207 68.5426 722.357 68.2642 721.383 68.2642C720.229 68.2642 718.917 68.6619 718.32 70.054L719.434 70.4517C719.693 69.8949 720.304 69.2983 721.423 69.2983C722.502 69.2983 723.033 69.87 723.033 70.8494V70.8892C723.033 71.456 722.457 71.4062 721.065 71.5852C719.648 71.7692 718.102 72.0824 718.102 73.8324C718.102 75.3239 719.255 76.179 720.707 76.179ZM720.886 75.125C719.951 75.125 719.275 74.7074 719.275 73.892C719.275 72.9972 720.09 72.7188 721.005 72.5994C721.502 72.5398 722.835 72.4006 723.033 72.1619V73.2358C723.033 74.1903 722.278 75.125 720.886 75.125ZM657.29 95.1875H658.463V93H664.111V95.1875H665.284V91.9062H664.111V85.3636H659.259L659 88.3864C658.816 90.5241 658.543 91.2599 657.926 91.9062H657.29V95.1875ZM659.259 91.9062C659.795 91.2003 659.989 89.9822 660.153 88.3864L660.352 86.4574H662.938V91.9062H659.259ZM666.165 93H666.563C668.253 93 668.741 91.6875 668.85 89.1818L668.969 86.4574H671.773V93H672.947V85.3636H667.856L667.716 88.7443C667.617 91.3097 667.358 91.9062 666.444 91.9062H666.165V93ZM679.693 93H680.807V85.3636H677.665C676.019 85.3636 675.02 86.2237 675.02 87.6307C675.02 88.6797 675.547 89.4254 676.466 89.7386L674.602 93H675.875L677.645 89.8977H679.693V93ZM679.693 88.804H677.525C676.695 88.804 676.193 88.3615 676.193 87.6307C676.193 86.8899 676.75 86.4375 677.665 86.4375H679.693V88.804ZM686.421 91.0511C686.461 92.304 687.659 93.1591 689.284 93.1591C690.955 93.1591 692.168 92.2642 692.168 90.8722C692.168 89.9176 691.596 89.142 690.736 89.0824V89.0028C691.462 88.7791 692.009 88.2521 692.009 87.392C692.009 86.1839 690.975 85.2642 689.364 85.2642C687.773 85.2642 686.64 86.1392 686.6 87.3722H687.833C687.868 86.7408 688.529 86.2983 689.424 86.2983C690.314 86.2983 690.816 86.7507 690.816 87.4318C690.816 88.0682 690.378 88.5455 689.444 88.5455H688.131V89.5994H689.444C690.378 89.5994 690.975 90.1115 690.975 90.8722C690.975 91.7422 690.204 92.1051 689.265 92.1051C688.345 92.1051 687.728 91.7422 687.674 91.0511H686.421ZM696.063 93.179C697.396 93.179 698.092 92.4631 698.33 91.9659H698.39V93H699.563V87.9688C699.563 85.5426 697.714 85.2642 696.739 85.2642C695.586 85.2642 694.273 85.6619 693.677 87.054L694.79 87.4517C695.049 86.8949 695.661 86.2983 696.779 86.2983C697.858 86.2983 698.39 86.87 698.39 87.8494V87.8892C698.39 88.456 697.813 88.4062 696.421 88.5852C695.004 88.7692 693.458 89.0824 693.458 90.8324C693.458 92.3239 694.612 93.179 696.063 93.179ZM696.242 92.125C695.308 92.125 694.631 91.7074 694.631 90.892C694.631 89.9972 695.447 89.7188 696.362 89.5994C696.859 89.5398 698.191 89.4006 698.39 89.1619V90.2358C698.39 91.1903 697.634 92.125 696.242 92.125ZM706.418 85.3636H701.705V93H702.878V86.4574H706.418V85.3636ZM709.981 93.179C711.314 93.179 712.01 92.4631 712.248 91.9659H712.308V93H713.481V87.9688C713.481 85.5426 711.632 85.2642 710.657 85.2642C709.504 85.2642 708.191 85.6619 707.595 87.054L708.708 87.4517C708.967 86.8949 709.578 86.2983 710.697 86.2983C711.776 86.2983 712.308 86.87 712.308 87.8494V87.8892C712.308 88.456 711.731 88.4062 710.339 88.5852C708.922 88.7692 707.376 89.0824 707.376 90.8324C707.376 92.3239 708.529 93.179 709.981 93.179ZM710.16 92.125C709.225 92.125 708.549 91.7074 708.549 90.892C708.549 89.9972 709.365 89.7188 710.279 89.5994C710.777 89.5398 712.109 89.4006 712.308 89.1619V90.2358C712.308 91.1903 711.552 92.125 710.16 92.125ZM715.623 95.8636H716.796V91.8267H716.895C717.154 92.2443 717.651 93.1591 719.123 93.1591C721.032 93.1591 722.364 91.6278 722.364 89.2017C722.364 86.7955 721.032 85.2642 719.103 85.2642C717.611 85.2642 717.154 86.179 716.895 86.5767H716.756V85.3636H715.623V95.8636ZM716.776 89.1818C716.776 87.4716 717.532 86.3182 718.964 86.3182C720.455 86.3182 721.191 87.571 721.191 89.1818C721.191 90.8125 720.435 92.1051 718.964 92.1051C717.552 92.1051 716.776 90.9119 716.776 89.1818ZM726.401 93.179C727.733 93.179 728.43 92.4631 728.668 91.9659H728.728V93H729.901V87.9688C729.901 85.5426 728.052 85.2642 727.077 85.2642C725.924 85.2642 724.611 85.6619 724.015 87.054L725.128 87.4517C725.387 86.8949 725.998 86.2983 727.117 86.2983C728.196 86.2983 728.728 86.87 728.728 87.8494V87.8892C728.728 88.456 728.151 88.4062 726.759 88.5852C725.342 88.7692 723.796 89.0824 723.796 90.8324C723.796 92.3239 724.949 93.179 726.401 93.179ZM726.58 92.125C725.645 92.125 724.969 91.7074 724.969 90.892C724.969 89.9972 725.785 89.7188 726.699 89.5994C727.197 89.5398 728.529 89.4006 728.728 89.1619V90.2358C728.728 91.1903 727.972 92.125 726.58 92.125Z" fill="#3F4E65"/>
</g>
<g filter="url(#filter6_d_56_1629)">
<rect x="765" y="44" width="120" height="70" rx="10" fill="white" shape-rendering="crispEdges"/>
<path d="M799.214 69C798.836 66.9119 797.166 65.679 795.118 65.679C792.513 65.679 790.623 67.6875 790.623 70.9091C790.623 74.1307 792.513 76.1392 795.118 76.1392C797.166 76.1392 798.836 74.9062 799.214 72.8182H797.981C797.683 74.2301 796.47 74.9858 795.118 74.9858C793.268 74.9858 791.816 73.554 791.816 70.9091C791.816 68.2642 793.268 66.8324 795.118 66.8324C796.47 66.8324 797.683 67.5881 797.981 69H799.214ZM801.047 78.8636H802.221V74.8267H802.32C802.579 75.2443 803.076 76.1591 804.547 76.1591C806.457 76.1591 807.789 74.6278 807.789 72.2017C807.789 69.7955 806.457 68.2642 804.528 68.2642C803.036 68.2642 802.579 69.179 802.32 69.5767H802.181V68.3636H801.047V78.8636ZM802.201 72.1818C802.201 70.4716 802.957 69.3182 804.388 69.3182C805.88 69.3182 806.616 70.571 806.616 72.1818C806.616 73.8125 805.86 75.1051 804.388 75.1051C802.976 75.1051 802.201 73.9119 802.201 72.1818ZM812.78 76.1591C814.332 76.1591 815.465 75.3835 815.823 74.2301L814.69 73.9119C814.391 74.7074 813.7 75.1051 812.78 75.1051C811.403 75.1051 810.454 74.2152 810.399 72.5795H815.942V72.0824C815.942 69.2386 814.252 68.2642 812.661 68.2642C810.593 68.2642 809.221 69.8949 809.221 72.2415C809.221 74.5881 810.573 76.1591 812.78 76.1591ZM810.399 71.5653C810.479 70.3771 811.319 69.3182 812.661 69.3182C813.934 69.3182 814.749 70.2727 814.749 71.5653H810.399ZM816.912 78.1875H818.085V76H823.733V78.1875H824.906V74.9062H823.733V68.3636H818.881L818.622 71.3864C818.438 73.5241 818.165 74.2599 817.548 74.9062H816.912V78.1875ZM818.881 74.9062C819.418 74.2003 819.611 72.9822 819.775 71.3864L819.974 69.4574H822.56V74.9062H818.881ZM829.566 76.1591C831.256 76.1591 832.37 75.125 832.569 73.7727H831.395C831.177 74.608 830.481 75.1051 829.566 75.1051C828.174 75.1051 827.279 73.9517 827.279 72.1818C827.279 70.4517 828.194 69.3182 829.566 69.3182C830.6 69.3182 831.216 69.9545 831.395 70.6506H832.569C832.37 69.2188 831.157 68.2642 829.546 68.2642C827.478 68.2642 826.106 69.8949 826.106 72.2216C826.106 74.5085 827.418 76.1591 829.566 76.1591ZM833.682 69.4574H836.208V76H837.381V69.4574H839.887V68.3636H833.682V69.4574ZM841.598 76H845.198C846.749 76 847.684 75.125 847.684 73.9517C847.684 72.7536 846.774 72.1072 845.934 71.983C846.794 71.804 847.405 71.3217 847.405 70.392C847.405 69.174 846.361 68.3636 844.72 68.3636H841.598V76ZM842.712 74.9261V72.5795H845.198C846.003 72.5795 846.49 73.0618 846.49 73.8523C846.49 74.5185 846.003 74.9261 845.198 74.9261H842.712ZM842.712 71.5653V69.4375H844.72C845.66 69.4375 846.232 69.8303 846.232 70.4716C846.232 71.1527 845.66 71.5653 844.72 71.5653H842.712ZM851.707 76.179C853.039 76.179 853.735 75.4631 853.974 74.9659H854.033V76H855.207V70.9688C855.207 68.5426 853.357 68.2642 852.383 68.2642C851.229 68.2642 849.917 68.6619 849.32 70.054L850.434 70.4517C850.693 69.8949 851.304 69.2983 852.423 69.2983C853.502 69.2983 854.033 69.87 854.033 70.8494V70.8892C854.033 71.456 853.457 71.4062 852.065 71.5852C850.648 71.7692 849.102 72.0824 849.102 73.8324C849.102 75.3239 850.255 76.179 851.707 76.179ZM851.886 75.125C850.951 75.125 850.275 74.7074 850.275 73.892C850.275 72.9972 851.09 72.7188 852.005 72.5994C852.502 72.5398 853.835 72.4006 854.033 72.1619V73.2358C854.033 74.1903 853.278 75.125 851.886 75.125ZM787.046 95.1875H788.219V93H793.867V95.1875H795.04V91.9062H793.867V85.3636H789.014L788.756 88.3864C788.572 90.5241 788.298 91.2599 787.682 91.9062H787.046V95.1875ZM789.014 91.9062C789.551 91.2003 789.745 89.9822 789.909 88.3864L790.108 86.4574H792.693V91.9062H789.014ZM795.921 93H796.319C798.009 93 798.496 91.6875 798.606 89.1818L798.725 86.4574H801.529V93H802.702V85.3636H797.612L797.472 88.7443C797.373 91.3097 797.114 91.9062 796.2 91.9062H795.921V93ZM809.449 93H810.562V85.3636H807.42C805.775 85.3636 804.776 86.2237 804.776 87.6307C804.776 88.6797 805.303 89.4254 806.222 89.7386L804.358 93H805.631L807.401 89.8977H809.449V93ZM809.449 88.804H807.281C806.451 88.804 805.949 88.3615 805.949 87.6307C805.949 86.8899 806.506 86.4375 807.42 86.4375H809.449V88.804ZM822.322 82.5C821.949 82.8132 821.392 82.8132 820.611 82.8082C820.358 82.8082 820.079 82.8082 819.776 82.8182C817.449 82.8778 816.296 84.6477 816.296 88.0483V88.8636C816.296 91.6875 817.668 93.1591 819.716 93.1591C821.76 93.1591 823.117 91.6776 823.117 89.2812C823.117 86.875 821.74 85.6023 819.955 85.6023C818.906 85.6023 817.927 86.0398 817.41 86.9943H817.31C817.469 85.0256 818.205 83.9716 819.796 83.9119C821.208 83.8523 822.222 83.892 822.918 83.2159L822.322 82.5ZM819.716 92.1051C818.324 92.1051 817.469 90.9915 817.469 89.2812C817.494 87.6108 818.334 86.6562 819.697 86.6562C821.094 86.6562 821.944 87.6108 821.944 89.2812C821.944 91.0014 821.099 92.1051 819.716 92.1051ZM824.912 95.8636H826.085V91.8267H826.184C826.443 92.2443 826.94 93.1591 828.412 93.1591C830.321 93.1591 831.653 91.6278 831.653 89.2017C831.653 86.7955 830.321 85.2642 828.392 85.2642C826.9 85.2642 826.443 86.179 826.184 86.5767H826.045V85.3636H824.912V95.8636ZM826.065 89.1818C826.065 87.4716 826.821 86.3182 828.253 86.3182C829.744 86.3182 830.48 87.571 830.48 89.1818C830.48 90.8125 829.724 92.1051 828.253 92.1051C826.841 92.1051 826.065 90.9119 826.065 89.1818ZM834.616 91.2699V85.3636H833.443V93H834.815L838.474 87.0938V93H839.648V85.3636H838.295L834.616 91.2699ZM840.757 86.4574H843.283V93H844.456V86.4574H846.962V85.3636H840.757V86.4574ZM849.847 88.1278V85.3636H848.673V93H851.875C853.665 93 854.639 91.9062 854.639 90.5341C854.639 89.142 853.665 88.1278 851.875 88.1278H849.847ZM849.847 89.2216H851.875C852.805 89.2216 853.466 89.7884 853.466 90.5938C853.466 91.3643 852.805 91.9062 851.875 91.9062H849.847V89.2216ZM861.019 93H862.133V85.3636H858.991C857.345 85.3636 856.346 86.2237 856.346 87.6307C856.346 88.6797 856.873 89.4254 857.793 89.7386L855.928 93H857.201L858.971 89.8977H861.019V93ZM861.019 88.804H858.852C858.021 88.804 857.519 88.3615 857.519 87.6307C857.519 86.8899 858.076 86.4375 858.991 86.4375H861.019V88.804Z" fill="#3F4E65"/>
</g>
<g filter="url(#filter7_d_56_1629)">
<rect x="896" y="44" width="120" height="70" rx="10" fill="white" shape-rendering="crispEdges"/>
<path d="M919.479 65.8182H911.883V76H913.116V66.9119H918.246V76H919.479V65.8182ZM924.91 76.1591C926.978 76.1591 928.37 74.5881 928.37 72.2216C928.37 69.8352 926.978 68.2642 924.91 68.2642C922.841 68.2642 921.449 69.8352 921.449 72.2216C921.449 74.5881 922.841 76.1591 924.91 76.1591ZM924.91 75.1051C923.339 75.1051 922.623 73.7528 922.623 72.2216C922.623 70.6903 923.339 69.3182 924.91 69.3182C926.481 69.3182 927.196 70.6903 927.196 72.2216C927.196 73.7528 926.481 75.1051 924.91 75.1051ZM929.345 78.1875H930.519V76H936.166V78.1875H937.34V74.9062H936.166V68.3636H931.314L931.056 71.3864C930.872 73.5241 930.598 74.2599 929.982 74.9062H929.345V78.1875ZM931.314 74.9062C931.851 74.2003 932.045 72.9822 932.209 71.3864L932.408 69.4574H934.993V74.9062H931.314ZM941.144 76.179C942.477 76.179 943.173 75.4631 943.411 74.9659H943.471V76H944.644V70.9688C944.644 68.5426 942.795 68.2642 941.82 68.2642C940.667 68.2642 939.354 68.6619 938.758 70.054L939.872 70.4517C940.13 69.8949 940.742 69.2983 941.86 69.2983C942.939 69.2983 943.471 69.87 943.471 70.8494V70.8892C943.471 71.456 942.894 71.4062 941.502 71.5852C940.085 71.7692 938.539 72.0824 938.539 73.8324C938.539 75.3239 939.693 76.179 941.144 76.179ZM941.323 75.125C940.389 75.125 939.712 74.7074 939.712 73.892C939.712 72.9972 940.528 72.7188 941.443 72.5994C941.94 72.5398 943.272 72.4006 943.471 72.1619V73.2358C943.471 74.1903 942.715 75.125 941.323 75.125ZM946.786 78.8636H947.959V74.8267H948.059C948.317 75.2443 948.814 76.1591 950.286 76.1591C952.195 76.1591 953.527 74.6278 953.527 72.2017C953.527 69.7955 952.195 68.2642 950.266 68.2642C948.774 68.2642 948.317 69.179 948.059 69.5767H947.919V68.3636H946.786V78.8636ZM947.939 72.1818C947.939 70.4716 948.695 69.3182 950.127 69.3182C951.618 69.3182 952.354 70.571 952.354 72.1818C952.354 73.8125 951.598 75.1051 950.127 75.1051C948.715 75.1051 947.939 73.9119 947.939 72.1818ZM958.419 76.1591C960.487 76.1591 961.88 74.5881 961.88 72.2216C961.88 69.8352 960.487 68.2642 958.419 68.2642C956.351 68.2642 954.959 69.8352 954.959 72.2216C954.959 74.5881 956.351 76.1591 958.419 76.1591ZM958.419 75.1051C956.848 75.1051 956.132 73.7528 956.132 72.2216C956.132 70.6903 956.848 69.3182 958.419 69.3182C959.99 69.3182 960.706 70.6903 960.706 72.2216C960.706 73.7528 959.99 75.1051 958.419 75.1051ZM969.557 68.3636H968.384V72.2365C967.817 72.4006 967.235 72.5 966.534 72.5C965.58 72.5 964.844 71.9631 964.844 70.7898V68.3438H963.671V70.7898C963.671 72.6591 964.804 73.5938 966.534 73.5938C967.255 73.5938 967.832 73.4993 968.384 73.3352V76H969.557V68.3636ZM972.883 68.3636H971.71V76H972.883V72.7386H976.542V76H977.715V68.3636H976.542V71.6449H972.883V68.3636ZM981.031 71.1278V68.3636H979.858V76H983.06C984.85 76 985.824 74.9062 985.824 73.5341C985.824 72.142 984.85 71.1278 983.06 71.1278H981.031ZM987.037 76H988.21V68.3636H987.037V76ZM981.031 72.2216H983.06C983.989 72.2216 984.651 72.7884 984.651 73.5938C984.651 74.3643 983.989 74.9062 983.06 74.9062H981.031V72.2216ZM993.56 76.1591C995.111 76.1591 996.244 75.3835 996.602 74.2301L995.469 73.9119C995.171 74.7074 994.479 75.1051 993.56 75.1051C992.183 75.1051 991.233 74.2152 991.178 72.5795H996.722V72.0824C996.722 69.2386 995.031 68.2642 993.44 68.2642C991.372 68.2642 990 69.8949 990 72.2415C990 74.5881 991.352 76.1591 993.56 76.1591ZM991.178 71.5653C991.258 70.3771 992.098 69.3182 993.44 69.3182C994.713 69.3182 995.528 70.2727 995.528 71.5653H991.178ZM932.407 85.3636H931.234V93H932.407V89.7386H936.066V93H937.24V85.3636H936.066V88.6449H932.407V85.3636ZM941.63 93.179C942.962 93.179 943.658 92.4631 943.897 91.9659H943.956V93H945.13V87.9688C945.13 85.5426 943.28 85.2642 942.306 85.2642C941.152 85.2642 939.84 85.6619 939.243 87.054L940.357 87.4517C940.615 86.8949 941.227 86.2983 942.346 86.2983C943.424 86.2983 943.956 86.87 943.956 87.8494V87.8892C943.956 88.456 943.38 88.4062 941.988 88.5852C940.571 88.7692 939.025 89.0824 939.025 90.8324C939.025 92.3239 940.178 93.179 941.63 93.179ZM941.809 92.125C940.874 92.125 940.198 91.7074 940.198 90.892C940.198 89.9972 941.013 89.7188 941.928 89.5994C942.425 89.5398 943.757 89.4006 943.956 89.1619V90.2358C943.956 91.1903 943.201 92.125 941.809 92.125ZM952.939 82.5C952.566 82.8132 952.009 82.8132 951.229 82.8082C950.975 82.8082 950.697 82.8082 950.393 82.8182C948.067 82.8778 946.913 84.6477 946.913 88.0483V88.8636C946.913 91.6875 948.285 93.1591 950.334 93.1591C952.377 93.1591 953.734 91.6776 953.734 89.2812C953.734 86.875 952.357 85.6023 950.572 85.6023C949.523 85.6023 948.544 86.0398 948.027 86.9943H947.927C948.086 85.0256 948.822 83.9716 950.413 83.9119C951.825 83.8523 952.839 83.892 953.535 83.2159L952.939 82.5ZM950.334 92.1051C948.942 92.1051 948.086 90.9915 948.086 89.2812C948.111 87.6108 948.952 86.6562 950.314 86.6562C951.711 86.6562 952.561 87.6108 952.561 89.2812C952.561 91.0014 951.716 92.1051 950.334 92.1051ZM958.631 93.1591C960.699 93.1591 962.091 91.5881 962.091 89.2216C962.091 86.8352 960.699 85.2642 958.631 85.2642C956.563 85.2642 955.171 86.8352 955.171 89.2216C955.171 91.5881 956.563 93.1591 958.631 93.1591ZM958.631 92.1051C957.06 92.1051 956.344 90.7528 956.344 89.2216C956.344 87.6903 957.06 86.3182 958.631 86.3182C960.202 86.3182 960.918 87.6903 960.918 89.2216C960.918 90.7528 960.202 92.1051 958.631 92.1051ZM963.882 95.8636H965.056V91.8267H965.155C965.414 92.2443 965.911 93.1591 967.382 93.1591C969.292 93.1591 970.624 91.6278 970.624 89.2017C970.624 86.7955 969.292 85.2642 967.363 85.2642C965.871 85.2642 965.414 86.179 965.155 86.5767H965.016V85.3636H963.882V95.8636ZM965.036 89.1818C965.036 87.4716 965.792 86.3182 967.223 86.3182C968.715 86.3182 969.451 87.571 969.451 89.1818C969.451 90.8125 968.695 92.1051 967.223 92.1051C965.811 92.1051 965.036 90.9119 965.036 89.1818ZM973.587 88.1278V85.3636H972.414V93H975.615C977.405 93 978.38 91.9062 978.38 90.5341C978.38 89.142 977.405 88.1278 975.615 88.1278H973.587ZM979.593 93H980.766V85.3636H979.593V93ZM973.587 89.2216H975.615C976.545 89.2216 977.206 89.7884 977.206 90.5938C977.206 91.3643 976.545 91.9062 975.615 91.9062H973.587V89.2216Z" fill="#3F4E65"/>
</g>
<g filter="url(#filter8_d_56_1629)">
<rect x="1027" y="44" width="140" height="70" rx="10" fill="white" shape-rendering="crispEdges"/>
<path d="M1051.25 65.8182H1045.1V76H1046.34V66.9119H1051.25V65.8182ZM1053.38 74.2699V68.3636H1052.2V76H1053.58L1057.24 70.0938V76H1058.41V68.3636H1057.06L1053.38 74.2699ZM1065.27 68.3636H1060.56V76H1061.73V69.4574H1065.27V68.3636ZM1068.16 74.2699V68.3636H1066.98V76H1068.36L1072.02 70.0938V76H1073.19V68.3636H1071.84L1068.16 74.2699ZM1078.54 76.1591C1080.09 76.1591 1081.22 75.3835 1081.58 74.2301L1080.45 73.9119C1080.15 74.7074 1079.46 75.1051 1078.54 75.1051C1077.16 75.1051 1076.21 74.2152 1076.16 72.5795H1081.7V72.0824C1081.7 69.2386 1080.01 68.2642 1078.42 68.2642C1076.35 68.2642 1074.98 69.8949 1074.98 72.2415C1074.98 74.5881 1076.33 76.1591 1078.54 76.1591ZM1076.16 71.5653C1076.24 70.3771 1077.08 69.3182 1078.42 69.3182C1079.69 69.3182 1080.51 70.2727 1080.51 71.5653H1076.16ZM1084.66 68.3636H1083.49V76H1084.66V72.7386H1088.32V76H1089.49V68.3636H1088.32V71.6449H1084.66V68.3636ZM1092.81 74.2699V68.3636H1091.63V76H1093.01L1096.67 70.0938V76H1097.84V68.3636H1096.49L1092.81 74.2699ZM1105.87 68.3636H1104.7V72.2365C1104.13 72.4006 1103.55 72.5 1102.85 72.5C1101.9 72.5 1101.16 71.9631 1101.16 70.7898V68.3438H1099.99V70.7898C1099.99 72.6591 1101.12 73.5938 1102.85 73.5938C1103.57 73.5938 1104.15 73.4993 1104.7 73.3352V76H1105.87V68.3636ZM1111.23 76.1591C1112.78 76.1591 1113.91 75.3835 1114.27 74.2301L1113.14 73.9119C1112.84 74.7074 1112.15 75.1051 1111.23 75.1051C1109.85 75.1051 1108.9 74.2152 1108.85 72.5795H1114.39V72.0824C1114.39 69.2386 1112.7 68.2642 1111.11 68.2642C1109.04 68.2642 1107.67 69.8949 1107.67 72.2415C1107.67 74.5881 1109.02 76.1591 1111.23 76.1591ZM1108.85 71.5653C1108.93 70.3771 1109.77 69.3182 1111.11 69.3182C1112.38 69.3182 1113.2 70.2727 1113.2 71.5653H1108.85ZM1119.28 76.1591C1120.97 76.1591 1122.08 75.125 1122.28 73.7727H1121.11C1120.89 74.608 1120.19 75.1051 1119.28 75.1051C1117.89 75.1051 1116.99 73.9517 1116.99 72.1818C1116.99 70.4517 1117.91 69.3182 1119.28 69.3182C1120.31 69.3182 1120.93 69.9545 1121.11 70.6506H1122.28C1122.08 69.2188 1120.87 68.2642 1119.26 68.2642C1117.19 68.2642 1115.82 69.8949 1115.82 72.2216C1115.82 74.5085 1117.13 76.1591 1119.28 76.1591ZM1124 76H1125.17V72.7784H1126.22L1128.73 76H1130.24L1127.12 72.0426L1130.2 68.3636H1128.69L1125.94 71.6847H1125.17V68.3636H1124V76ZM1133.76 76.179C1135.09 76.179 1135.79 75.4631 1136.03 74.9659H1136.09V76H1137.26V70.9688C1137.26 68.5426 1135.41 68.2642 1134.44 68.2642C1133.29 68.2642 1131.97 68.6619 1131.38 70.054L1132.49 70.4517C1132.75 69.8949 1133.36 69.2983 1134.48 69.2983C1135.56 69.2983 1136.09 69.87 1136.09 70.8494V70.8892C1136.09 71.456 1135.51 71.4062 1134.12 71.5852C1132.7 71.7692 1131.16 72.0824 1131.16 73.8324C1131.16 75.3239 1132.31 76.179 1133.76 76.179ZM1133.94 75.125C1133.01 75.125 1132.33 74.7074 1132.33 73.892C1132.33 72.9972 1133.15 72.7188 1134.06 72.5994C1134.56 72.5398 1135.89 72.4006 1136.09 72.1619V73.2358C1136.09 74.1903 1135.33 75.125 1133.94 75.125ZM1144 76H1145.11V68.3636H1141.97C1140.32 68.3636 1139.32 69.2237 1139.32 70.6307C1139.32 71.6797 1139.85 72.4254 1140.77 72.7386L1138.91 76H1140.18L1141.95 72.8977H1144V76ZM1144 71.804H1141.83C1141 71.804 1140.5 71.3615 1140.5 70.6307C1140.5 69.8899 1141.05 69.4375 1141.97 69.4375H1144V71.804ZM1060.98 93H1062.15V86.4574H1065.81V93H1066.98V85.3636H1060.98V93ZM1069.12 95.8636H1070.3V91.8267H1070.4C1070.65 92.2443 1071.15 93.1591 1072.62 93.1591C1074.53 93.1591 1075.87 91.6278 1075.87 89.2017C1075.87 86.7955 1074.53 85.2642 1072.6 85.2642C1071.11 85.2642 1070.65 86.179 1070.4 86.5767H1070.26V85.3636H1069.12V95.8636ZM1070.28 89.1818C1070.28 87.4716 1071.03 86.3182 1072.46 86.3182C1073.96 86.3182 1074.69 87.571 1074.69 89.1818C1074.69 90.8125 1073.94 92.1051 1072.46 92.1051C1071.05 92.1051 1070.28 90.9119 1070.28 89.1818ZM1080.76 93.1591C1082.83 93.1591 1084.22 91.5881 1084.22 89.2216C1084.22 86.8352 1082.83 85.2642 1080.76 85.2642C1078.69 85.2642 1077.3 86.8352 1077.3 89.2216C1077.3 91.5881 1078.69 93.1591 1080.76 93.1591ZM1080.76 92.1051C1079.19 92.1051 1078.47 90.7528 1078.47 89.2216C1078.47 87.6903 1079.19 86.3182 1080.76 86.3182C1082.33 86.3182 1083.04 87.6903 1083.04 89.2216C1083.04 90.7528 1082.33 92.1051 1080.76 92.1051ZM1085.19 95.1875H1086.37V93H1092.01V95.1875H1093.19V91.9062H1092.01V85.3636H1087.16L1086.9 88.3864C1086.72 90.5241 1086.45 91.2599 1085.83 91.9062H1085.19V95.1875ZM1087.16 91.9062C1087.7 91.2003 1087.89 89.9822 1088.06 88.3864L1088.26 86.4574H1090.84V91.9062H1087.16ZM1095.5 95.8636C1096.56 95.8636 1097.31 95.3018 1097.75 94.1136L1101 85.3835L1099.72 85.3636L1097.61 91.4489H1097.53L1095.42 85.3636H1094.15L1096.97 93.0398L1096.75 93.6364C1096.33 94.7997 1095.8 94.9091 1094.94 94.6903L1094.65 95.7244C1094.76 95.7841 1095.1 95.8636 1095.5 95.8636ZM1102.55 93H1103.72V89.7784H1104.78L1107.28 93H1108.8L1105.67 89.0426L1108.76 85.3636H1107.24L1104.5 88.6847H1103.72V85.3636H1102.55V93ZM1116.08 85.3636H1114.9V91.9062H1111.24V85.3636H1110.07V93H1115.98V95.4659H1117.15V91.9062H1116.08V85.3636ZM1120.13 91.2699V85.3636H1118.96V93H1120.33L1123.99 87.0938V93H1125.16V85.3636H1123.81L1120.13 91.2699ZM1131.9 93H1133.02V85.3636H1129.88C1128.23 85.3636 1127.23 86.2237 1127.23 87.6307C1127.23 88.6797 1127.76 89.4254 1128.68 89.7386L1126.81 93H1128.09L1129.86 89.8977H1131.9V93ZM1131.9 88.804H1129.74C1128.91 88.804 1128.4 88.3615 1128.4 87.6307C1128.4 86.8899 1128.96 86.4375 1129.88 86.4375H1131.9V88.804Z" fill="#3F4E65"/>
</g>
<g filter="url(#filter9_d_56_1629)">
<rect x="1178" y="44" width="120" height="70" rx="10" fill="white" shape-rendering="crispEdges"/>
<path d="M1216.12 65.8182H1209.98V76H1211.21V66.9119H1216.12V65.8182ZM1218.25 74.2699V68.3636H1217.08V76H1218.45L1222.11 70.0938V76H1223.28V68.3636H1221.93L1218.25 74.2699ZM1230.14 68.3636H1225.43V76H1226.6V69.4574H1230.14V68.3636ZM1233.03 74.2699V68.3636H1231.86V76H1233.23L1236.89 70.0938V76H1238.06V68.3636H1236.71L1233.03 74.2699ZM1243.41 76.1591C1244.96 76.1591 1246.09 75.3835 1246.45 74.2301L1245.32 73.9119C1245.02 74.7074 1244.33 75.1051 1243.41 75.1051C1242.03 75.1051 1241.08 74.2152 1241.03 72.5795H1246.57V72.0824C1246.57 69.2386 1244.88 68.2642 1243.29 68.2642C1241.22 68.2642 1239.85 69.8949 1239.85 72.2415C1239.85 74.5881 1241.2 76.1591 1243.41 76.1591ZM1241.03 71.5653C1241.11 70.3771 1241.95 69.3182 1243.29 69.3182C1244.56 69.3182 1245.38 70.2727 1245.38 71.5653H1241.03ZM1249.53 68.3636H1248.36V76H1249.53V72.7386H1253.19V76H1254.36V68.3636H1253.19V71.6449H1249.53V68.3636ZM1258.75 76.179C1260.09 76.179 1260.78 75.4631 1261.02 74.9659H1261.08V76H1262.25V70.9688C1262.25 68.5426 1260.4 68.2642 1259.43 68.2642C1258.28 68.2642 1256.96 68.6619 1256.37 70.054L1257.48 70.4517C1257.74 69.8949 1258.35 69.2983 1259.47 69.2983C1260.55 69.2983 1261.08 69.87 1261.08 70.8494V70.8892C1261.08 71.456 1260.5 71.4062 1259.11 71.5852C1257.69 71.7692 1256.15 72.0824 1256.15 73.8324C1256.15 75.3239 1257.3 76.179 1258.75 76.179ZM1258.93 75.125C1258 75.125 1257.32 74.7074 1257.32 73.892C1257.32 72.9972 1258.14 72.7188 1259.05 72.5994C1259.55 72.5398 1260.88 72.4006 1261.08 72.1619V73.2358C1261.08 74.1903 1260.32 75.125 1258.93 75.125ZM1197.33 93H1198.51V86.4574H1202.17V93H1203.34V85.3636H1197.33V93ZM1208.58 93.1591C1210.65 93.1591 1212.04 91.5881 1212.04 89.2216C1212.04 86.8352 1210.65 85.2642 1208.58 85.2642C1206.52 85.2642 1205.12 86.8352 1205.12 89.2216C1205.12 91.5881 1206.52 93.1591 1208.58 93.1591ZM1208.58 92.1051C1207.01 92.1051 1206.3 90.7528 1206.3 89.2216C1206.3 87.6903 1207.01 86.3182 1208.58 86.3182C1210.16 86.3182 1210.87 87.6903 1210.87 89.2216C1210.87 90.7528 1210.16 92.1051 1208.58 92.1051ZM1213.16 93H1213.56C1215.25 93 1215.73 91.6875 1215.84 89.1818L1215.96 86.4574H1218.77V93H1219.94V85.3636H1214.85L1214.71 88.7443C1214.61 91.3097 1214.35 91.9062 1213.44 91.9062H1213.16V93ZM1225.2 93.1591C1227.26 93.1591 1228.66 91.5881 1228.66 89.2216C1228.66 86.8352 1227.26 85.2642 1225.2 85.2642C1223.13 85.2642 1221.74 86.8352 1221.74 89.2216C1221.74 91.5881 1223.13 93.1591 1225.2 93.1591ZM1225.2 92.1051C1223.62 92.1051 1222.91 90.7528 1222.91 89.2216C1222.91 87.6903 1223.62 86.3182 1225.2 86.3182C1226.77 86.3182 1227.48 87.6903 1227.48 89.2216C1227.48 90.7528 1226.77 92.1051 1225.2 92.1051ZM1233.55 93.1591C1235.24 93.1591 1236.35 92.125 1236.55 90.7727H1235.38C1235.16 91.608 1234.46 92.1051 1233.55 92.1051C1232.16 92.1051 1231.26 90.9517 1231.26 89.1818C1231.26 87.4517 1232.18 86.3182 1233.55 86.3182C1234.58 86.3182 1235.2 86.9545 1235.38 87.6506H1236.55C1236.35 86.2188 1235.14 85.2642 1233.53 85.2642C1231.46 85.2642 1230.09 86.8949 1230.09 89.2216C1230.09 91.5085 1231.4 93.1591 1233.55 93.1591ZM1237.67 86.4574H1240.19V93H1241.36V86.4574H1243.87V85.3636H1237.67V86.4574ZM1246.75 91.2699V85.3636H1245.58V93H1246.95L1250.61 87.0938V93H1251.79V85.3636H1250.43L1246.75 91.2699ZM1257.87 95.8636H1259.05V91.8267H1259.15C1259.4 92.2443 1259.9 93.1591 1261.37 93.1591C1263.28 93.1591 1264.61 91.6278 1264.61 89.2017C1264.61 86.7955 1263.28 85.2642 1261.35 85.2642C1259.86 85.2642 1259.4 86.179 1259.15 86.5767H1259.01V85.3636H1257.87V95.8636ZM1259.03 89.1818C1259.03 87.4716 1259.78 86.3182 1261.21 86.3182C1262.71 86.3182 1263.44 87.571 1263.44 89.1818C1263.44 90.8125 1262.69 92.1051 1261.21 92.1051C1259.8 92.1051 1259.03 90.9119 1259.03 89.1818ZM1265.41 86.4574H1267.93V93H1269.1V86.4574H1271.61V85.3636H1265.41V86.4574ZM1275.17 93.179C1276.5 93.179 1277.2 92.4631 1277.44 91.9659H1277.5V93H1278.67V87.9688C1278.67 85.5426 1276.82 85.2642 1275.85 85.2642C1274.7 85.2642 1273.38 85.6619 1272.79 87.054L1273.9 87.4517C1274.16 86.8949 1274.77 86.2983 1275.89 86.2983C1276.97 86.2983 1277.5 86.87 1277.5 87.8494V87.8892C1277.5 88.456 1276.92 88.4062 1275.53 88.5852C1274.11 88.7692 1272.57 89.0824 1272.57 90.8324C1272.57 92.3239 1273.72 93.179 1275.17 93.179ZM1275.35 92.125C1274.42 92.125 1273.74 91.7074 1273.74 90.892C1273.74 89.9972 1274.56 89.7188 1275.47 89.5994C1275.97 89.5398 1277.3 89.4006 1277.5 89.1619V90.2358C1277.5 91.1903 1276.74 92.125 1275.35 92.125Z" fill="#3F4E65"/>
</g>
<g filter="url(#filter10_d_56_1629)">
<rect x="1309" y="44" width="120" height="70" rx="10" fill="white" shape-rendering="crispEdges"/>
<path d="M1332.81 76H1336.63C1338.82 76 1340.01 74.767 1340.01 72.9972C1340.01 71.2273 1338.82 70.0938 1336.63 70.0938H1334.05V66.9119H1338.96V65.8182H1332.81V76ZM1334.05 74.9261V71.1875H1336.63C1338.02 71.1875 1338.8 72.0028 1338.8 72.9773C1338.8 73.9716 1338.02 74.9261 1336.63 74.9261H1334.05ZM1342.64 78.8636C1343.7 78.8636 1344.44 78.3018 1344.89 77.1136L1348.14 68.3835L1346.85 68.3636L1344.75 74.4489H1344.67L1342.56 68.3636H1341.29L1344.11 76.0398L1343.89 76.6364C1343.46 77.7997 1342.94 77.9091 1342.08 77.6903L1341.78 78.7244C1341.9 78.7841 1342.24 78.8636 1342.64 78.8636ZM1353.87 74.4091L1351.24 68.3636H1349.69V76H1350.86V70.049L1353.39 76H1354.34L1356.87 70.1584V76H1358.04V68.3636H1356.53L1353.87 74.4091ZM1362.44 76.179C1363.77 76.179 1364.46 75.4631 1364.7 74.9659H1364.76V76H1365.94V70.9688C1365.94 68.5426 1364.09 68.2642 1363.11 68.2642C1361.96 68.2642 1360.65 68.6619 1360.05 70.054L1361.16 70.4517C1361.42 69.8949 1362.03 69.2983 1363.15 69.2983C1364.23 69.2983 1364.76 69.87 1364.76 70.8494V70.8892C1364.76 71.456 1364.19 71.4062 1362.79 71.5852C1361.38 71.7692 1359.83 72.0824 1359.83 73.8324C1359.83 75.3239 1360.98 76.179 1362.44 76.179ZM1362.62 75.125C1361.68 75.125 1361 74.7074 1361 73.892C1361 72.9972 1361.82 72.7188 1362.73 72.5994C1363.23 72.5398 1364.56 72.4006 1364.76 72.1619V73.2358C1364.76 74.1903 1364.01 75.125 1362.62 75.125ZM1367.6 76H1369.01L1371.62 72.7188H1372.21V76H1373.39V72.7188H1373.98L1376.57 76H1377.98L1374.9 72.1222L1377.94 68.3636H1376.55L1374 71.625H1373.39V68.3636H1372.21V71.625H1371.58L1369.03 68.3636H1367.64L1370.7 72.1222L1367.6 76ZM1380.83 68.3636H1379.66V76H1380.83V72.7386H1384.49V76H1385.66V68.3636H1384.49V71.6449H1380.83V68.3636ZM1390.05 76.179C1391.39 76.179 1392.08 75.4631 1392.32 74.9659H1392.38V76H1393.55V70.9688C1393.55 68.5426 1391.7 68.2642 1390.73 68.2642C1389.58 68.2642 1388.26 68.6619 1387.67 70.054L1388.78 70.4517C1389.04 69.8949 1389.65 69.2983 1390.77 69.2983C1391.85 69.2983 1392.38 69.87 1392.38 70.8494V70.8892C1392.38 71.456 1391.8 71.4062 1390.41 71.5852C1388.99 71.7692 1387.45 72.0824 1387.45 73.8324C1387.45 75.3239 1388.6 76.179 1390.05 76.179ZM1390.23 75.125C1389.3 75.125 1388.62 74.7074 1388.62 73.892C1388.62 72.9972 1389.44 72.7188 1390.35 72.5994C1390.85 72.5398 1392.18 72.4006 1392.38 72.1619V73.2358C1392.38 74.1903 1391.62 75.125 1390.23 75.125ZM1400.29 76H1401.4V68.3636H1398.26C1396.61 68.3636 1395.62 69.2237 1395.62 70.6307C1395.62 71.6797 1396.14 72.4254 1397.06 72.7386L1395.2 76H1396.47L1398.24 72.8977H1400.29V76ZM1400.29 71.804H1398.12C1397.29 71.804 1396.79 71.3615 1396.79 70.6307C1396.79 69.8899 1397.35 69.4375 1398.26 69.4375H1400.29V71.804ZM1332.98 93H1334.15V86.4574H1337.81V93H1338.98V85.3636H1332.98V93ZM1341.12 95.8636H1342.3V91.8267H1342.4C1342.65 92.2443 1343.15 93.1591 1344.62 93.1591C1346.53 93.1591 1347.87 91.6278 1347.87 89.2017C1347.87 86.7955 1346.53 85.2642 1344.6 85.2642C1343.11 85.2642 1342.65 86.179 1342.4 86.5767H1342.26V85.3636H1341.12V95.8636ZM1342.28 89.1818C1342.28 87.4716 1343.03 86.3182 1344.46 86.3182C1345.96 86.3182 1346.69 87.571 1346.69 89.1818C1346.69 90.8125 1345.94 92.1051 1344.46 92.1051C1343.05 92.1051 1342.28 90.9119 1342.28 89.1818ZM1352.76 93.1591C1354.83 93.1591 1356.22 91.5881 1356.22 89.2216C1356.22 86.8352 1354.83 85.2642 1352.76 85.2642C1350.69 85.2642 1349.3 86.8352 1349.3 89.2216C1349.3 91.5881 1350.69 93.1591 1352.76 93.1591ZM1352.76 92.1051C1351.19 92.1051 1350.47 90.7528 1350.47 89.2216C1350.47 87.6903 1351.19 86.3182 1352.76 86.3182C1354.33 86.3182 1355.04 87.6903 1355.04 89.2216C1355.04 90.7528 1354.33 92.1051 1352.76 92.1051ZM1357.19 95.1875H1358.37V93H1364.01V95.1875H1365.19V91.9062H1364.01V85.3636H1359.16L1358.9 88.3864C1358.72 90.5241 1358.45 91.2599 1357.83 91.9062H1357.19V95.1875ZM1359.16 91.9062C1359.7 91.2003 1359.89 89.9822 1360.06 88.3864L1360.26 86.4574H1362.84V91.9062H1359.16ZM1367.5 95.8636C1368.56 95.8636 1369.31 95.3018 1369.75 94.1136L1373 85.3835L1371.72 85.3636L1369.61 91.4489H1369.53L1367.42 85.3636H1366.15L1368.97 93.0398L1368.75 93.6364C1368.33 94.7997 1367.8 94.9091 1366.94 94.6903L1366.65 95.7244C1366.76 95.7841 1367.1 95.8636 1367.5 95.8636ZM1374.55 93H1375.72V89.7784H1376.78L1379.28 93H1380.8L1377.67 89.0426L1380.76 85.3636H1379.24L1376.5 88.6847H1375.72V85.3636H1374.55V93ZM1388.08 85.3636H1386.9V91.9062H1383.24V85.3636H1382.07V93H1387.98V95.4659H1389.15V91.9062H1388.08V85.3636ZM1392.13 91.2699V85.3636H1390.96V93H1392.33L1395.99 87.0938V93H1397.16V85.3636H1395.81L1392.13 91.2699ZM1403.9 93H1405.02V85.3636H1401.88C1400.23 85.3636 1399.23 86.2237 1399.23 87.6307C1399.23 88.6797 1399.76 89.4254 1400.68 89.7386L1398.81 93H1400.09L1401.86 89.8977H1403.9V93ZM1403.9 88.804H1401.74C1400.91 88.804 1400.4 88.3615 1400.4 87.6307C1400.4 86.8899 1400.96 86.4375 1401.88 86.4375H1403.9V88.804Z" fill="#3F4E65"/>
</g>
<defs>
<filter id="filter0_d_56_1629" x="0" y="0" width="218" height="188" filterUnits="userSpaceOnUse" color-interpolation-filters="sRGB">
<feFlood flood-opacity="0" result="BackgroundImageFix"/>
<feColorMatrix in="SourceAlpha" type="matrix" values="0 0 0 0 0 0 0 0 0 0 0 0 0 0 0 0 0 0 127 0" result="hardAlpha"/>
<feMorphology radius="11" operator="erode" in="SourceAlpha" result="effect1_dropShadow_56_1629"/>
<feOffset dy="15"/>
<feGaussianBlur stdDeviation="35"/>
<feComposite in2="hardAlpha" operator="out"/>
<feColorMatrix type="matrix" values="0 0 0 0 0.166667 0 0 0 0 0.111653 0 0 0 0 0.00555556 0 0 0 0.04 0"/>
<feBlend mode="normal" in2="BackgroundImageFix" result="effect1_dropShadow_56_1629"/>
<feBlend mode="normal" in="SourceGraphic" in2="effect1_dropShadow_56_1629" result="shape"/>
</filter>
<filter id="filter1_d_56_1629" x="111" y="0" width="218" height="188" filterUnits="userSpaceOnUse" color-interpolation-filters="sRGB">
<feFlood flood-opacity="0" result="BackgroundImageFix"/>
<feColorMatrix in="SourceAlpha" type="matrix" values="0 0 0 0 0 0 0 0 0 0 0 0 0 0 0 0 0 0 127 0" result="hardAlpha"/>
<feMorphology radius="11" operator="erode" in="SourceAlpha" result="effect1_dropShadow_56_1629"/>
<feOffset dy="15"/>
<feGaussianBlur stdDeviation="35"/>
<feComposite in2="hardAlpha" operator="out"/>
<feColorMatrix type="matrix" values="0 0 0 0 0.166667 0 0 0 0 0.111653 0 0 0 0 0.00555556 0 0 0 0.04 0"/>
<feBlend mode="normal" in2="BackgroundImageFix" result="effect1_dropShadow_56_1629"/>
<feBlend mode="normal" in="SourceGraphic" in2="effect1_dropShadow_56_1629" result="shape"/>
</filter>
<filter id="filter2_d_56_1629" x="222" y="0" width="218" height="188" filterUnits="userSpaceOnUse" color-interpolation-filters="sRGB">
<feFlood flood-opacity="0" result="BackgroundImageFix"/>
<feColorMatrix in="SourceAlpha" type="matrix" values="0 0 0 0 0 0 0 0 0 0 0 0 0 0 0 0 0 0 127 0" result="hardAlpha"/>
<feMorphology radius="11" operator="erode" in="SourceAlpha" result="effect1_dropShadow_56_1629"/>
<feOffset dy="15"/>
<feGaussianBlur stdDeviation="35"/>
<feComposite in2="hardAlpha" operator="out"/>
<feColorMatrix type="matrix" values="0 0 0 0 0.166667 0 0 0 0 0.111653 0 0 0 0 0.00555556 0 0 0 0.04 0"/>
<feBlend mode="normal" in2="BackgroundImageFix" result="effect1_dropShadow_56_1629"/>
<feBlend mode="normal" in="SourceGraphic" in2="effect1_dropShadow_56_1629" result="shape"/>
</filter>
<filter id="filter3_d_56_1629" x="333" y="0" width="218" height="188" filterUnits="userSpaceOnUse" color-interpolation-filters="sRGB">
<feFlood flood-opacity="0" result="BackgroundImageFix"/>
<feColorMatrix in="SourceAlpha" type="matrix" values="0 0 0 0 0 0 0 0 0 0 0 0 0 0 0 0 0 0 127 0" result="hardAlpha"/>
<feMorphology radius="11" operator="erode" in="SourceAlpha" result="effect1_dropShadow_56_1629"/>
<feOffset dy="15"/>
<feGaussianBlur stdDeviation="35"/>
<feComposite in2="hardAlpha" operator="out"/>
<feColorMatrix type="matrix" values="0 0 0 0 0.166667 0 0 0 0 0.111653 0 0 0 0 0.00555556 0 0 0 0.04 0"/>
<feBlend mode="normal" in2="BackgroundImageFix" result="effect1_dropShadow_56_1629"/>
<feBlend mode="normal" in="SourceGraphic" in2="effect1_dropShadow_56_1629" result="shape"/>
</filter>
<filter id="filter4_d_56_1629" x="444" y="0" width="238" height="188" filterUnits="userSpaceOnUse" color-interpolation-filters="sRGB">
<feFlood flood-opacity="0" result="BackgroundImageFix"/>
<feColorMatrix in="SourceAlpha" type="matrix" values="0 0 0 0 0 0 0 0 0 0 0 0 0 0 0 0 0 0 127 0" result="hardAlpha"/>
<feMorphology radius="11" operator="erode" in="SourceAlpha" result="effect1_dropShadow_56_1629"/>
<feOffset dy="15"/>
<feGaussianBlur stdDeviation="35"/>
<feComposite in2="hardAlpha" operator="out"/>
<feColorMatrix type="matrix" values="0 0 0 0 0.166667 0 0 0 0 0.111653 0 0 0 0 0.00555556 0 0 0 0.04 0"/>
<feBlend mode="normal" in2="BackgroundImageFix" result="effect1_dropShadow_56_1629"/>
<feBlend mode="normal" in="SourceGraphic" in2="effect1_dropShadow_56_1629" result="shape"/>
</filter>
<filter id="filter5_d_56_1629" x="575" y="0" width="238" height="188" filterUnits="userSpaceOnUse" color-interpolation-filters="sRGB">
<feFlood flood-opacity="0" result="BackgroundImageFix"/>
<feColorMatrix in="SourceAlpha" type="matrix" values="0 0 0 0 0 0 0 0 0 0 0 0 0 0 0 0 0 0 127 0" result="hardAlpha"/>
<feMorphology radius="11" operator="erode" in="SourceAlpha" result="effect1_dropShadow_56_1629"/>
<feOffset dy="15"/>
<feGaussianBlur stdDeviation="35"/>
<feComposite in2="hardAlpha" operator="out"/>
<feColorMatrix type="matrix" values="0 0 0 0 0.166667 0 0 0 0 0.111653 0 0 0 0 0.00555556 0 0 0 0.04 0"/>
<feBlend mode="normal" in2="BackgroundImageFix" result="effect1_dropShadow_56_1629"/>
<feBlend mode="normal" in="SourceGraphic" in2="effect1_dropShadow_56_1629" result="shape"/>
</filter>
<filter id="filter6_d_56_1629" x="706" y="0" width="238" height="188" filterUnits="userSpaceOnUse" color-interpolation-filters="sRGB">
<feFlood flood-opacity="0" result="BackgroundImageFix"/>
<feColorMatrix in="SourceAlpha" type="matrix" values="0 0 0 0 0 0 0 0 0 0 0 0 0 0 0 0 0 0 127 0" result="hardAlpha"/>
<feMorphology radius="11" operator="erode" in="SourceAlpha" result="effect1_dropShadow_56_1629"/>
<feOffset dy="15"/>
<feGaussianBlur stdDeviation="35"/>
<feComposite in2="hardAlpha" operator="out"/>
<feColorMatrix type="matrix" values="0 0 0 0 0.166667 0 0 0 0 0.111653 0 0 0 0 0.00555556 0 0 0 0.04 0"/>
<feBlend mode="normal" in2="BackgroundImageFix" result="effect1_dropShadow_56_1629"/>
<feBlend mode="normal" in="SourceGraphic" in2="effect1_dropShadow_56_1629" result="shape"/>
</filter>
<filter id="filter7_d_56_1629" x="837" y="0" width="238" height="188" filterUnits="userSpaceOnUse" color-interpolation-filters="sRGB">
<feFlood flood-opacity="0" result="BackgroundImageFix"/>
<feColorMatrix in="SourceAlpha" type="matrix" values="0 0 0 0 0 0 0 0 0 0 0 0 0 0 0 0 0 0 127 0" result="hardAlpha"/>
<feMorphology radius="11" operator="erode" in="SourceAlpha" result="effect1_dropShadow_56_1629"/>
<feOffset dy="15"/>
<feGaussianBlur stdDeviation="35"/>
<feComposite in2="hardAlpha" operator="out"/>
<feColorMatrix type="matrix" values="0 0 0 0 0.166667 0 0 0 0 0.111653 0 0 0 0 0.00555556 0 0 0 0.04 0"/>
<feBlend mode="normal" in2="BackgroundImageFix" result="effect1_dropShadow_56_1629"/>
<feBlend mode="normal" in="SourceGraphic" in2="effect1_dropShadow_56_1629" result="shape"/>
</filter>
<filter id="filter8_d_56_1629" x="968" y="0" width="258" height="188" filterUnits="userSpaceOnUse" color-interpolation-filters="sRGB">
<feFlood flood-opacity="0" result="BackgroundImageFix"/>
<feColorMatrix in="SourceAlpha" type="matrix" values="0 0 0 0 0 0 0 0 0 0 0 0 0 0 0 0 0 0 127 0" result="hardAlpha"/>
<feMorphology radius="11" operator="erode" in="SourceAlpha" result="effect1_dropShadow_56_1629"/>
<feOffset dy="15"/>
<feGaussianBlur stdDeviation="35"/>
<feComposite in2="hardAlpha" operator="out"/>
<feColorMatrix type="matrix" values="0 0 0 0 0.166667 0 0 0 0 0.111653 0 0 0 0 0.00555556 0 0 0 0.04 0"/>
<feBlend mode="normal" in2="BackgroundImageFix" result="effect1_dropShadow_56_1629"/>
<feBlend mode="normal" in="SourceGraphic" in2="effect1_dropShadow_56_1629" result="shape"/>
</filter>
<filter id="filter9_d_56_1629" x="1119" y="0" width="238" height="188" filterUnits="userSpaceOnUse" color-interpolation-filters="sRGB">
<feFlood flood-opacity="0" result="BackgroundImageFix"/>
<feColorMatrix in="SourceAlpha" type="matrix" values="0 0 0 0 0 0 0 0 0 0 0 0 0 0 0 0 0 0 127 0" result="hardAlpha"/>
<feMorphology radius="11" operator="erode" in="SourceAlpha" result="effect1_dropShadow_56_1629"/>
<feOffset dy="15"/>
<feGaussianBlur stdDeviation="35"/>
<feComposite in2="hardAlpha" operator="out"/>
<feColorMatrix type="matrix" values="0 0 0 0 0.166667 0 0 0 0 0.111653 0 0 0 0 0.00555556 0 0 0 0.04 0"/>
<feBlend mode="normal" in2="BackgroundImageFix" result="effect1_dropShadow_56_1629"/>
<feBlend mode="normal" in="SourceGraphic" in2="effect1_dropShadow_56_1629" result="shape"/>
</filter>
<filter id="filter10_d_56_1629" x="1250" y="0" width="238" height="188" filterUnits="userSpaceOnUse" color-interpolation-filters="sRGB">
<feFlood flood-opacity="0" result="BackgroundImageFix"/>
<feColorMatrix in="SourceAlpha" type="matrix" values="0 0 0 0 0 0 0 0 0 0 0 0 0 0 0 0 0 0 127 0" result="hardAlpha"/>
<feMorphology radius="11" operator="erode" in="SourceAlpha" result="effect1_dropShadow_56_1629"/>
<feOffset dy="15"/>
<feGaussianBlur stdDeviation="35"/>
<feComposite in2="hardAlpha" operator="out"/>
<feColorMatrix type="matrix" values="0 0 0 0 0.166667 0 0 0 0 0.111653 0 0 0 0 0.00555556 0 0 0 0.04 0"/>
<feBlend mode="normal" in2="BackgroundImageFix" result="effect1_dropShadow_56_1629"/>
<feBlend mode="normal" in="SourceGraphic" in2="effect1_dropShadow_56_1629" result="shape"/>
</filter>
</defs>
</svg>
