<svg width="477" height="42" viewBox="0 0 477 42" fill="none" xmlns="http://www.w3.org/2000/svg">
<path d="M49.6761 6.91193H52.8778V16H54.1108V6.91193H57.3125V5.81818H49.6761V6.91193ZM61.0511 16.1591C63.1193 16.1591 64.5114 14.5881 64.5114 12.2216C64.5114 9.83523 63.1193 8.2642 61.0511 8.2642C58.983 8.2642 57.5909 9.83523 57.5909 12.2216C57.5909 14.5881 58.983 16.1591 61.0511 16.1591ZM61.0511 15.1051C59.4801 15.1051 58.7642 13.7528 58.7642 12.2216C58.7642 10.6903 59.4801 9.31818 61.0511 9.31818C62.6222 9.31818 63.3381 10.6903 63.3381 12.2216C63.3381 13.7528 62.6222 15.1051 61.0511 15.1051ZM65.6262 16H66.024C67.7143 16 68.2015 14.6875 68.3109 12.1818L68.4302 9.45739H71.2342V16H72.4075V8.36364H67.3166L67.1774 11.7443C67.0779 14.3097 66.8194 14.9062 65.9047 14.9062H65.6262V16ZM75.7335 11.1278V8.36364H74.5602V16H77.7619C79.5517 16 80.5261 14.9062 80.5261 13.5341C80.5261 12.142 79.5517 11.1278 77.7619 11.1278H75.7335ZM75.7335 12.2216H77.7619C78.6916 12.2216 79.3528 12.7884 79.3528 13.5938C79.3528 14.3643 78.6916 14.9062 77.7619 14.9062H75.7335V12.2216ZM82.3121 16H83.4854V12.7784H84.5394L87.0451 16H88.5565L85.4343 12.0426L88.5167 8.36364H87.0053L84.261 11.6847H83.4854V8.36364H82.3121V16ZM92.6195 16.1591C94.6877 16.1591 96.0797 14.5881 96.0797 12.2216C96.0797 9.83523 94.6877 8.2642 92.6195 8.2642C90.5513 8.2642 89.1593 9.83523 89.1593 12.2216C89.1593 14.5881 90.5513 16.1591 92.6195 16.1591ZM92.6195 15.1051C91.0485 15.1051 90.3326 13.7528 90.3326 12.2216C90.3326 10.6903 91.0485 9.31818 92.6195 9.31818C94.1905 9.31818 94.9064 10.6903 94.9064 12.2216C94.9064 13.7528 94.1905 15.1051 92.6195 15.1051ZM104.911 16.1591C106.601 16.1591 107.714 15.125 107.913 13.7727H106.74C106.521 14.608 105.825 15.1051 104.911 15.1051C103.518 15.1051 102.624 13.9517 102.624 12.1818C102.624 10.4517 103.538 9.31818 104.911 9.31818C105.945 9.31818 106.561 9.95455 106.74 10.6506H107.913C107.714 9.21875 106.501 8.2642 104.891 8.2642C102.822 8.2642 101.45 9.89489 101.45 12.2216C101.45 14.5085 102.763 16.1591 104.911 16.1591ZM111.876 16.179C113.208 16.179 113.904 15.4631 114.143 14.9659H114.202V16H115.376V10.9688C115.376 8.54261 113.526 8.2642 112.552 8.2642C111.398 8.2642 110.086 8.66193 109.489 10.054L110.603 10.4517C110.862 9.89489 111.473 9.2983 112.592 9.2983C113.67 9.2983 114.202 9.87003 114.202 10.8494V10.8892C114.202 11.456 113.626 11.4062 112.234 11.5852C110.817 11.7692 109.271 12.0824 109.271 13.8324C109.271 15.3239 110.424 16.179 111.876 16.179ZM112.055 15.125C111.12 15.125 110.444 14.7074 110.444 13.892C110.444 12.9972 111.259 12.7188 112.174 12.5994C112.671 12.5398 114.004 12.4006 114.202 12.1619V13.2358C114.202 14.1903 113.447 15.125 112.055 15.125ZM121.693 14.4091L119.068 8.36364H117.517V16H118.691V10.049L121.216 16H122.171L124.696 10.1584V16H125.869V8.36364H124.358L121.693 14.4091ZM129.191 11.1278V8.36364H128.017V16H131.219C133.009 16 133.983 14.9062 133.983 13.5341C133.983 12.142 133.009 11.1278 131.219 11.1278H129.191ZM135.196 16H136.369V8.36364H135.196V16ZM129.191 12.2216H131.219C132.149 12.2216 132.81 12.7884 132.81 13.5938C132.81 14.3643 132.149 14.9062 131.219 14.9062H129.191V12.2216ZM141.719 16.1591C143.27 16.1591 144.404 15.3835 144.762 14.2301L143.628 13.9119C143.33 14.7074 142.639 15.1051 141.719 15.1051C140.342 15.1051 139.392 14.2152 139.338 12.5795H144.881V12.0824C144.881 9.23864 143.191 8.2642 141.6 8.2642C139.531 8.2642 138.159 9.89489 138.159 12.2415C138.159 14.5881 139.512 16.1591 141.719 16.1591ZM139.338 11.5653C139.417 10.3771 140.257 9.31818 141.6 9.31818C142.872 9.31818 143.688 10.2727 143.688 11.5653H139.338ZM50.0739 37H53.6733C55.2244 37 56.1591 36.125 56.1591 34.9517C56.1591 33.7536 55.2493 33.1072 54.4091 32.983C55.2692 32.804 55.8807 32.3217 55.8807 31.392C55.8807 30.174 54.8366 29.3636 53.196 29.3636H50.0739V37ZM51.1875 35.9261V33.5795H53.6733C54.4787 33.5795 54.9659 34.0618 54.9659 34.8523C54.9659 35.5185 54.4787 35.9261 53.6733 35.9261H51.1875ZM51.1875 32.5653V30.4375H53.196C54.1357 30.4375 54.7074 30.8303 54.7074 31.4716C54.7074 32.1527 54.1357 32.5653 53.196 32.5653H51.1875ZM59.1085 32.1278V29.3636H57.9352V37H61.1369C62.9267 37 63.9011 35.9062 63.9011 34.5341C63.9011 33.142 62.9267 32.1278 61.1369 32.1278H59.1085ZM65.1142 37H66.2875V29.3636H65.1142V37ZM59.1085 33.2216H61.1369C62.0666 33.2216 62.7278 33.7884 62.7278 34.5938C62.7278 35.3643 62.0666 35.9062 61.1369 35.9062H59.1085V33.2216ZM73.1483 29.3636H68.4352V37H69.6085V30.4574H73.1483V29.3636ZM77.5668 37.1591C79.6349 37.1591 81.027 35.5881 81.027 33.2216C81.027 30.8352 79.6349 29.2642 77.5668 29.2642C75.4986 29.2642 74.1065 30.8352 74.1065 33.2216C74.1065 35.5881 75.4986 37.1591 77.5668 37.1591ZM77.5668 36.1051C75.9957 36.1051 75.2798 34.7528 75.2798 33.2216C75.2798 31.6903 75.9957 30.3182 77.5668 30.3182C79.1378 30.3182 79.8537 31.6903 79.8537 33.2216C79.8537 34.7528 79.1378 36.1051 77.5668 36.1051ZM82.0027 39.1875H83.176V37H88.8237V39.1875H89.997V35.9062H88.8237V29.3636H83.9714L83.7129 32.3864C83.5289 34.5241 83.2555 35.2599 82.639 35.9062H82.0027V39.1875ZM83.9714 35.9062C84.5083 35.2003 84.7022 33.9822 84.8663 32.3864L85.0652 30.4574H87.6504V35.9062H83.9714ZM92.7276 29.3636H91.5543V37H92.7276V33.7386H96.3867V37H97.56V29.3636H96.3867V32.6449H92.7276V29.3636ZM100.876 32.1278V29.3636H99.7028V37H102.904C104.694 37 105.669 35.9062 105.669 34.5341C105.669 33.142 104.694 32.1278 102.904 32.1278H100.876ZM106.882 37H108.055V29.3636H106.882V37ZM100.876 33.2216H102.904C103.834 33.2216 104.495 33.7884 104.495 34.5938C104.495 35.3643 103.834 35.9062 102.904 35.9062H100.876V33.2216ZM113.404 37.1591C114.956 37.1591 116.089 36.3835 116.447 35.2301L115.314 34.9119C115.015 35.7074 114.324 36.1051 113.404 36.1051C112.027 36.1051 111.078 35.2152 111.023 33.5795H116.566V33.0824C116.566 30.2386 114.876 29.2642 113.285 29.2642C111.217 29.2642 109.845 30.8949 109.845 33.2415C109.845 35.5881 111.197 37.1591 113.404 37.1591ZM111.023 32.5653C111.103 31.3771 111.943 30.3182 113.285 30.3182C114.558 30.3182 115.373 31.2727 115.373 32.5653H111.023ZM122.289 37H123.462V30.4574H127.121V37H128.294V29.3636H122.289V37ZM130.437 39.8636H131.61V35.8267H131.71C131.968 36.2443 132.466 37.1591 133.937 37.1591C135.846 37.1591 137.179 35.6278 137.179 33.2017C137.179 30.7955 135.846 29.2642 133.917 29.2642C132.426 29.2642 131.968 30.179 131.71 30.5767H131.571V29.3636H130.437V39.8636ZM131.591 33.1818C131.591 31.4716 132.346 30.3182 133.778 30.3182C135.27 30.3182 136.005 31.571 136.005 33.1818C136.005 34.8125 135.25 36.1051 133.778 36.1051C132.366 36.1051 131.591 34.9119 131.591 33.1818ZM142.17 37.1591C143.721 37.1591 144.855 36.3835 145.213 35.2301L144.079 34.9119C143.781 35.7074 143.09 36.1051 142.17 36.1051C140.793 36.1051 139.843 35.2152 139.789 33.5795H145.332V33.0824C145.332 30.2386 143.642 29.2642 142.051 29.2642C139.983 29.2642 138.61 30.8949 138.61 33.2415C138.61 35.5881 139.963 37.1591 142.17 37.1591ZM139.789 32.5653C139.868 31.3771 140.708 30.3182 142.051 30.3182C143.324 30.3182 144.139 31.2727 144.139 32.5653H139.789ZM146.301 39.1875H147.475V37H153.123V39.1875H154.296V35.9062H153.123V29.3636H148.27L148.012 32.3864C147.828 34.5241 147.554 35.2599 146.938 35.9062H146.301V39.1875ZM148.27 35.9062C148.807 35.2003 149.001 33.9822 149.165 32.3864L149.364 30.4574H151.949V35.9062H148.27ZM155.177 37H155.575C157.265 37 157.752 35.6875 157.862 33.1818L157.981 30.4574H160.785V37H161.958V29.3636H156.867L156.728 32.7443C156.629 35.3097 156.37 35.9062 155.455 35.9062H155.177V37ZM167.213 37.1591C169.281 37.1591 170.673 35.5881 170.673 33.2216C170.673 30.8352 169.281 29.2642 167.213 29.2642C165.145 29.2642 163.753 30.8352 163.753 33.2216C163.753 35.5881 165.145 37.1591 167.213 37.1591ZM167.213 36.1051C165.642 36.1051 164.926 34.7528 164.926 33.2216C164.926 31.6903 165.642 30.3182 167.213 30.3182C168.784 30.3182 169.5 31.6903 169.5 33.2216C169.5 34.7528 168.784 36.1051 167.213 36.1051ZM171.673 37H173.085L175.69 33.7188H176.286V37H177.46V33.7188H178.056L180.642 37H182.053L178.971 33.1222L182.014 29.3636H180.622L178.076 32.625H177.46V29.3636H176.286V32.625H175.65L173.105 29.3636H171.713L174.775 33.1222L171.673 37ZM186.617 37.1591C188.169 37.1591 189.302 36.3835 189.66 35.2301L188.526 34.9119C188.228 35.7074 187.537 36.1051 186.617 36.1051C185.24 36.1051 184.291 35.2152 184.236 33.5795H189.779V33.0824C189.779 30.2386 188.089 29.2642 186.498 29.2642C184.43 29.2642 183.058 30.8949 183.058 33.2415C183.058 35.5881 184.41 37.1591 186.617 37.1591ZM184.236 32.5653C184.316 31.3771 185.156 30.3182 186.498 30.3182C187.771 30.3182 188.586 31.2727 188.586 32.5653H184.236ZM192.737 29.3636H191.564V37H192.737V33.7386H196.396V37H197.57V29.3636H196.396V32.6449H192.737V29.3636ZM200.886 35.2699V29.3636H199.713V37H201.085L204.744 31.0938V37H205.917V29.3636H204.565L200.886 35.2699ZM212.66 37H213.773V29.3636H210.631C208.986 29.3636 207.987 30.2237 207.987 31.6307C207.987 32.6797 208.513 33.4254 209.433 33.7386L207.569 37H208.842L210.612 33.8977H212.66V37ZM212.66 32.804H210.492C209.662 32.804 209.16 32.3615 209.16 31.6307C209.16 30.8899 209.717 30.4375 210.631 30.4375H212.66V32.804Z" fill="white"/>
<rect y="2" width="39" height="39" rx="19.5" fill="#FFC856"/>
<path d="M18.2287 28.2116H20.7713V24.4545H24.5284V21.9119H20.7713V18.1548H18.2287V21.9119H14.4716V24.4545H18.2287V28.2116Z" fill="white"/>
<rect x="250" y="2" width="39" height="39" rx="19.5" fill="#FFC856"/>
<path d="M268.229 27.2116H270.771V23.4545H274.528V20.9119H270.771V17.1548H268.229V20.9119H264.472V23.4545H268.229V27.2116Z" fill="white"/>
<path d="M300.233 16H304.051C306.239 16 307.432 14.767 307.432 12.9972C307.432 11.2273 306.239 10.0938 304.051 10.0938H301.466V6.91193H306.378V5.81818H300.233V16ZM301.466 14.9261V11.1875H304.051C305.443 11.1875 306.219 12.0028 306.219 12.9773C306.219 13.9716 305.443 14.9261 304.051 14.9261H301.466ZM312.504 16.1591C314.055 16.1591 315.189 15.3835 315.547 14.2301L314.413 13.9119C314.115 14.7074 313.424 15.1051 312.504 15.1051C311.127 15.1051 310.177 14.2152 310.123 12.5795H315.666V12.0824C315.666 9.23864 313.976 8.2642 312.385 8.2642C310.317 8.2642 308.944 9.89489 308.944 12.2415C308.944 14.5881 310.297 16.1591 312.504 16.1591ZM310.123 11.5653C310.202 10.3771 311.042 9.31818 312.385 9.31818C313.657 9.31818 314.473 10.2727 314.473 11.5653H310.123ZM320.553 16.1591C322.243 16.1591 323.357 15.125 323.556 13.7727H322.383C322.164 14.608 321.468 15.1051 320.553 15.1051C319.161 15.1051 318.266 13.9517 318.266 12.1818C318.266 10.4517 319.181 9.31818 320.553 9.31818C321.587 9.31818 322.204 9.95455 322.383 10.6506H323.556C323.357 9.21875 322.144 8.2642 320.533 8.2642C318.465 8.2642 317.093 9.89489 317.093 12.2216C317.093 14.5085 318.405 16.1591 320.553 16.1591ZM325.271 16H326.444V9.45739H330.104V16H331.277V8.36364H325.271V16ZM332.743 16H333.141C334.831 16 335.319 14.6875 335.428 12.1818L335.547 9.45739H338.351V16H339.525V8.36364H334.434L334.295 11.7443C334.195 14.3097 333.937 14.9062 333.022 14.9062H332.743V16ZM343.925 16.179C345.257 16.179 345.953 15.4631 346.192 14.9659H346.251V16H347.425V10.9688C347.425 8.54261 345.575 8.2642 344.601 8.2642C343.447 8.2642 342.135 8.66193 341.538 10.054L342.652 10.4517C342.91 9.89489 343.522 9.2983 344.64 9.2983C345.719 9.2983 346.251 9.87003 346.251 10.8494V10.8892C346.251 11.456 345.675 11.4062 344.282 11.5852C342.866 11.7692 341.319 12.0824 341.319 13.8324C341.319 15.3239 342.473 16.179 343.925 16.179ZM344.104 15.125C343.169 15.125 342.493 14.7074 342.493 13.892C342.493 12.9972 343.308 12.7188 344.223 12.5994C344.72 12.5398 346.052 12.4006 346.251 12.1619V13.2358C346.251 14.1903 345.496 15.125 344.104 15.125ZM348.527 9.45739H351.053V16H352.226V9.45739H354.732V8.36364H348.527V9.45739ZM357.616 8.36364H356.443V16H357.616V12.7386H361.275V16H362.449V8.36364H361.275V11.6449H357.616V8.36364ZM366.839 16.179C368.171 16.179 368.867 15.4631 369.106 14.9659H369.165V16H370.339V10.9688C370.339 8.54261 368.489 8.2642 367.515 8.2642C366.361 8.2642 365.049 8.66193 364.452 10.054L365.566 10.4517C365.824 9.89489 366.436 9.2983 367.555 9.2983C368.633 9.2983 369.165 9.87003 369.165 10.8494V10.8892C369.165 11.456 368.589 11.4062 367.197 11.5852C365.78 11.7692 364.233 12.0824 364.233 13.8324C364.233 15.3239 365.387 16.179 366.839 16.179ZM367.018 15.125C366.083 15.125 365.407 14.7074 365.407 13.892C365.407 12.9972 366.222 12.7188 367.137 12.5994C367.634 12.5398 368.966 12.4006 369.165 12.1619V13.2358C369.165 14.1903 368.41 15.125 367.018 15.125ZM377.074 16H378.188V8.36364H375.045C373.4 8.36364 372.401 9.22372 372.401 10.6307C372.401 11.6797 372.928 12.4254 373.847 12.7386L371.983 16H373.256L375.026 12.8977H377.074V16ZM377.074 11.804H374.906C374.076 11.804 373.574 11.3615 373.574 10.6307C373.574 9.88991 374.131 9.4375 375.045 9.4375H377.074V11.804ZM383.464 18.1875H384.637V16H390.285V18.1875H391.458V14.9062H390.285V8.36364H385.432L385.174 11.3864C384.99 13.5241 384.716 14.2599 384.1 14.9062H383.464V18.1875ZM385.432 14.9062C385.969 14.2003 386.163 12.9822 386.327 11.3864L386.526 9.45739H389.111V14.9062H385.432ZM396.118 16.1591C398.186 16.1591 399.578 14.5881 399.578 12.2216C399.578 9.83523 398.186 8.2642 396.118 8.2642C394.049 8.2642 392.657 9.83523 392.657 12.2216C392.657 14.5881 394.049 16.1591 396.118 16.1591ZM396.118 15.1051C394.547 15.1051 393.831 13.7528 393.831 12.2216C393.831 10.6903 394.547 9.31818 396.118 9.31818C397.689 9.31818 398.404 10.6903 398.404 12.2216C398.404 13.7528 397.689 15.1051 396.118 15.1051ZM404.471 16.1591C406.161 16.1591 407.275 15.125 407.474 13.7727H406.301C406.082 14.608 405.386 15.1051 404.471 15.1051C403.079 15.1051 402.184 13.9517 402.184 12.1818C402.184 10.4517 403.099 9.31818 404.471 9.31818C405.505 9.31818 406.122 9.95455 406.301 10.6506H407.474C407.275 9.21875 406.062 8.2642 404.451 8.2642C402.383 8.2642 401.011 9.89489 401.011 12.2216C401.011 14.5085 402.323 16.1591 404.471 16.1591ZM408.588 9.45739H411.113V16H412.286V9.45739H414.792V8.36364H408.588V9.45739ZM418.354 16.179C419.687 16.179 420.383 15.4631 420.621 14.9659H420.681V16H421.854V10.9688C421.854 8.54261 420.005 8.2642 419.03 8.2642C417.877 8.2642 416.564 8.66193 415.968 10.054L417.081 10.4517C417.34 9.89489 417.952 9.2983 419.07 9.2983C420.149 9.2983 420.681 9.87003 420.681 10.8494V10.8892C420.681 11.456 420.104 11.4062 418.712 11.5852C417.295 11.7692 415.749 12.0824 415.749 13.8324C415.749 15.3239 416.903 16.179 418.354 16.179ZM418.533 15.125C417.599 15.125 416.922 14.7074 416.922 13.892C416.922 12.9972 417.738 12.7188 418.653 12.5994C419.15 12.5398 420.482 12.4006 420.681 12.1619V13.2358C420.681 14.1903 419.925 15.125 418.533 15.125ZM423.996 16H427.595C429.146 16 430.081 15.125 430.081 13.9517C430.081 12.7536 429.171 12.1072 428.331 11.983C429.191 11.804 429.803 11.3217 429.803 10.392C429.803 9.17401 428.759 8.36364 427.118 8.36364H423.996V16ZM425.109 14.9261V12.5795H427.595C428.401 12.5795 428.888 13.0618 428.888 13.8523C428.888 14.5185 428.401 14.9261 427.595 14.9261H425.109ZM425.109 11.5653V9.4375H427.118C428.058 9.4375 428.629 9.83026 428.629 10.4716C428.629 11.1527 428.058 11.5653 427.118 11.5653H425.109ZM431.857 16H433.03V12.7784H434.084L436.59 16H438.101L434.979 12.0426L438.062 8.36364H436.55L433.806 11.6847H433.03V8.36364H431.857V16ZM441.624 16.179C442.956 16.179 443.652 15.4631 443.891 14.9659H443.95V16H445.124V10.9688C445.124 8.54261 443.274 8.2642 442.3 8.2642C441.146 8.2642 439.834 8.66193 439.237 10.054L440.351 10.4517C440.61 9.89489 441.221 9.2983 442.34 9.2983C443.419 9.2983 443.95 9.87003 443.95 10.8494V10.8892C443.95 11.456 443.374 11.4062 441.982 11.5852C440.565 11.7692 439.019 12.0824 439.019 13.8324C439.019 15.3239 440.172 16.179 441.624 16.179ZM441.803 15.125C440.868 15.125 440.192 14.7074 440.192 13.892C440.192 12.9972 441.007 12.7188 441.922 12.5994C442.419 12.5398 443.752 12.4006 443.95 12.1619V13.2358C443.95 14.1903 443.195 15.125 441.803 15.125ZM300.074 37H301.247V30.4574H304.906V37H306.08V29.3636H300.074V37ZM311.325 37.1591C313.393 37.1591 314.785 35.5881 314.785 33.2216C314.785 30.8352 313.393 29.2642 311.325 29.2642C309.256 29.2642 307.864 30.8352 307.864 33.2216C307.864 35.5881 309.256 37.1591 311.325 37.1591ZM311.325 36.1051C309.754 36.1051 309.038 34.7528 309.038 33.2216C309.038 31.6903 309.754 30.3182 311.325 30.3182C312.896 30.3182 313.612 31.6903 313.612 33.2216C313.612 34.7528 312.896 36.1051 311.325 36.1051ZM326.484 37H329.154L324.998 31.5412L328.97 26.8182H326.29L322.91 30.8849H322.477V26.8182H320.324V37H322.477V32.6598H323.213L326.484 37ZM333.086 37.1491C335.403 37.1491 336.845 35.5632 336.845 33.2116C336.845 30.8452 335.403 29.2642 333.086 29.2642C330.77 29.2642 329.328 30.8452 329.328 33.2116C329.328 35.5632 330.77 37.1491 333.086 37.1491ZM333.096 35.5085C332.028 35.5085 331.481 34.5291 331.481 33.1967C331.481 31.8643 332.028 30.88 333.096 30.88C334.145 30.88 334.692 31.8643 334.692 33.1967C334.692 34.5291 334.145 35.5085 333.096 35.5085ZM338.222 37H340.34V34.2905H341.131L343.015 37H345.53L342.801 33.152L345.501 29.3636H343.015L340.937 32.3267H340.34V29.3636H338.222V37ZM353.052 29.3636H351.044V33.0178C350.681 33.1023 350.328 33.142 349.96 33.142C348.836 33.142 348.424 32.8438 348.424 31.9588V29.3537H346.425V31.9588C346.425 33.9474 347.763 34.8075 349.96 34.8075C350.293 34.8075 350.681 34.7628 351.044 34.6932V37H353.052V29.3636ZM358.177 37.1491C360.066 37.1491 361.339 36.2294 361.637 34.8125L359.678 34.6832C359.464 35.2649 358.918 35.5682 358.212 35.5682C357.153 35.5682 356.482 34.8672 356.482 33.7287V33.7237H361.682V33.142C361.682 30.5469 360.111 29.2642 358.092 29.2642C355.845 29.2642 354.388 30.8601 354.388 33.2166C354.388 35.6378 355.825 37.1491 358.177 37.1491ZM356.482 32.4112C356.526 31.5412 357.188 30.8452 358.127 30.8452C359.047 30.8452 359.683 31.5014 359.688 32.4112H356.482ZM362.475 31.0291H364.916V37H366.934V31.0291H369.395V29.3636H362.475V31.0291ZM372.583 37.1442C373.712 37.1442 374.443 36.652 374.816 35.9411H374.875V37H376.884V31.8494C376.884 30.0298 375.343 29.2642 373.642 29.2642C371.813 29.2642 370.61 30.1392 370.316 31.5312L372.275 31.6903C372.419 31.1832 372.872 30.8104 373.632 30.8104C374.353 30.8104 374.766 31.1733 374.766 31.7997V31.8295C374.766 32.3217 374.244 32.3864 372.916 32.5156C371.405 32.6548 370.048 33.1619 370.048 34.8672C370.048 36.3786 371.127 37.1442 372.583 37.1442ZM373.19 35.6825C372.539 35.6825 372.071 35.3793 372.071 34.7976C372.071 34.201 372.563 33.9077 373.309 33.8033C373.771 33.7386 374.527 33.6293 374.781 33.4602V34.2706C374.781 35.071 374.119 35.6825 373.19 35.6825ZM378.527 37H382.285C384.194 37 385.258 36.2195 385.258 34.9169C385.258 33.9126 384.463 33.1172 383.091 33.0178C384.184 32.8288 384.836 32.2521 384.836 31.4268C384.836 30.1044 383.667 29.3636 381.783 29.3636H378.527V37ZM380.501 35.4141V33.7486H382.285C382.872 33.7486 383.23 34.0817 383.23 34.6236C383.23 35.1158 382.872 35.4141 382.285 35.4141H380.501ZM380.501 32.5057V30.9844H381.783C382.439 30.9844 382.842 31.2678 382.842 31.7351C382.842 32.2173 382.459 32.5057 381.828 32.5057H380.501ZM387.901 39.8636C389.477 39.8636 390.312 39.0582 390.744 37.8253L393.713 29.3736L391.47 29.3636L389.874 34.9716H389.795L388.214 29.3636H385.987L388.726 37.2188L388.602 37.5419C388.323 38.2578 387.791 38.2926 387.046 38.0639L386.568 39.6449C386.872 39.7741 387.364 39.8636 387.901 39.8636ZM401.487 37.1491C403.804 37.1491 405.245 35.5632 405.245 33.2116C405.245 30.8452 403.804 29.2642 401.487 29.2642C399.17 29.2642 397.728 30.8452 397.728 33.2116C397.728 35.5632 399.17 37.1491 401.487 37.1491ZM401.497 35.5085C400.428 35.5085 399.881 34.5291 399.881 33.1967C399.881 31.8643 400.428 30.88 401.497 30.88C402.546 30.88 403.093 31.8643 403.093 33.1967C403.093 34.5291 402.546 35.5085 401.497 35.5085ZM405.883 31.0291H408.324V37H410.343V31.0291H412.803V29.3636H405.883V31.0291ZM421.737 26.8182H419.714L417.193 28.4141V30.3232L419.525 28.8615H419.585V37H421.737V26.8182ZM428.15 37.2237C430.71 37.2237 432.256 35.2749 432.261 31.919C432.266 28.5881 430.7 26.679 428.15 26.679C425.594 26.679 424.043 28.5831 424.038 31.919C424.028 35.2649 425.584 37.2188 428.15 37.2237ZM428.15 35.4389C426.981 35.4389 426.225 34.2656 426.23 31.919C426.235 29.6072 426.986 28.4439 428.15 28.4439C429.308 28.4439 430.064 29.6072 430.064 31.919C430.069 34.2656 429.313 35.4389 428.15 35.4389ZM436.658 31.0291H439.099V37H441.118V31.0291H443.579V29.3636H436.658V31.0291ZM446.886 31.7102V29.3636H444.863V37H448.472C450.496 37 451.684 35.9411 451.689 34.3651C451.684 32.7592 450.496 31.7102 448.472 31.7102H446.886ZM452.509 37H454.627V29.3636H452.509V37ZM446.886 33.3757H448.472C449.183 33.3757 449.685 33.7933 449.695 34.38C449.685 34.9368 449.183 35.3345 448.472 35.3345H446.886V33.3757ZM459.77 37.1491C461.803 37.1491 463.081 35.956 463.181 34.201H461.182C461.058 35.0163 460.521 35.4737 459.795 35.4737C458.806 35.4737 458.164 34.6435 458.164 33.1818C458.164 31.7401 458.811 30.9148 459.795 30.9148C460.57 30.9148 461.068 31.4268 461.182 32.1875H463.181C463.091 30.4226 461.754 29.2642 459.76 29.2642C457.443 29.2642 456.012 30.87 456.012 33.2116C456.012 35.5334 457.419 37.1491 459.77 37.1491ZM475.806 29.3587H467.439V31.1087H470.521V37H472.664V31.1087H475.806V29.3587ZM475.806 26.8182H467.439V28.5682H475.806V26.8182Z" fill="white"/>
</svg>
